<svg width="20" height="20" viewBox="0 0 20 20" fill="none" xmlns="http://www.w3.org/2000/svg">
<path d="M0.833984 18.334H19.1673" stroke="#BC2876" stroke-width="1.5" stroke-miterlimit="10" stroke-linecap="round" stroke-linejoin="round"/>
<path d="M16.4844 18.3422V14.6255" stroke="#BC2876" stroke-width="1.5" stroke-miterlimit="10" stroke-linecap="round" stroke-linejoin="round"/>
<path d="M16.4994 9.07617C15.4827 9.07617 14.666 9.89285 14.666 10.9095V12.8011C14.666 13.8178 15.4827 14.6345 16.4994 14.6345C17.516 14.6345 18.3327 13.8178 18.3327 12.8011V10.9095C18.3327 9.89285 17.516 9.07617 16.4994 9.07617Z" stroke="#BC2876" stroke-width="1.5" stroke-miterlimit="10" stroke-linecap="round" stroke-linejoin="round"/>
<path d="M1.75 18.3343V5.02596C1.75 3.35096 2.58338 2.50928 4.24171 2.50928H9.43336C11.0917 2.50928 11.9167 3.35096 11.9167 5.02596V18.3343" stroke="#BC2876" stroke-width="1.5" stroke-miterlimit="10" stroke-linecap="round" stroke-linejoin="round"/>
<path d="M4.83398 6.875H8.95899" stroke="#BC2876" stroke-width="1.5" stroke-miterlimit="10" stroke-linecap="round" stroke-linejoin="round"/>
<path d="M4.83398 10H8.95899" stroke="#BC2876" stroke-width="1.5" stroke-miterlimit="10" stroke-linecap="round" stroke-linejoin="round"/>
<path d="M6.875 18.334V15.209" stroke="#BC2876" stroke-width="1.5" stroke-miterlimit="10" stroke-linecap="round" stroke-linejoin="round"/>
</svg>
