<svg width="20" height="20" viewBox="0 0 20 20" fill="none" xmlns="http://www.w3.org/2000/svg">
<path d="M10.001 1.66602V0.916016H10.0009L10.001 1.66602ZM15.835 7.49902H16.585V7.499L15.835 7.49902ZM10.4014 14.8008L10.7513 15.4642L10.7513 15.4642L10.4014 14.8008ZM9.60156 14.8008L9.25167 15.4642L9.25167 15.4642L9.60156 14.8008ZM4.16797 7.49902L3.41797 7.499V7.49902H4.16797ZM10.001 1.66602V2.41602C12.8085 2.41602 15.0849 4.69182 15.085 7.49905L15.835 7.49902L16.585 7.499C16.5848 3.8631 13.6366 0.916016 10.001 0.916016V1.66602ZM15.835 7.49902H15.085C15.085 9.28541 14.1917 10.7596 13.0747 11.9061C11.9578 13.0525 10.6756 13.8082 10.0515 14.1374L10.4014 14.8008L10.7513 15.4642C11.4438 15.0989 12.8784 14.2571 14.1491 12.9529C15.4197 11.6487 16.585 9.81932 16.585 7.49902H15.835ZM10.4014 14.8008L10.0515 14.1374C10.0185 14.1548 9.98444 14.1548 9.95146 14.1374L9.60156 14.8008L9.25167 15.4642C9.72259 15.7125 10.2803 15.7125 10.7513 15.4642L10.4014 14.8008ZM9.60156 14.8008L9.95146 14.1374C9.32745 13.8083 8.04525 13.0526 6.92828 11.9062C5.81126 10.7598 4.91797 9.2855 4.91797 7.49902H4.16797H3.41797C3.41797 9.81941 4.58326 11.6489 5.85393 12.953C7.12465 14.2572 8.55925 15.0989 9.25167 15.4642L9.60156 14.8008ZM4.16797 7.49902L4.91797 7.49905C4.91807 4.69183 7.19376 2.4162 10.001 2.41602L10.001 1.66602L10.0009 0.916016C6.36536 0.916249 3.4181 3.86335 3.41797 7.499L4.16797 7.49902ZM10.001 5V4.25C8.20605 4.25 6.75098 5.70507 6.75098 7.5H7.50098H8.25098C8.25098 6.5335 9.03448 5.75 10.001 5.75V5ZM7.50098 7.5H6.75098C6.75098 9.29493 8.20605 10.75 10.001 10.75V10V9.25C9.03448 9.25 8.25098 8.4665 8.25098 7.5H7.50098ZM10.001 10V10.75C11.7959 10.75 13.251 9.29493 13.251 7.5H12.501H11.751C11.751 8.4665 10.9675 9.25 10.001 9.25V10ZM12.501 7.5H13.251C13.251 5.70507 11.7959 4.25 10.001 4.25V5V5.75C10.9675 5.75 11.751 6.5335 11.751 7.5H12.501Z" fill="#BC2876"/>
<path d="M16.4952 14.584C17.1535 14.964 17.5 15.3951 17.5 15.834C17.5 16.2728 17.1535 16.7039 16.4952 17.084C15.8369 17.464 14.8901 17.7796 13.75 17.999C12.6099 18.2185 11.3165 18.334 10 18.334C8.68348 18.334 7.39014 18.2185 6.25 17.999C5.10986 17.7796 4.16307 17.464 3.50481 17.084C2.84655 16.7039 2.5 16.2728 2.5 15.834C2.5 15.3951 2.84655 14.964 3.50481 14.584" stroke="#BC2876" stroke-width="1.5" stroke-linecap="round"/>
</svg>
