<svg width="60" height="60" viewBox="0 0 60 60" fill="none" xmlns="http://www.w3.org/2000/svg">
<g clip-path="url(#clip0_9546_8689)">
<rect width="60" height="60" rx="30" fill="white"/>
<path d="M30 0C13.432 0 0 13.4309 0 30C0 46.5691 13.432 60 30 60C46.568 60 60 46.568 60 30C60 13.432 46.568 0 30 0ZM42.3832 42.3832C41.7598 43.0063 40.9144 43.3563 40.033 43.3563C39.1516 43.3563 38.3062 43.0063 37.6828 42.3832L30 34.7004L22.3172 42.3832C21.6938 43.0063 20.8484 43.3563 19.967 43.3563C19.0856 43.3563 18.2402 43.0063 17.6168 42.3832C16.9937 41.7598 16.6437 40.9144 16.6437 40.033C16.6437 39.1516 16.9937 38.3062 17.6168 37.6828L25.2996 30L17.6168 22.3172C16.9937 21.6938 16.6437 20.8484 16.6437 19.967C16.6437 19.0856 16.9937 18.2402 17.6168 17.6168C18.2402 16.9937 19.0856 16.6437 19.967 16.6437C20.8484 16.6437 21.6938 16.9937 22.3172 17.6168L30 25.2996L37.6828 17.6168C38.3062 16.9937 39.1516 16.6437 40.033 16.6437C40.9144 16.6437 41.7598 16.9937 42.3832 17.6168C43.0063 18.2402 43.3563 19.0856 43.3563 19.967C43.3563 20.8484 43.0063 21.6938 42.3832 22.3172L34.7004 30L42.3832 37.6828C43.0063 38.3062 43.3563 39.1516 43.3563 40.033C43.3563 40.9144 43.0063 41.7598 42.3832 42.3832Z" fill="url(#paint0_linear_9546_8689)"/>
</g>
<defs>
<linearGradient id="paint0_linear_9546_8689" x1="0" y1="30" x2="60" y2="30" gradientUnits="userSpaceOnUse">
<stop stop-color="#CC3232"/>
<stop offset="0.6" stop-color="#EF5A5A"/>
<stop offset="1" stop-color="#F47E67"/>
</linearGradient>
<clipPath id="clip0_9546_8689">
<rect width="60" height="60" rx="30" fill="white"/>
</clipPath>
</defs>
</svg>
