<svg width="60" height="60" viewBox="0 0 60 60" fill="none" xmlns="http://www.w3.org/2000/svg">
<g clip-path="url(#clip0_9546_8484)">
<path d="M30 60C46.5685 60 60 46.5685 60 30C60 13.4315 46.5685 0 30 0C13.4315 0 0 13.4315 0 30C0 46.5685 13.4315 60 30 60Z" fill="#8AC149"/>
<path d="M48.3759 23.8476C50.0162 22.2075 50.0162 19.548 48.3759 17.9079C46.7357 16.2677 44.0763 16.2677 42.4362 17.9079L25.2123 35.1317L17.6816 27.601C16.0414 25.9608 13.3821 25.9608 11.7419 27.6011C10.1017 29.2412 10.1016 31.9008 11.7418 33.5408C11.7433 33.5424 11.7451 33.5438 11.7467 33.5454L23.2458 45.0541C24.3293 46.1377 26.086 46.1377 27.1694 45.0541L48.3712 23.8523C48.3727 23.8506 48.3743 23.8491 48.3759 23.8476Z" fill="white"/>
</g>
<defs>
<clipPath id="clip0_9546_8484">
<rect width="60" height="60" fill="white"/>
</clipPath>
</defs>
</svg>
