<svg width="127" height="132" viewBox="0 0 127 132" fill="none" xmlns="http://www.w3.org/2000/svg">
<path d="M86.0928 124.36C80.4103 126.9 69.235 128.628 56.393 128.628C43.5455 128.628 32.3758 126.899 26.6932 124.36C24.977 123.599 23.7642 122.757 23.1541 121.871C22.8522 121.437 22.6953 120.991 22.6953 120.538V123.203C22.6953 123.442 22.7393 123.674 22.8274 123.907C24.3111 128.049 38.7738 131.745 56.3924 131.745C74.0048 131.745 88.4743 128.049 89.9574 123.907C90.0455 123.674 90.0895 123.442 90.0895 123.203V120.538L86.0928 124.36Z" fill="#403D39"/>
<path d="M86.0928 124.36C80.4103 126.9 69.235 128.628 56.393 128.628C43.5455 128.628 32.3758 126.899 26.6932 124.36C24.977 123.599 23.7642 122.757 23.1541 121.871C22.8522 121.437 22.6953 120.991 22.6953 120.538V123.203C22.6953 123.442 22.7393 123.674 22.8274 123.907C24.3111 128.049 38.7738 131.745 56.3924 131.745C74.0048 131.745 88.4743 128.049 89.9574 123.907C90.0455 123.674 90.0895 123.442 90.0895 123.203V120.538L86.0928 124.36Z" fill="#252422"/>
<path d="M90.0901 120.538C90.0901 120.991 89.9326 121.437 89.6313 121.871C87.6447 124.756 79.298 127.126 68.1661 128.119C64.5017 128.452 60.5354 128.628 56.393 128.628C43.5455 128.628 32.3758 126.899 26.6932 124.36C24.977 123.599 23.7642 122.757 23.1541 121.871C22.8522 121.437 22.6953 120.991 22.6953 120.538C22.6953 116.075 37.7811 112.449 56.3924 112.449C59.265 112.449 62.0495 112.537 64.7082 112.701C79.298 113.587 90.0901 116.767 90.0901 120.538Z" fill="#403D39"/>
<path opacity="0.2" d="M88.2452 120.095C88.1491 120.514 87.7269 121.394 87.3617 121.735C84.8592 124.072 76.7239 124.31 73.1371 123.21L54.1172 113.508V112.445C56.8267 112.445 61.7435 112.533 64.2577 112.69C78.0514 113.521 88.9638 116.951 88.2452 120.095Z" fill="#F2F2F2"/>
<path opacity="0.3" d="M83.5879 119.418C83.4843 119.584 80.5758 121.596 71.3604 118.566C71.3604 118.566 62.4971 116.239 61.2347 115.753C61.3693 115.35 61.4313 114.894 61.4313 114.397L61.2031 113.508C61.2031 113.508 62.6515 113.364 66.4175 113.848C74.5461 114.893 86.5069 116.752 83.5879 119.418Z" fill="#F2F2F2"/>
<path opacity="0.2" d="M24.7132 120.095C24.8093 120.514 25.2315 121.394 25.5967 121.735C28.0991 124.072 36.2345 124.31 39.8213 123.21L58.8412 113.508V112.445C56.1317 112.445 51.2149 112.533 48.7007 112.69C34.907 113.521 23.9952 116.951 24.7132 120.095Z" fill="#F2F2F2"/>
<path opacity="0.3" d="M29.3709 119.418C29.4744 119.584 32.383 121.596 41.5984 118.566C41.5984 118.566 50.4616 116.239 51.724 115.753C51.5895 115.35 51.5275 114.894 51.5275 114.397L51.7556 113.508C51.7556 113.508 50.3073 113.364 46.5412 113.848C38.4127 114.893 26.4518 116.752 29.3709 119.418Z" fill="#F2F2F2"/>
<path d="M66.274 59.7621C65.0229 58.4586 64.1539 56.8646 63.516 55.2136C63.341 57.3196 64.6243 59.6983 66.1825 61.1124C66.9985 61.8529 68.2054 62.5354 69.2217 62.1726C69.845 61.95 70.1897 61.349 70.2078 60.6435C69.2124 62.006 67.3883 60.9229 66.274 59.7621Z" fill="#EB5E28"/>
<path d="M70.4372 21.0292C62.1107 16.545 54.134 16.0607 47.9763 19.6655C40.6299 23.9663 36.4745 31.9224 36.3086 41.3782C36.2676 43.7214 36.3949 46.1238 36.6988 48.5597C34.7633 51.2725 32.4098 54.167 29.6779 56.8099C28.5904 57.1535 27.547 57.614 26.5675 58.1873C26.2542 58.3709 25.9369 58.5752 25.5715 58.8293L8.15888 69.7148C-0.0178498 74.5016 -2.4594 85.5893 2.7168 94.4311C7.89267 103.272 18.7562 106.571 26.8956 101.805L28.6856 100.848L45.4429 118.423C46.9733 120.273 49.8786 120.715 52.082 119.425C52.1012 119.414 52.1203 119.402 52.1387 119.39L56.5855 116.413C57.0714 116.087 57.4489 115.644 57.6933 115.135C57.7827 115.011 57.8639 114.881 57.9351 114.744C59.5959 111.566 59.6721 111.185 59.7126 110.981C59.9751 109.67 59.4187 108.358 58.2955 107.639L53.9335 104.846C52.0226 103.621 50.3283 102.109 48.8974 100.349L43.0532 93.1634L44.738 92.2624C45.263 92.024 45.6986 91.8016 46.1061 91.5631C47.0844 90.9905 47.9957 90.3022 48.8272 89.5147C52.8379 88.4942 56.9381 88.0845 60.6351 87.9933C62.0593 88.9701 63.5092 89.854 64.9761 90.6391C73.979 95.4575 81.5143 95.9536 89.7976 91.1045C95.9554 87.4996 99.4377 80.3068 99.6038 70.8511C99.7632 61.7795 96.8276 51.6192 91.338 42.2419C85.8482 32.8646 78.4257 25.3311 70.4372 21.0292ZM53.6514 70.7058L62.7616 63.9888L52.4189 68.6564L57.5323 64.5851L51.1563 66.9194C51.0998 66.8265 51.0443 66.7325 50.9882 66.6389L54.5466 63.7925L50.0392 65.0008C49.9764 64.8885 49.9137 64.7761 49.8519 64.6637L52.6899 62.3502L49.0051 63.0721C48.9406 62.9464 48.8762 62.8208 48.8127 62.695L51.3697 60.6436L48.0651 61.1612C48.0011 61.0245 47.9387 60.8879 47.8759 60.7512L50.2961 58.8095L47.2274 59.2903C47.171 59.1584 47.1144 59.0265 47.0591 58.8947L60.4108 53.6897C59.9842 55.7327 60.4794 58.3493 61.9366 60.8383C62.7199 62.1764 63.6718 63.2887 64.6937 64.1307L53.8253 70.9453C53.767 70.8653 53.7087 70.7862 53.6514 70.7058ZM70.038 63.4678C68.6311 64.2914 65.7438 62.9539 63.8495 59.718C61.955 56.482 62.2023 53.3096 63.6092 52.4859C65.0161 51.6624 67.9034 52.9998 69.7979 56.2358C71.692 59.4717 71.4448 62.6443 70.038 63.4678ZM46.2328 42.8381C45.4695 43.9773 44.6934 45.1112 43.8602 46.2029C45.0389 43.4372 46.4747 40.774 47.918 38.1321C49.8145 34.6605 51.8723 31.2539 54.0792 27.9615C54.8427 26.8225 55.6191 25.6886 56.4533 24.5975C55.2766 27.3644 53.8396 30.0267 52.397 32.6691C50.5015 36.1408 48.4388 39.5457 46.2328 42.8381ZM43.7494 39.7348C44.2968 37.4454 45.2336 35.2239 46.2177 33.0926C47.201 30.9634 48.2954 28.8094 49.6912 26.9164C49.1464 29.2067 48.208 31.4278 47.2229 33.5585C46.2388 35.6873 45.1429 37.8405 43.7494 39.7348ZM64.6842 82.1746L71.5954 82.5542L61.9944 79.537L77.9854 79.2618L59.7811 76.7224L73.8907 74.5296L60.7675 74.0032L71.6009 65.1064C71.6585 65.0591 71.7091 65.0061 71.7548 64.9501C73.9189 63.0702 73.9516 58.9422 71.7114 55.1156C71.1989 54.2403 70.614 53.4623 69.9852 52.7922L81.4468 43.0358L67.3154 50.7369C66.7579 50.4523 66.1955 50.2476 65.6415 50.132L79.4762 37.739C78.7444 36.7649 77.9872 35.812 77.2022 34.8833L63.7954 47.7141L75.4773 32.9303C73.2801 30.5553 70.8743 28.3654 68.2152 26.4146C68.1689 26.3808 68.1217 26.3487 68.0754 26.3152L55.7871 40.7597L66.7184 25.399C65.5833 24.6797 64.4039 24.0337 63.2114 23.4084C71.556 25.9207 80.6563 33.6502 87.1287 44.7062C97.1595 61.8407 97.1371 80.5711 87.0788 86.4594C80.9862 90.0258 72.5886 88.0742 64.6842 82.1746ZM47.1363 116.991C47.1173 116.967 47.0973 116.945 47.0765 116.923L30.7144 99.7626L31.216 99.4943L34.9258 102.334L32.8656 98.6121L33.5249 98.2596L37.1481 101.033L35.1359 97.398L35.8336 97.0249L39.3705 99.732L37.4063 96.1837L37.9065 95.9163L45.6218 105.403C47.0633 107.175 48.77 108.699 50.694 109.931L55.3349 112.903C55.6232 113.088 55.7905 113.39 55.7939 113.732C55.7976 114.075 55.6365 114.38 55.3524 114.571L50.9357 117.527C49.8178 118.164 48.0354 118.103 47.1363 116.991ZM42.2715 94.3567C44.0602 96.3047 45.7544 98.3432 47.4456 100.376C48.6035 101.767 49.7748 103.104 51.1567 104.281C52.4703 105.4 53.9197 106.317 55.3521 107.272C56.6926 108.165 58.3773 108.994 58.5667 110.78C58.013 109.316 56.6846 108.72 55.4222 107.959C53.9554 107.075 52.4722 106.19 51.1364 105.114C48.4391 102.94 46.3958 100.009 44.3489 97.2452C43.6433 96.2921 42.9437 95.3336 42.2715 94.3567ZM14.095 81.1014C13.3388 77.6404 13.3544 74.1512 14.549 70.7802C14.2063 71.316 13.8854 71.8707 13.6092 72.4623C12.1527 75.582 11.8003 78.8848 12.1672 82.2772C11.411 78.8162 11.4266 75.3269 12.6213 71.9558C12.2786 72.4918 11.9577 73.0464 11.6813 73.6381C10.2247 76.7578 9.87252 80.0608 10.2394 83.4529C9.48296 79.992 9.49874 76.5027 10.6934 73.1316C10.3507 73.6674 10.0297 74.2222 9.75335 74.8139C8.29689 77.9336 7.94469 81.2364 8.31138 84.6287C7.55513 81.1676 7.57075 77.6783 8.76552 74.3074C8.42282 74.8433 8.10187 75.398 7.82552 75.9896C6.3689 79.1092 6.0167 82.4123 6.38355 85.8045C5.6273 82.3435 5.64292 78.8541 6.83769 75.4831C6.495 76.0191 6.17404 76.5737 5.89769 77.1654C4.44123 80.2852 4.08919 83.5879 4.45573 86.9802C3.69915 83.5178 3.71493 80.0269 4.91115 76.6547C5.19056 75.8669 5.53229 75.1218 5.91605 74.4069C6.87264 73.322 8.00476 72.3739 9.30694 71.6114L23.0364 63.0288C22.2621 63.9983 19.8615 67.9322 19.3935 68.9349C17.9368 72.0544 17.5845 75.3575 17.9515 78.7497C17.1951 75.2888 17.2109 71.7992 18.4055 68.4284C18.0628 68.9643 17.7418 69.519 17.4655 70.1106C16.009 73.2303 15.6567 76.5333 16.0235 79.9255C15.2671 76.4647 15.2829 72.9751 16.4775 69.6043C16.1348 70.1401 15.8138 70.6947 15.5375 71.2864C14.0805 74.4061 13.7282 77.7092 14.095 81.1014ZM51.4928 82.7352C52.2307 83.2624 52.9943 83.732 53.7797 84.1536C52.2687 83.7829 50.8009 83.2582 49.3765 82.5329C46.7354 81.1879 44.4763 79.3201 42.4617 77.1631C44.295 79.6947 46.4385 81.9061 49.0472 83.6478C49.7323 84.1051 50.4387 84.5111 51.1625 84.8751C49.6988 84.5707 48.2702 84.1127 46.8736 83.4624C44.2196 82.2268 41.9486 80.4223 39.9332 78.3197C41.7844 80.8077 43.9634 82.9645 46.6185 84.5926C47.2561 84.9836 47.908 85.3318 48.5727 85.6425C47.2739 85.4238 45.9964 85.0743 44.7393 84.5638C41.9246 83.4206 39.5214 81.6316 37.4047 79.4763C39.3013 81.9612 41.5538 84.0939 44.3034 85.616C44.8603 85.9243 45.4257 86.1993 45.9983 86.4469C44.6981 86.2803 43.4146 85.9731 42.1523 85.4919C39.3612 84.4279 36.9808 82.7284 34.8762 80.6326C36.8099 83.106 39.126 85.2175 41.953 86.6314C42.4277 86.8688 42.9068 87.082 43.3899 87.2753C42.1338 87.158 40.8882 86.8986 39.6568 86.4712C36.8483 85.4964 34.4626 83.8517 32.3476 81.7889C34.3413 84.2815 36.7459 86.3813 39.6853 87.6898C40.0425 87.8487 40.4012 87.9946 40.7614 88.1284C39.5926 88.055 38.4262 87.8523 37.2634 87.4977C34.3966 86.6235 31.9674 85.0004 29.819 82.9452C31.7977 85.3666 34.1666 87.3736 37.0684 88.6061C37.428 88.7589 37.7896 88.8974 38.1527 89.0232C37.0108 88.9857 35.8667 88.8151 34.7248 88.4908C31.8589 87.6767 29.4458 86.127 27.2905 84.1016C29.293 86.5026 31.6423 88.3657 34.5385 89.5769C34.9871 89.7645 35.4413 89.9247 35.8988 90.0643C31.1691 89.5327 26.6753 86.6234 23.9844 82.0269C20.5193 76.108 21.0166 68.7803 25.0526 64.0685C29.9679 60.887 34.0906 56.5455 37.3174 52.3735C38.474 58.1717 40.6463 64.0841 43.9824 69.7829C46.8779 74.7291 50.3347 79.0681 54.1285 82.6931C53.3325 82.373 52.5513 82.0039 51.7863 81.5762C49.194 80.1265 46.9792 78.1968 44.9902 76.0064C46.8052 78.5872 48.9163 80.894 51.4928 82.7352ZM53.2135 76.2925C49.4069 71.8053 46.3241 66.7565 43.9951 61.358C41.2117 54.9064 39.5878 47.7051 40.0163 40.6571C40.4142 34.1114 42.7733 27.2879 48.3884 23.4458C48.8161 23.153 49.271 22.9027 49.7184 22.6414C47.4182 24.2492 45.5123 26.2039 44.1449 28.6732C42.5448 31.5629 41.6984 34.8333 41.3668 38.1043C40.6717 44.9604 42.0754 51.922 44.5074 58.3193C46.5163 63.6037 49.3179 68.6057 52.7273 73.1116C56.8822 78.6028 62.0795 83.5475 68.2156 86.7572C73.8949 89.7279 80.5851 91.2319 86.7205 88.752C87.1757 88.5679 87.6133 88.3415 88.0553 88.1281C85.4811 89.6376 82.7606 90.5096 79.7615 90.6225C76.3985 90.7492 73.0733 90.0196 69.9533 88.7977C63.4227 86.2404 57.721 81.6063 53.2135 76.2925ZM97.6938 62.228C98.1375 64.8288 98.4201 67.4655 98.341 70.1077C98.2724 72.3958 97.9557 74.5969 97.4331 76.822C98.2729 72.5364 98.2844 68.2855 97.6236 63.9685C96.9004 59.2434 95.4368 54.6089 93.5309 50.2312C89.6213 41.2512 83.7238 32.9298 76.1505 26.6798C72.4001 23.5848 68.2164 21.2451 63.5603 19.8447C67.7367 20.9321 71.5344 22.7939 75.0117 25.3538C78.9394 28.2451 82.3263 31.6927 85.3659 35.4964C88.4863 39.4008 91.1175 43.746 93.2088 48.2827C95.2581 52.728 96.8691 57.3937 97.6938 62.228Z" fill="#403D39"/>
<path d="M76.25 19.9323C77.0507 19.0058 77.7891 18.0239 78.5083 17.0335C80.4516 14.3575 82.175 11.541 83.871 8.70494C82.6994 8.75648 81.5283 8.80736 80.358 8.87613C81.8926 5.9996 83.3597 3.05464 84.5026 0C83.4883 1.22392 82.5495 2.51241 81.641 3.8162C80.0433 6.10943 78.573 8.48013 77.1017 10.8547C78.2448 10.8262 79.3865 10.7949 80.5279 10.7481C80.3814 11.0183 80.2303 11.2858 80.0859 11.557C78.6484 14.2567 77.2636 17.0419 76.25 19.9323Z" fill="#EB5E28"/>
<path d="M87.2422 28.5251C88.3149 27.873 89.3436 27.1459 90.3559 26.4045C92.9991 24.4688 95.4796 22.3366 97.9408 20.1781C96.81 19.8676 95.6796 19.5568 94.5448 19.2631C96.8881 16.9961 99.1881 14.6434 101.213 12.0869C99.8722 12.9406 98.5832 13.8788 97.3186 14.8409C95.0942 16.5331 92.9675 18.3382 90.8386 20.1467C91.9353 20.4704 93.0313 20.7909 94.1322 21.0967C93.91 21.3088 93.6838 21.5172 93.4632 21.731C91.2664 23.8592 89.094 26.0851 87.2422 28.5251Z" fill="#EB5E28"/>
<path d="M105.999 33.9748C108.927 32.5412 111.841 31.0128 114.556 29.2056C113.017 29.604 111.501 30.0989 110.002 30.624C107.364 31.5476 104.784 32.6087 102.201 33.6722C103.142 34.3173 104.085 34.9593 105.036 35.5888C103.776 36.1959 102.527 36.8261 101.295 37.4881C99.554 38.4236 97.8188 39.4027 96.1953 40.5328C97.417 40.2432 98.6196 39.8689 99.8113 39.476C102.923 38.45 105.94 37.1868 108.947 35.893C107.967 35.2485 106.988 34.6042 105.999 33.9748Z" fill="#EB5E28"/>
<path d="M116.229 53.1194C115.434 52.2575 114.64 51.3956 113.832 50.5459C117.02 49.8625 120.216 49.0833 123.287 47.9858C121.698 48.0007 120.108 48.1145 118.526 48.2617C115.743 48.5205 112.983 48.9266 110.219 49.3346C110.977 50.1881 111.737 51.0387 112.508 51.8793C111.138 52.1641 109.774 52.4737 108.419 52.8184C106.503 53.3055 104.583 53.8362 102.734 54.5404C103.99 54.5547 105.247 54.4821 106.499 54.3889C109.766 54.145 112.999 53.6484 116.229 53.1194Z" fill="#EB5E28"/>
<path d="M126.24 67.5317C124.697 67.1516 123.128 66.8674 121.559 66.6174C118.798 66.1776 116.024 65.8865 113.246 65.5959C113.768 66.6108 114.293 67.6233 114.831 68.6288C113.434 68.5649 112.036 68.5266 110.637 68.524C108.661 68.5206 106.669 68.5583 104.703 68.7818C105.916 69.1071 107.152 69.3489 108.387 69.5688C111.613 70.1434 114.868 70.4644 118.129 70.7535C117.572 69.7212 117.016 68.6891 116.445 67.6655C119.703 67.7947 122.993 67.833 126.24 67.5317Z" fill="#EB5E28"/>
</svg>
