<svg width="132" height="123" viewBox="0 0 132 123" fill="none" xmlns="http://www.w3.org/2000/svg">
<path opacity="0.2" d="M69.0466 35.8964L64.7678 35.8108C64.5862 32.6816 62.1898 30.1463 59.125 29.7402V26.242C62.7676 26.1775 66.2974 28.1728 68.0254 31.6498C68.6988 33.0189 69.0361 34.4629 69.0466 35.8964Z" fill="#F2F2F2"/>
<path opacity="0.3" d="M66.5784 31.1146C66.2715 31.5877 65.7253 31.9045 65.1015 31.8605L64.1169 31.7923C63.2297 31.734 62.5669 30.9683 62.6202 30.081L62.6735 29.2961C62.7175 28.6574 63.1125 28.1602 63.6339 27.9357C63.717 27.9016 63.8925 27.8626 63.8925 27.8626C64.4796 27.8148 66.4203 29.5143 66.6274 30.1095C66.783 30.4276 66.7731 30.8126 66.5784 31.1146Z" fill="#F2F2F2"/>
<path d="M124.513 25.2153H107.61C106.583 25.2153 105.75 24.3826 105.75 23.3552C105.75 22.3278 106.583 21.4951 107.61 21.4951H124.513C125.54 21.4951 126.373 22.3278 126.373 23.3552C126.373 24.382 125.54 25.2153 124.513 25.2153Z" fill="#EB5E28"/>
<g opacity="0.2">
<path d="M76.2349 122.405C76.2349 122.405 70.5331 118.721 70.9634 112.89L70.9219 94.6335H74.7251C75.7481 94.548 76.2355 94.796 76.2355 95.4303V106.623V122.405H76.2349Z" fill="#F2F2F2"/>
</g>
<g opacity="0.2">
<path d="M76.2348 111.599C76.2348 111.599 72.2778 108.921 72.576 104.873L72.5469 95.4303C72.5469 94.9901 72.5469 94.6335 72.5469 94.6335H75.3116C75.8212 94.6335 76.2342 94.9901 76.2342 95.4303V103.887L76.2348 111.599Z" fill="#F2F2F2"/>
</g>
<path opacity="0.2" d="M51.5769 22.7077C51.5769 22.7077 41.7755 24.9535 34.879 18.592L31.1719 15.6116C31.2469 14.7435 31.3721 13.8749 31.5557 13.0149C31.9227 11.2615 32.4993 9.54152 33.3004 7.89722L34.2937 8.69891L43.9115 16.497L51.5769 22.7077Z" fill="#F2F2F2"/>
<path opacity="0.3" d="M43.9268 16.4963C43.9268 16.4963 37.1226 18.0576 32.3385 13.6324L31.5703 13.0149C31.9374 11.2615 32.514 9.54152 33.3151 7.89722L34.3083 8.69891L43.9268 16.4963Z" fill="#F2F2F2"/>
<path d="M131.159 30.3226L130.917 29.9588L122.712 21.409C122.227 20.685 122.546 19.6263 123.431 19.3593C124.676 18.9812 125.859 18.3119 126.876 17.3467C130.297 14.0832 130.45 8.71339 127.183 5.45414C124.07 2.04061 118.704 1.9541 115.287 5.22787C114.278 6.19605 113.556 7.34854 113.125 8.57706C112.817 9.44824 111.747 9.71887 111.047 9.20362L102.87 0.62132L102.516 0.365815C102.001 -0.127852 101.174 -0.124222 100.639 0.391023L91.1556 9.48796C90.5672 9.52709 89.9882 9.19999 89.8079 8.57283C89.0021 5.78587 86.6834 3.37984 82.7524 2.61978C82.3495 2.54053 81.9208 2.5369 81.5136 2.6091C73.4625 4.02496 71.3892 12.3949 75.7162 16.9363C76.6324 17.8978 77.7339 18.5785 78.9168 18.9777C79.5547 19.1941 79.838 19.8423 79.7237 20.4513L70.1857 29.6023C69.6313 30.1324 69.6035 30.9923 70.1165 31.5221L78.7416 40.515L78.895 40.6339L78.9465 40.688C79.6781 41.4547 80.9568 41.0482 81.2248 39.9961C82.0151 36.9573 84.5274 34.2451 88.7216 33.4197C89.5056 33.3627 90.2951 33.4131 91.0627 33.5754C92.8278 34.0576 94.2283 34.9001 95.2721 35.9625C96.2851 37.0543 97.0661 38.4913 97.465 40.2774C97.5959 41.0482 97.6134 41.8371 97.5207 42.6217C96.5035 46.7745 93.681 49.1622 90.6103 49.8103C89.55 50.037 89.0852 51.2942 89.819 52.0579L89.8706 52.1115L89.984 52.2738L98.5762 61.2919C99.0862 61.8288 99.9477 61.836 100.499 61.3099L110.068 52.1871C110.683 52.101 111.318 52.4178 111.505 53.0625C111.855 54.2657 112.483 55.3966 113.404 56.3545C117.746 60.8814 126.195 59.1852 127.974 51.2077C128.064 50.8007 128.08 50.3724 128.018 49.9691C127.434 46.0068 125.133 43.5796 122.39 42.6508C121.773 42.4414 121.465 41.8475 121.537 41.2641L131.048 32.1987C131.585 31.6875 131.624 30.8631 131.159 30.3226Z" fill="#EB5E28"/>
<path d="M87.5866 113.917H87.6588L87.8556 113.946L100.311 114C101.053 114.004 101.652 113.384 101.657 112.624L101.71 99.4027C102.074 98.9028 102.739 98.6606 103.336 98.9746C104.444 99.5541 105.696 99.8855 107.024 99.8855C113.296 99.8931 117.928 92.6247 113.406 85.8113C113.178 85.4693 112.879 85.1586 112.545 84.9216C109.282 82.5985 105.944 82.5769 103.37 83.9129C102.79 84.2122 102.151 84.0176 101.779 83.564L101.832 70.4254C101.837 69.6871 101.269 69.0823 100.557 69.0496L100.125 68.9668L88.2749 68.9595C87.4196 68.8081 86.8743 67.8465 87.298 67.0217C87.8845 65.8624 88.2234 64.5445 88.2295 63.1466C88.2501 58.4177 84.4836 54.5865 79.8694 54.6833C75.2498 54.5607 71.4678 58.3743 71.4628 63.1039C71.4658 64.5042 71.7915 65.8227 72.383 66.9856C72.7984 67.8104 72.248 68.772 71.3906 68.9204L59.5361 68.8663L59.1084 68.9452C58.5994 68.9668 58.1719 69.2872 57.9616 69.7377C58.0337 69.9428 58.0791 70.1662 58.0791 70.3971L58.0565 83.9633L57.3136 83.8159C56.9766 83.9633 56.5913 83.9885 56.2234 83.7943L55.9935 83.6933C55.5938 83.6969 55.1824 83.7257 54.758 83.787L54.6499 83.8016L54.5416 83.7836C54.0727 83.6971 53.6555 83.6213 53.2536 83.6213C49.4523 83.6285 46.3051 86.5633 45.829 90.3775C45.7866 90.7052 45.7578 91.037 45.7578 91.3792C45.7578 92.7477 46.1246 94.2099 46.9149 95.6901C47.0849 96.0106 47.2549 96.3348 47.4683 96.6589C47.6516 96.9326 47.8928 97.1814 48.1598 97.3679C49.9054 98.6039 51.6191 99.101 53.2142 99.1042C53.6408 99.101 54.0592 99.0651 54.4694 99L54.5775 98.9784L54.6856 98.9966C55.0318 99.0538 55.3018 99.1079 55.5523 99.1371C55.7624 99.0506 55.9748 98.9641 56.1789 98.8558C56.6106 98.6328 57.0765 98.7048 57.436 98.9459L58.0295 98.827L58.0079 112.599C58.0079 112.775 57.9771 112.949 57.9367 113.114C58.1541 113.571 58.5994 113.895 59.129 113.895L71.5874 113.903L71.778 113.878H71.8532C72.9145 113.881 73.504 112.678 72.9321 111.753C71.2885 109.081 71.0762 105.392 73.3876 101.795C73.8896 101.186 74.4716 100.656 75.1199 100.213C76.6904 99.273 78.2701 98.8485 79.7601 98.831C81.2482 98.8556 82.8228 99.2916 84.3891 100.236C85.033 100.682 85.6154 101.215 86.1151 101.827C88.409 105.435 88.1718 109.123 86.5138 111.789C85.9441 112.71 86.5263 113.917 87.5866 113.917Z" fill="#4E4D4B"/>
<path d="M43.4951 67.2372L43.4672 67.3094L43.4549 67.3352L43.3838 67.6191C43.3807 67.9184 43.6237 68.2209 43.9236 68.2852L55.6875 68.264C55.8565 68.264 55.9977 68.3108 56.1451 68.3469V68.3433C56.5583 68.3612 56.9364 68.5056 57.2466 68.7395L57.3218 68.3685L57.3754 55.1476C57.7402 54.6468 58.4049 54.4093 59.0014 54.719C60.1071 55.2986 61.358 55.6299 62.6874 55.6299C68.9629 55.6372 73.5928 48.3693 69.0712 41.5554C68.8403 41.2134 68.5444 40.9036 68.2107 40.6661C64.9492 38.3427 61.6075 38.3211 59.0333 39.6578C58.4561 39.956 57.8142 39.7618 57.4432 39.3079L57.4988 26.1698C57.4998 25.432 56.933 24.8262 56.2211 24.7941L55.7904 24.7116L43.9399 24.7038C43.0827 24.5529 42.5374 23.5904 42.9599 22.7666C43.5513 21.6062 43.8873 20.2884 43.8956 18.8905C43.9172 14.1591 40.1507 10.3303 35.5323 10.4271C30.9158 10.3055 27.1329 14.1188 27.1268 18.8475C27.1288 20.2485 27.4576 21.5669 28.047 22.7303C28.4624 23.5543 27.9141 24.5166 27.0579 24.6604L15.2024 24.61L14.7737 24.6888C14.0606 24.7183 13.4917 25.3194 13.4917 26.0619L13.4804 39.1998C13.1033 39.6497 12.4634 39.8443 11.8885 39.5384C9.32155 38.1911 5.97881 38.1947 2.70584 40.5035C2.37088 40.7381 2.07202 41.0476 1.8391 41.3896C-2.71864 48.1783 1.88045 55.468 8.15393 55.4928C9.48227 55.5001 10.7364 55.176 11.8429 54.5994C12.4437 54.2903 13.1093 54.5351 13.4659 55.0395L13.4556 68.2604C13.4556 68.4258 13.4937 68.5808 13.5464 68.7286C13.8545 68.5014 14.2296 68.3612 14.6408 68.3433V68.3469C14.786 68.3108 14.9304 68.264 15.0993 68.264L26.8643 68.2852C27.1631 68.2209 27.4073 67.9184 27.4011 67.6231L27.3321 67.3352L27.3188 67.3027L27.3035 67.2702L27.288 67.2305C26.6892 66.0165 26.342 64.6476 26.3327 63.1967H26.3307V63.1575V63.1499V63.1283C26.3307 62.2101 26.5037 61.3569 26.7326 60.5567C27.8137 56.8078 31.1627 54.0277 35.1979 54.0277L35.4111 54.0314L35.5906 54.0277C39.6218 54.0277 42.9738 56.808 44.0549 60.5567C44.2836 61.3569 44.4536 62.2101 44.4536 63.1317V63.1499C44.4534 64.623 44.1011 66.0094 43.4951 67.2372Z" fill="#4E4D4B"/>
<path d="M47.578 84.3777C49.1267 82.9949 51.1466 82.1483 53.3651 82.1417L53.3683 82.8041V82.1417C53.9061 82.1417 54.3792 82.2348 54.816 82.3106C55.2633 82.253 55.7096 82.2139 56.1556 82.2102C56.375 82.2102 56.5955 82.2205 56.8171 82.2417L56.8336 70.2779C56.8336 69.8998 56.5648 69.6267 56.2494 69.5905L56.205 69.5792L56.103 69.5755L56.005 69.54L55.8062 69.5003L43.896 69.5215L43.8384 69.5108C42.9069 69.3418 42.2648 68.5745 42.1783 67.6781L42.1452 67.4982C42.1452 67.2169 42.2122 66.9289 42.3451 66.6516H42.3388L42.3656 66.5831L42.381 66.5615C42.9097 65.4949 43.2146 64.3033 43.2146 63.028V63.01C43.2146 62.2613 43.0755 61.5375 42.8684 60.8132C41.9367 57.6011 39.0937 55.2634 35.7076 55.2634L35.5346 55.2671H35.516H35.4964L35.3162 55.2634C33.723 55.2634 32.2608 55.7932 31.051 56.6757C29.6878 57.6696 28.648 59.1101 28.1576 60.8129C28.037 61.2235 27.9525 61.6377 27.8916 62.0556C27.8442 62.3688 27.8061 62.6821 27.8061 63.0026V63.0062V63.0278C27.8061 64.3029 28.1132 65.4947 28.645 66.5571L28.6613 66.5865L28.6726 66.619L28.6892 66.6587L28.6839 66.6617C28.8086 66.9317 28.8777 67.2203 28.8777 67.5012L28.8469 67.6636C28.7664 68.5672 28.1215 69.3416 27.1868 69.5108L27.1301 69.5215L15.22 69.5003L15.1232 69.5183L15.0191 69.5398L14.9224 69.5753L14.8183 69.579C14.4833 69.5935 14.1895 69.8819 14.1865 70.2745L14.2091 83.6571L14.0534 83.8483C13.6803 84.2946 13.1312 84.5795 12.5242 84.5795C12.2213 84.5795 11.9071 84.5075 11.6236 84.3559C10.6096 83.8304 9.47306 83.5315 8.25906 83.5315C6.65666 83.5315 4.91108 84.0498 3.15219 85.2997C2.8862 85.4872 2.63997 85.735 2.46069 86.0091C1.25597 87.8136 0.75 89.6178 0.75 91.2856C0.75 95.5781 4.11754 99.0358 8.23849 99.0425H8.2518C9.46258 99.0425 10.6044 98.7473 11.6183 98.2181C11.8956 98.0743 12.1975 98.0021 12.4911 98.0021C13.1558 98.0021 13.743 98.348 14.1089 98.8553L14.2375 99.0356L14.2583 112.473C14.2583 112.872 14.5684 113.171 14.9177 113.171L27.3257 113.15L27.5226 113.121H27.573H27.6452C27.844 113.117 27.9719 113.048 28.0852 112.934C28.1933 112.811 28.2625 112.635 28.2625 112.447L28.1449 112.033C27.2751 110.628 26.7704 108.957 26.7704 107.171C26.7704 105.295 27.329 103.292 28.5726 101.347L28.5964 101.311L28.62 101.283C29.1631 100.623 29.7959 100.047 30.4954 99.568L30.512 99.5571L30.5265 99.5464C32.1906 98.5454 33.891 98.0806 35.5017 98.0517H35.5067H35.5223C37.1339 98.0806 38.8321 98.5454 40.4944 99.5464L40.511 99.5537L40.5285 99.5682C41.2283 100.047 41.8599 100.624 42.4019 101.283L42.4277 101.315L42.4503 101.347C43.693 103.292 44.2538 105.295 44.2506 107.174C44.2506 108.957 43.7498 110.628 42.877 112.037L42.7575 112.447C42.7565 112.634 42.8287 112.811 42.9378 112.933C43.0481 113.048 43.1789 113.117 43.3778 113.12H43.4974L43.5447 113.128L43.6932 113.15L56.1052 113.171C56.4535 113.171 56.7647 112.872 56.7659 112.472L56.7874 100.338C56.5081 100.374 56.2186 100.4 55.9167 100.4H55.9126C55.3994 100.397 54.9955 100.284 54.6565 100.227C54.2215 100.292 53.7825 100.338 53.3291 100.338C51.5146 100.338 49.5845 99.7624 47.6998 98.4841L47.4864 98.3542C47.0877 98.0662 46.7332 97.7061 46.4539 97.2882C45.7441 96.2257 45.2534 95.1424 44.938 94.0685C44.8412 93.7341 44.768 93.3986 44.7051 93.0679C44.5885 92.4554 44.5155 91.8498 44.5155 91.2559C44.5155 88.5125 45.6995 86.0521 47.578 84.3777Z" fill="#4E4D4B"/>
</svg>
