<svg width="98" height="130" viewBox="0 0 98 130" fill="none" xmlns="http://www.w3.org/2000/svg">
<path d="M48.7956 130C75.7447 130 97.5912 126.255 97.5912 121.636C97.5912 117.017 75.7447 113.272 48.7956 113.272C21.8465 113.272 0 117.017 0 121.636C0 126.255 21.8465 130 48.7956 130Z" fill="#CCC5B9"/>
<path d="M74.8664 123.599C69.9416 125.8 60.2563 127.298 49.1266 127.298C37.9921 127.298 28.3116 125.8 23.3867 123.599C21.8993 122.94 20.8483 122.21 20.3195 121.442C20.0578 121.066 19.9219 120.679 19.9219 120.287V122.596C19.9219 122.803 19.96 123.005 20.0363 123.206C21.3222 126.796 33.8566 130 49.1261 130C64.3902 130 76.9304 126.796 78.2158 123.206C78.2921 123.005 78.3302 122.803 78.3302 122.596V120.287L74.8664 123.599Z" fill="#403D39"/>
<path d="M74.8664 123.599C69.9416 125.8 60.2563 127.298 49.1266 127.298C37.9921 127.298 28.3116 125.8 23.3867 123.599C21.8993 122.94 20.8483 122.21 20.3195 121.442C20.0578 121.066 19.9219 120.679 19.9219 120.287V122.596C19.9219 122.803 19.96 123.005 20.0363 123.206C21.3222 126.796 33.8566 130 49.1261 130C64.3902 130 76.9304 126.796 78.2158 123.206C78.2921 123.005 78.3302 122.803 78.3302 122.596V120.287L74.8664 123.599Z" fill="#252422"/>
<path d="M78.3308 120.287C78.3308 120.679 78.1943 121.066 77.9331 121.442C76.2114 123.942 68.9776 125.996 59.3299 126.857C56.1541 127.145 52.7167 127.298 49.1266 127.298C37.9921 127.298 28.3116 125.8 23.3867 123.599C21.8993 122.94 20.8483 122.21 20.3195 121.442C20.0578 121.066 19.9219 120.679 19.9219 120.287C19.9219 116.419 32.9963 113.276 49.1261 113.276C51.6156 113.276 54.0289 113.352 56.3331 113.494C68.9776 114.262 78.3308 117.019 78.3308 120.287Z" fill="#403D39"/>
<path opacity="0.2" d="M76.7261 119.902C76.6428 120.266 76.2768 121.028 75.9603 121.324C73.7916 123.349 66.7409 123.556 63.6323 122.602L47.1484 114.193V113.272C49.4967 113.272 53.7579 113.349 55.9369 113.485C67.8914 114.205 77.3489 117.178 76.7261 119.902Z" fill="#F2F2F2"/>
<path opacity="0.3" d="M72.697 119.316C72.6073 119.46 70.0865 121.203 62.0998 118.577C62.0998 118.577 54.4183 116.561 53.3243 116.14C53.4409 115.79 53.4946 115.395 53.4946 114.965L53.2969 114.194C53.2969 114.194 54.5521 114.069 57.816 114.489C64.8608 115.395 75.2269 117.006 72.697 119.316Z" fill="#F2F2F2"/>
<path opacity="0.2" d="M21.6697 119.902C21.753 120.266 22.1189 121.028 22.4354 121.324C24.6042 123.349 31.6548 123.556 34.7634 122.602L51.2473 114.193V113.272C48.8991 113.272 44.6378 113.349 42.4589 113.485C30.5043 114.205 21.0474 117.178 21.6697 119.902Z" fill="#F2F2F2"/>
<path opacity="0.3" d="M25.7016 119.316C25.7914 119.46 28.3121 121.203 36.2988 118.577C36.2988 118.577 43.9803 116.561 45.0744 116.14C44.9578 115.79 44.904 115.395 44.904 114.965L45.1018 114.194C45.1018 114.194 43.8465 114.069 40.5826 114.489C33.5379 115.395 23.1718 117.006 25.7016 119.316Z" fill="#F2F2F2"/>
<path d="M48.8013 118.91C46.0935 118.91 43.8984 117.805 43.8984 115.097V89.1118H53.7041V115.097C53.7041 117.804 51.509 118.91 48.8013 118.91Z" fill="#403D39"/>
<path d="M62.2081 24.5929L36.8466 53.5429L20.8124 39.4981C16.4926 35.714 14.2712 30.4243 14.2422 25.0991C14.2422 24.5059 14.2637 23.9196 14.3217 23.3264C14.3867 22.5741 14.4953 21.8212 14.6543 21.0759C14.9725 19.5563 15.4722 18.0657 16.1665 16.6406C16.4196 16.1199 16.7017 15.6062 17.0058 15.0995C17.5776 14.1371 18.2503 13.2182 19.0101 12.3498C20.8844 10.2155 23.1129 8.59425 25.5369 7.49482C32.2081 4.47757 40.305 5.41794 46.1659 10.5481L62.2081 24.5929Z" fill="#252422"/>
<g opacity="0.2">
<path d="M60.0188 25.4121C60.4455 24.9129 60.3928 24.1638 59.9001 23.7296L45.8531 11.3318C43.6171 9.38385 40.8535 8.21349 38.1941 7.62347C28.8909 5.55896 26.3777 10.5811 26.3777 10.5811C23.4679 14.8799 27.4868 20.1594 31.4106 23.5233L47.7542 37.8884C48.2577 38.3312 49.0267 38.2764 49.4619 37.7664L60.0188 25.4121Z" fill="#F2F2F2"/>
</g>
<g opacity="0.3">
<path d="M58.9574 24.1137L46.3822 13.1699C44.6105 11.6283 42.632 10.3295 40.4767 9.39664C35.2982 7.15425 33.4008 8.27947 32.9134 8.84799C32.9134 8.84799 29.168 11.1414 36.0118 17.0131L52.8224 31.2675C53.1873 31.577 53.7338 31.5335 54.0449 31.1703L59.0466 25.3362C59.3577 24.9735 59.318 24.4275 58.9574 24.1137Z" fill="#F2F2F2"/>
</g>
<path d="M23.5322 33.9056C24.327 34.6015 24.4071 35.8105 23.7112 36.6053C23.0153 37.4 21.8068 37.4801 21.012 36.7842C20.2173 36.0883 20.1372 34.8798 20.8331 34.0845C21.529 33.2898 22.7375 33.2097 23.5322 33.9056Z" fill="#252422"/>
<path d="M30.1807 26.3067C30.9754 27.0026 31.0555 28.2111 30.3596 29.0064C29.6637 29.8012 28.4552 29.8812 27.6605 29.1853C26.8657 28.4895 26.7857 27.2804 27.4815 26.4857C28.1774 25.6909 29.3859 25.6109 30.1807 26.3067Z" fill="#252422"/>
<path d="M36.8447 18.7083C37.6395 19.4042 37.7196 20.6127 37.0237 21.408C36.3278 22.2027 35.1193 22.2828 34.3245 21.5869C33.5298 20.891 33.4497 19.6825 34.1456 18.8878C34.8415 18.0925 36.05 18.0124 36.8447 18.7083Z" fill="#252422"/>
<path d="M43.4932 11.1095C44.2879 11.8054 44.368 13.0139 43.6721 13.8087C42.9762 14.6034 41.7677 14.6835 40.973 13.9876C40.1782 13.2917 40.0982 12.0832 40.794 11.2879C41.4899 10.4937 42.6984 10.4136 43.4932 11.1095Z" fill="#252422"/>
<path d="M21.2125 18.4429C22.0072 19.1388 22.0873 20.3473 21.3914 21.1426C20.6955 21.9373 19.487 22.0174 18.6917 21.3215C17.897 20.6257 17.8169 19.4171 18.5128 18.6224C19.2092 17.8271 20.4177 17.747 21.2125 18.4429Z" fill="#252422"/>
<path d="M27.8604 10.8438C28.6551 11.5397 28.7352 12.7482 28.0393 13.543C27.3434 14.3377 26.1349 14.4178 25.3402 13.7219C24.5454 13.026 24.4654 11.8175 25.1612 11.0228C25.8571 10.228 27.0656 10.148 27.8604 10.8438Z" fill="#252422"/>
<path d="M32.5166 41.7698C33.3114 42.4657 33.3914 43.6742 32.6955 44.4695C31.9997 45.2642 30.7912 45.3443 29.9964 44.6484C29.2017 43.9526 29.1216 42.744 29.8175 41.9493C30.5134 41.154 31.7219 41.0739 32.5166 41.7698Z" fill="#252422"/>
<path d="M39.1651 34.171C39.9598 34.8669 40.0399 36.0754 39.344 36.8702C38.6481 37.6649 37.4396 37.745 36.6449 37.0491C35.8501 36.3532 35.77 35.1447 36.4659 34.3494C37.1618 33.5552 38.3703 33.4752 39.1651 34.171Z" fill="#252422"/>
<path d="M45.8213 26.5724C46.616 27.2682 46.6961 28.4773 46.0002 29.272C45.3044 30.0668 44.0959 30.1468 43.3011 29.451C42.5064 28.7551 42.4263 27.5466 43.1222 26.7513C43.818 25.9566 45.0266 25.8765 45.8213 26.5724Z" fill="#252422"/>
<path d="M52.4775 18.9734C53.2723 19.6693 53.3524 20.8778 52.6565 21.6731C51.9606 22.4679 50.7521 22.5479 49.9574 21.852C49.1626 21.1562 49.0825 19.9477 49.7784 19.1529C50.4743 18.3576 51.6828 18.2776 52.4775 18.9734Z" fill="#252422"/>
<path d="M39.8765 41.4995C40.6713 42.1954 40.7513 43.4039 40.0555 44.1992C39.3596 44.9939 38.1511 45.074 37.3558 44.3781C36.561 43.6823 36.481 42.4732 37.1769 41.6785C37.8733 40.8832 39.0818 40.8031 39.8765 41.4995Z" fill="#252422"/>
<path d="M46.525 33.9008C47.3197 34.5967 47.3998 35.8052 46.7039 36.6005C46.008 37.3953 44.7995 37.4753 44.0042 36.7794C43.2095 36.0836 43.1294 34.8751 43.8253 34.0803C44.5212 33.2845 45.7297 33.2044 46.525 33.9008Z" fill="#252422"/>
<path d="M53.1734 26.3021C53.9681 26.998 54.0482 28.2065 53.3523 29.0013C52.6565 29.796 51.448 29.8761 50.6527 29.1802C49.8579 28.4843 49.7779 27.2753 50.4737 26.4805C51.1701 25.6863 52.3786 25.6057 53.1734 26.3021Z" fill="#252422"/>
<path d="M31.3525 34.0382C32.1473 34.7341 32.2274 35.9426 31.5315 36.7374C30.8356 37.5321 29.6271 37.6122 28.8324 36.9163C28.0376 36.2204 27.9575 35.0119 28.6534 34.2166C29.3493 33.4224 30.5578 33.3424 31.3525 34.0382Z" fill="#252422"/>
<path d="M38.001 26.4395C38.7957 27.1354 38.8758 28.3439 38.1799 29.1392C37.484 29.934 36.2755 30.014 35.4808 29.3182C34.686 28.6223 34.606 27.4138 35.3019 26.6185C35.9972 25.8237 37.2057 25.7437 38.001 26.4395Z" fill="#252422"/>
<path d="M44.665 18.8409C45.4598 19.5367 45.5399 20.7453 44.844 21.5405C44.1481 22.3353 42.9396 22.4154 42.1449 21.7195C41.3501 21.0236 41.27 19.8151 41.9659 19.0203C42.6618 18.2251 43.8703 18.145 44.665 18.8409Z" fill="#252422"/>
<path d="M22.3682 26.1739C23.1629 26.8698 23.243 28.0783 22.5471 28.8736C21.8512 29.6683 20.6427 29.7484 19.848 29.0525C19.0532 28.3567 18.9732 27.1476 19.669 26.3529C20.3649 25.5581 21.5734 25.478 22.3682 26.1739Z" fill="#252422"/>
<path d="M29.0322 18.575C29.827 19.2709 29.9071 20.4794 29.2112 21.2747C28.5153 22.0694 27.3068 22.1495 26.512 21.4536C25.7173 20.7577 25.6372 19.5492 26.3331 18.7545C27.0284 17.9592 28.237 17.8791 29.0322 18.575Z" fill="#252422"/>
<path d="M35.6807 10.9767C36.4754 11.6726 36.5555 12.8811 35.8596 13.6758C35.1637 14.4706 33.9552 14.5507 33.1605 13.8548C32.3657 13.1589 32.2857 11.9504 32.9815 11.1551C33.6774 10.3609 34.8859 10.2808 35.6807 10.9767Z" fill="#252422"/>
<path d="M40.8104 34.5304C40.8104 34.5304 41.3891 38.3747 39.0758 40.1608C37.9667 41.0174 36.1859 41.3903 33.3519 40.6547C33.0864 40.58 21.4769 31.0607 14.2731 25.1262C13.4353 24.4362 12.9727 23.3846 13.0667 22.3035C13.2849 19.8058 13.9899 17.3426 15.1957 15.0594C15.365 14.7364 18.7428 9.22101 24.708 7.90234C24.2147 8.16404 20.7213 10.2366 18.7777 12.6585C17.7358 13.9567 17.9405 15.8536 19.2302 16.9068L40.8104 34.5304Z" fill="#252422"/>
<path d="M39.072 40.1573C37.9651 41.0181 36.1848 41.3873 33.3487 40.6565C33.081 40.577 21.4747 31.062 14.2677 25.1285C13.4353 24.4337 12.9727 23.3848 13.0667 22.3069C13.1027 21.8512 13.1608 21.388 13.2403 20.9393C13.3273 20.3821 13.4353 19.8248 13.5804 19.2751C13.8701 18.1171 14.2677 16.9812 14.7814 15.8887C14.912 15.6066 15.049 15.3315 15.1941 15.0564C15.3607 14.7382 18.7396 9.22443 24.7021 7.90039C24.2099 8.16101 20.7154 10.2373 18.7761 12.6614C17.7342 13.9564 17.9368 15.8522 19.2248 16.9086L40.8093 34.5274C40.8093 34.5274 41.3875 38.3776 39.072 40.1573Z" fill="#403D39"/>
<path opacity="0.3" d="M40.7718 34.4806C40.7718 34.4806 41.3505 38.3248 39.0372 40.1105C40.4403 38.1851 39.9975 35.2936 39.9975 35.2936L17.8692 17.2003C16.2475 15.8741 16.1131 13.4388 17.5903 11.953C19.2056 10.3286 21.5947 8.53278 24.671 7.85571C24.1756 8.10934 20.6828 10.183 18.7386 12.6092C17.701 13.9058 17.9009 15.8048 19.1932 16.8543L40.7718 34.4806Z" fill="#F2F2F2"/>
<path d="M70.7497 76.1718C70.0226 77.0176 69.2166 77.7973 68.3316 78.4974C68.107 78.6823 67.8824 78.8542 67.6443 79.0128C66.2042 80.0832 64.5787 80.9419 62.821 81.5765C62.2132 81.7882 61.5921 81.9731 60.9843 82.1181C60.469 82.2632 59.9671 82.3691 59.4512 82.4352C59.1869 82.4878 58.9096 82.5276 58.6452 82.5539C58.6586 82.5405 58.6587 82.5276 58.6587 82.5276C58.7774 82.4615 58.8833 82.3954 59.002 82.3164C58.8564 82.3954 58.7113 82.4749 58.5528 82.5674C54.9192 83.0166 51.3114 82.3825 48.1136 80.8629C47.3737 80.5061 46.6466 80.1095 45.9599 79.6603V47.1799L44.9029 47.0079V46.2943H41.0312L67.2348 36.8992L74.4236 56.9581C75.0313 58.6228 75.3881 60.3144 75.5069 61.9926C75.9034 67.2253 74.1592 72.3394 70.7497 76.1718Z" fill="#EB5E28"/>
<path d="M44.9036 46.2942V47.0078L44.7585 46.9815V78.8273C41.8514 76.6601 39.5386 73.6343 38.2173 69.9475L35.495 62.3627L31.0156 49.8886L35.495 48.2765L41.0319 46.2942H44.9036Z" fill="#EB5E28"/>
<path d="M44.7656 46.9817L45.9682 47.18V79.6604C45.5588 79.4095 45.1622 79.1316 44.7656 78.828V46.9817Z" fill="#FFB703"/>
<path d="M59.1361 82.2371C58.9776 82.3429 58.8191 82.4353 58.6605 82.5278C58.6605 82.5278 58.6605 82.5412 58.6471 82.5541C58.6073 82.5541 58.581 82.567 58.5547 82.567C58.753 82.4482 58.9378 82.3424 59.1361 82.2371Z" fill="#FFB703"/>
<path opacity="0.2" d="M70.476 47.3572L73.9785 57.1155C75.7244 61.9802 73.1961 67.3393 68.3315 69.0851C63.4668 70.831 58.1077 68.3027 56.3619 63.4381L52.8594 53.6797L70.476 47.3572Z" fill="#F2F2F2"/>
<g opacity="0.3">
<path d="M70.42 49.9484L71.8784 54.0118C72.7564 56.4584 71.485 59.1533 69.0384 60.0313C66.5919 60.9093 63.897 59.6379 63.019 57.1914L61.5606 53.1284C61.2704 52.3192 61.6906 51.4277 62.4999 51.1375L68.4291 49.0096C69.2383 48.7189 70.1298 49.1391 70.42 49.9484Z" fill="#F2F2F2"/>
</g>
<path d="M71.1574 45.0309L33.0068 58.7238C32.3625 58.9548 31.6526 58.62 31.4216 57.9758L28.0497 48.5812C27.8186 47.9369 28.1534 47.227 28.7977 46.996L66.9488 33.3031C67.5931 33.072 68.3024 33.4068 68.534 34.0511L71.9059 43.4457C72.1365 44.09 71.8017 44.7993 71.1574 45.0309Z" fill="#403D39"/>
<path opacity="0.2" d="M70.0865 44.2679L51.8325 50.8193L48.3359 41.0776L66.5899 34.5262C67.0875 34.3478 67.635 34.6063 67.8134 35.1033L70.6636 43.0438C70.8425 43.5414 70.5841 44.0895 70.0865 44.2679Z" fill="#F2F2F2"/>
<path opacity="0.3" d="M68.2281 44.3564L61.5847 46.7406C61.0124 46.9459 60.3816 46.6487 60.1758 46.0759L57.7915 39.4326C57.5863 38.8603 57.8834 38.2294 58.4562 38.0242L65.0996 35.6399C65.6719 35.4347 66.3027 35.7318 66.508 36.3046L68.8922 42.948C69.098 43.5202 68.8009 44.1506 68.2281 44.3564Z" fill="#F2F2F2"/>
<path d="M68.3294 78.4973V80.5984C68.3294 90.9317 61.3126 91.936 51.9175 91.936C44.5042 91.936 38.2144 90.4029 36.1795 84.8666C35.7302 83.6511 35.4922 82.2368 35.4922 80.5984V46.2947H44.9007V80.5984C44.9007 82.2104 45.4424 83.6774 46.3543 84.8666C46.4204 84.959 46.5128 85.0649 46.5789 85.1438C46.5923 85.1702 46.6187 85.1836 46.6187 85.1965C46.6982 85.276 46.7643 85.355 46.8298 85.4211C46.8562 85.4475 46.8696 85.4738 46.8959 85.4872C46.9486 85.5533 47.0147 85.606 47.0679 85.6592C47.0942 85.6989 47.1474 85.7387 47.1866 85.765C47.3715 85.9499 47.5698 86.1218 47.7944 86.2669C47.8739 86.333 47.9664 86.3991 48.0453 86.4518C48.0717 86.4652 48.098 86.4915 48.1243 86.5044C48.2168 86.5705 48.3092 86.6232 48.4022 86.6629C48.4156 86.6764 48.4156 86.6893 48.4285 86.6893C48.5209 86.7419 48.6004 86.7951 48.6929 86.8349C48.7455 86.8612 48.8116 86.8876 48.8514 86.9139C48.8777 86.9273 48.9175 86.9402 48.9438 86.9537C49.0228 86.9934 49.1023 87.0332 49.1818 87.0595C49.1953 87.0595 49.1953 87.0729 49.1953 87.0729C49.3011 87.1127 49.3936 87.1519 49.4994 87.1917C49.5919 87.218 49.6843 87.2578 49.7767 87.2841C49.9223 87.3239 50.054 87.3631 50.1996 87.4029C50.2786 87.4292 50.3716 87.4426 50.464 87.469C50.5037 87.469 50.5301 87.4824 50.5564 87.4824C50.6488 87.4958 50.7547 87.5222 50.8471 87.5351L51.1642 87.5748C51.27 87.5883 51.3753 87.6012 51.4946 87.6012C51.5344 87.6012 51.5871 87.6012 51.6268 87.6146H51.9175C52.0626 87.6146 52.1948 87.6146 52.3404 87.6012L52.6311 87.5748C52.7499 87.5748 52.8692 87.5485 52.9879 87.5351C53.0675 87.5216 53.1599 87.5087 53.2389 87.4953C53.2915 87.4819 53.3313 87.469 53.3711 87.469C53.5694 87.4292 53.7413 87.3766 53.9391 87.3234C54.0051 87.297 54.0841 87.2707 54.1637 87.2444C54.19 87.2444 54.2163 87.2309 54.2298 87.218C54.2824 87.2046 54.3485 87.1917 54.4017 87.1519C54.4678 87.1385 54.5339 87.1122 54.5866 87.0858C54.6129 87.0724 54.6398 87.0595 54.6661 87.0461C54.7456 87.0198 54.8112 86.9934 54.8907 86.9537C55.0095 86.901 55.1153 86.8349 55.2341 86.7817C55.3136 86.7419 55.3926 86.6893 55.4721 86.6366C55.5517 86.5969 55.6178 86.5571 55.6838 86.5179C55.7634 86.4652 55.816 86.4254 55.8821 86.3722C55.9348 86.3459 55.988 86.3061 56.0407 86.2664C56.2653 86.1079 56.4899 85.923 56.6747 85.7376C56.7408 85.685 56.7935 85.6318 56.8596 85.5657L56.8993 85.5393C56.952 85.4732 57.0181 85.4071 57.0713 85.3545C57.0976 85.3282 57.1111 85.3147 57.124 85.2884C57.1766 85.2223 57.2427 85.1696 57.2825 85.1035C57.4281 84.9316 57.5732 84.7467 57.7054 84.5619C57.7451 84.5092 57.7844 84.4431 57.8241 84.377C57.8639 84.3109 57.9031 84.2449 57.9429 84.1659C57.9827 84.1132 58.0224 84.06 58.0487 83.9939C58.0622 83.9676 58.0751 83.9412 58.1014 83.9144C58.1412 83.822 58.1809 83.7295 58.2336 83.6371C58.2599 83.5844 58.2863 83.5447 58.2997 83.492C58.3529 83.3598 58.4056 83.2411 58.4582 83.1218C58.498 83.0159 58.5372 82.9106 58.577 82.7913C58.6033 82.7118 58.6296 82.6328 58.6431 82.5533C58.9074 82.5269 59.1847 82.4872 59.4491 82.4345C59.9644 82.3684 60.4668 82.2625 60.9822 82.1175C61.5899 81.9724 62.2111 81.787 62.8188 81.5758C64.5765 80.9417 66.2015 80.0825 67.6422 79.0121C67.8802 78.8536 68.1048 78.6821 68.3294 78.4973Z" fill="#403D39"/>
<path d="M68.3296 78.4976V80.5986C68.3296 90.932 61.3129 91.9363 51.9177 91.9363C44.5044 91.9363 38.2147 90.4032 36.1797 84.8668C38.2222 87.6589 50.8903 89.9921 50.8903 89.9921L45.7333 84.9727L46.3545 84.8668C46.4206 84.9593 46.513 85.0651 46.5791 85.1441C46.5926 85.1704 46.6189 85.1839 46.6189 85.1968C46.6984 85.2763 46.7645 85.3553 46.8301 85.4214C46.8564 85.4477 46.8698 85.474 46.8962 85.4875C46.9488 85.5536 47.0149 85.6062 47.0681 85.6594C47.0944 85.6992 47.1476 85.739 47.1869 85.7653C47.3717 85.9501 47.57 86.1221 47.7946 86.2672C47.8741 86.3333 47.9666 86.3994 48.0456 86.452C48.0719 86.4655 48.0982 86.4918 48.1246 86.5047C48.217 86.5708 48.3094 86.6234 48.4024 86.6632C48.4158 86.6766 48.4158 86.6895 48.4287 86.6895C48.5211 86.7422 48.6007 86.7954 48.6931 86.8352C48.7457 86.8615 48.8118 86.8878 48.8516 86.9142C48.8779 86.9276 48.9177 86.9405 48.944 86.9539C49.023 86.9937 49.1025 87.0334 49.1821 87.0598C49.1955 87.0598 49.1955 87.0732 49.1955 87.0732C49.3014 87.113 49.3938 87.1522 49.4996 87.192C49.5921 87.2183 49.6845 87.2581 49.7769 87.2844C49.9225 87.3242 50.0542 87.3634 50.1998 87.4031C50.2788 87.4295 50.3718 87.4429 50.4642 87.4692C50.504 87.4692 50.5303 87.4827 50.5566 87.4827C50.649 87.4961 50.7549 87.5224 50.8473 87.5353L51.1644 87.5751C51.2702 87.5885 51.3756 87.6014 51.4948 87.6014C51.5346 87.6014 51.5873 87.6014 51.627 87.6149H51.9177C52.0628 87.6149 52.195 87.6149 52.3406 87.6014L52.6314 87.5751C52.7501 87.5751 52.8694 87.5488 52.9882 87.5353C53.0677 87.5219 53.1601 87.509 53.2391 87.4956C53.2918 87.4821 53.3315 87.4692 53.3713 87.4692C53.5696 87.4295 53.7415 87.3768 53.9393 87.3236C54.0054 87.2973 54.0844 87.271 54.1639 87.2446C54.1902 87.2446 54.2166 87.2312 54.23 87.2183C54.2826 87.2049 54.3487 87.192 54.4019 87.1522C54.468 87.1388 54.5341 87.1124 54.5868 87.0861C54.6131 87.0727 54.64 87.0598 54.6663 87.0463C54.7458 87.02 54.8114 86.9937 54.8909 86.9539C55.0097 86.9013 55.1155 86.8352 55.2343 86.782C55.3138 86.7422 55.3928 86.6895 55.4723 86.6369C55.5519 86.5971 55.618 86.5574 55.6841 86.5181C55.7636 86.4655 55.8162 86.4257 55.8823 86.3725C55.935 86.3462 55.9882 86.3064 56.0409 86.2666C56.2655 86.1081 56.4901 85.9233 56.6749 85.7379C56.741 85.6852 56.7937 85.632 56.8598 85.5659L56.8996 85.5396C56.9522 85.4735 57.0183 85.4074 57.0715 85.3547C57.0978 85.3284 57.1113 85.315 57.1242 85.2887C57.1768 85.2226 57.2429 85.1699 57.2827 85.1038C57.4283 84.9319 57.5734 84.747 57.7056 84.5622C57.7454 84.5095 57.7846 84.4434 57.8244 84.3773C57.8641 84.3112 57.9033 84.2451 57.9431 84.1661C57.9829 84.1135 58.0226 84.0603 58.049 83.9942C58.0624 83.9678 58.0753 83.9415 58.1016 83.9146C58.1414 83.8222 58.1812 83.7298 58.2338 83.6374C58.2601 83.5847 58.2865 83.5449 58.2999 83.4923C58.3531 83.3601 58.4058 83.2413 58.4584 83.122C58.4982 83.0162 58.5374 82.9109 58.5772 82.7916C58.6035 82.712 58.6298 82.633 58.6433 82.5535C58.9077 82.5272 59.1849 82.4874 59.4493 82.4348C59.9646 82.3687 60.4671 82.2628 60.9824 82.1177C61.5901 81.9726 62.2113 81.7872 62.8191 81.5761C64.5767 80.942 66.2017 80.0828 67.6424 79.0123C67.8804 78.8538 68.105 78.6824 68.3296 78.4976Z" fill="#252422"/>
<path d="M68.557 78.319V80.4969C68.557 82.4937 68.2604 84.238 67.6817 85.7211C67.6527 85.8006 67.6167 85.8802 67.5801 85.9597C67.2545 86.741 66.8203 87.3923 66.3136 87.9495C66.2921 87.9785 66.27 88.0075 66.2485 88.0366C63.3689 91.8641 56.0823 92.3633 50.9957 90.0554C50.7061 89.9254 50.4385 89.7878 50.1779 89.6427C50.1343 89.6212 50.0983 89.5992 50.0623 89.5777C49.8307 89.4477 49.6067 89.3101 49.3966 89.165C49.353 89.136 49.3095 89.107 49.2665 89.0779C47.6168 87.949 46.6689 86.6899 46.6689 86.6685C46.3143 86.1472 46.0032 85.59 45.7425 84.9752C45.7065 84.8957 45.67 84.8162 45.641 84.7367C45.0622 83.2536 44.7656 81.5098 44.7656 79.5125V46.9805L44.9102 47.002L45.9741 47.1831V79.7801C45.9741 80.0912 45.9886 80.3878 46.0101 80.67C46.2632 84.5991 48.1375 86.1983 48.1375 86.1983C48.1375 86.1983 50.8367 89.4181 56.2124 90.0549C60.6622 90.5831 66.1905 89.266 67.2394 82.3632C67.3045 81.8709 67.348 81.3427 67.348 80.764V79.2298C67.449 79.1573 67.5506 79.0853 67.6521 79.0127C67.8907 78.8537 68.1153 78.6796 68.3394 78.499C68.4125 78.4415 68.485 78.384 68.557 78.319Z" fill="#403D39"/>
<path opacity="0.3" d="M68.557 78.319V80.4969C68.557 82.4937 68.2604 84.238 67.6817 85.7211C67.6527 85.8006 67.6167 85.8802 67.5801 85.9597C67.2545 86.741 66.8203 87.3923 66.3136 87.9495C66.2921 87.9785 66.27 88.0075 66.2485 88.0366C63.3689 91.8641 56.0823 92.3633 50.9957 90.0554C50.7061 89.9254 50.4385 89.7878 50.1779 89.6427C50.1343 89.6212 50.0983 89.5992 50.0623 89.5777C49.8307 89.4477 49.6067 89.3101 49.3966 89.165C49.353 89.136 49.3095 89.107 49.2665 89.0779C47.6168 87.949 46.6689 86.6899 46.6689 86.6685C46.3143 86.1472 46.0032 85.59 45.7425 84.9752C45.7065 84.8957 45.67 84.8162 45.641 84.7367C45.0622 83.2536 44.7656 81.5098 44.7656 79.5125V46.9805L44.9102 47.002L45.9741 47.1831V79.7801C45.9741 80.0912 45.9886 80.3878 46.0101 80.67C46.2632 84.5991 48.1375 86.1983 48.1375 86.1983C48.1375 86.1983 50.8367 89.4181 56.2124 90.0549C60.6622 90.5831 66.1905 89.266 67.2394 82.3632C67.3045 81.8709 67.348 81.3427 67.348 80.764V79.2298C67.449 79.1573 67.5506 79.0853 67.6521 79.0127C67.8907 78.8537 68.1153 78.6796 68.3394 78.499C68.4125 78.4415 68.485 78.384 68.557 78.319Z" fill="white"/>
<g opacity="0.2">
<path d="M43.9627 78.2025C43.9627 78.2025 36.7766 72.5705 37.3183 64.0594L37.2656 50.6094C37.2656 49.684 38.0158 48.9333 38.9416 48.9333H42.2872C43.2125 48.9333 43.9632 49.6835 43.9632 50.6094V61.9846V78.2025H43.9627Z" fill="#F2F2F2"/>
</g>
<g opacity="0.3">
<path d="M43.9679 69.2474C43.9679 69.2474 38.9807 65.3387 39.3569 59.432L39.3203 50.0977C39.3203 49.4555 39.841 48.9348 40.4831 48.9348H42.8051C43.4472 48.9348 43.9679 49.4555 43.9679 50.0977V57.9925V69.2474Z" fill="#F2F2F2"/>
</g>
<path d="M48.7852 36.5187C51.1953 41.371 49.2157 47.2583 44.3633 49.6683C39.511 52.0783 33.6238 50.0987 31.2137 45.2464C28.8037 40.3941 30.7833 34.5068 35.6356 32.0968C40.4879 29.6868 46.3752 31.6664 48.7852 36.5187Z" fill="#252422"/>
<path opacity="0.2" d="M46.282 37.4863C48.3578 41.6653 46.6528 46.7352 42.4738 48.8105C38.2953 50.8863 33.2248 49.1813 31.1496 45.0023C29.0738 40.8232 30.7788 35.7533 34.9578 33.678C39.1368 31.6028 44.2067 33.3078 46.282 37.4863Z" fill="#F2F2F2"/>
<path opacity="0.2" d="M42.6375 41.7208C42.6375 44.542 40.3506 46.8289 37.53 46.8289C34.7089 46.8289 32.4219 44.542 32.4219 41.7208C32.4219 38.8997 34.7089 36.6133 37.53 36.6133C40.3506 36.6127 42.6375 38.8997 42.6375 41.7208Z" fill="#F2F2F2"/>
<path opacity="0.2" d="M42.6297 41.4102C42.555 41.4102 42.4803 41.4059 42.4014 41.4016L40.6888 41.2877C39.1471 41.1824 37.9832 39.8514 38.0842 38.3102L38.1767 36.94C38.181 36.8433 38.1944 36.7508 38.2116 36.6589C40.6093 36.9744 42.4846 38.9599 42.6297 41.4102Z" fill="#F2F2F2"/>
<path opacity="0.3" d="M39.0762 38.5408L39.0488 38.9492C39.0181 39.4086 39.3653 39.8063 39.8247 39.8369L40.3352 39.8713C40.9515 39.9127 41.4174 39.2839 41.1622 38.7219C41.0144 38.3973 40.7479 38.0738 40.2755 37.8471C39.7414 37.5907 39.1159 37.9502 39.0762 38.5408Z" fill="#F2F2F2"/>
<path d="M39.5893 41.9736C39.5893 43.548 38.3797 44.8339 36.8439 44.9645C36.7622 44.9699 36.6752 44.9752 36.5876 44.9752C34.9315 44.9752 33.5859 43.6351 33.5859 41.9736C33.5859 40.3175 34.9315 38.9773 36.5876 38.9773C36.6747 38.9773 36.7617 38.9827 36.8439 38.988C38.3797 39.1192 39.5893 40.4045 39.5893 41.9736Z" fill="#252422"/>
<path d="M39.5904 41.9733C39.5904 43.5477 38.3808 44.8336 36.845 44.9642C35.3033 44.839 34.0938 43.5477 34.0938 41.9733C34.0938 40.4042 35.3033 39.1135 36.845 38.9883C38.3808 39.1189 39.5904 40.4042 39.5904 41.9733Z" fill="#2F2F2F"/>
<path opacity="0.4" d="M36.7815 43.7622C37.787 43.7622 38.6021 42.9471 38.6021 41.9417C38.6021 40.9362 37.787 40.1211 36.7815 40.1211C35.776 40.1211 34.9609 40.9362 34.9609 41.9417C34.9609 42.9471 35.776 43.7622 36.7815 43.7622Z" fill="#F2F2F2"/>
<path opacity="0.4" d="M37.6557 42.1631C38.0566 42.1631 38.3816 41.8381 38.3816 41.4371C38.3816 41.0362 38.0566 40.7112 37.6557 40.7112C37.2547 40.7112 36.9297 41.0362 36.9297 41.4371C36.9297 41.8381 37.2547 42.1631 37.6557 42.1631Z" fill="#F2F2F2"/>
<path opacity="0.2" d="M47.1691 41.1653L43.4608 41.0912C43.3033 38.3792 41.2265 36.1819 38.5703 35.8299V32.7982C41.7273 32.7423 44.7864 34.4715 46.284 37.485C46.8676 38.6715 47.1599 39.923 47.1691 41.1653Z" fill="#F2F2F2"/>
<path opacity="0.3" d="M45.0346 37.0212C44.7687 37.4312 44.2952 37.7058 43.7547 37.6676L42.9013 37.6085C42.1324 37.558 41.558 36.8944 41.6042 36.1254L41.6504 35.4451C41.6885 34.8917 42.0308 34.4607 42.4827 34.2662C42.5548 34.2366 42.7068 34.2028 42.7068 34.2028C43.2157 34.1614 44.8976 35.6343 45.0771 36.1501C45.212 36.4258 45.2034 36.7595 45.0346 37.0212Z" fill="#F2F2F2"/>
<path d="M95.2453 31.9085H80.5964C79.706 31.9085 78.9844 31.1868 78.9844 30.2964C78.9844 29.406 79.706 28.6843 80.5964 28.6843H95.2453C96.1357 28.6843 96.8574 29.406 96.8574 30.2964C96.8574 31.1863 96.1357 31.9085 95.2453 31.9085Z" fill="#EB5E28"/>
<path d="M75.6199 22.8609C75.2073 22.8609 74.7951 22.704 74.4802 22.3891C73.8504 21.7599 73.8504 20.7389 74.4797 20.1091L85.704 8.87788C86.3337 8.24756 87.3542 8.2481 87.9839 8.87734C88.6137 9.50658 88.6137 10.5276 87.9845 11.1573L76.7602 22.3886C76.4453 22.7035 76.0321 22.8609 75.6199 22.8609Z" fill="#EB5E28"/>
<g opacity="0.2">
<path d="M53.4015 116.14C53.4015 116.14 48.46 112.947 48.8329 107.893L48.7969 92.0711H52.093C52.9796 91.9969 53.402 92.2118 53.402 92.7616V102.462V116.14H53.4015Z" fill="#F2F2F2"/>
</g>
<g opacity="0.2">
<path d="M53.3993 106.774C53.3993 106.774 49.9699 104.453 50.2284 100.945L50.2031 92.7615C50.2031 92.38 50.2031 92.071 50.2031 92.071H52.5992C53.0409 92.071 53.3988 92.38 53.3988 92.7615V100.091L53.3993 106.774Z" fill="#F2F2F2"/>
</g>
<path opacity="0.2" d="M32.0281 29.7352C32.0281 29.7352 23.5336 31.6815 17.5566 26.1683L14.3438 23.5852C14.4088 22.8329 14.5173 22.0801 14.6764 21.3347C14.9945 19.8151 15.4942 18.3245 16.1885 16.8994L17.0493 17.5942L25.3848 24.3525L32.0281 29.7352Z" fill="#F2F2F2"/>
<path opacity="0.3" d="M25.4043 24.352C25.4043 24.352 19.5073 25.7051 15.3611 21.8699L14.6953 21.3347C15.0134 19.8151 15.5132 18.3245 16.2074 16.8994L17.0683 17.5942L25.4043 24.352Z" fill="#F2F2F2"/>
<path d="M66.5574 18.4641C65.667 18.4641 64.9453 17.7424 64.9453 16.852V1.61207C64.9453 0.721668 65.667 0 66.5574 0C67.4478 0 68.1694 0.721668 68.1694 1.61207V16.8525C68.1694 17.7424 67.4483 18.4641 66.5574 18.4641Z" fill="#EB5E28"/>
</svg>
