<svg width="72" height="82" viewBox="0 0 72 82" fill="none" xmlns="http://www.w3.org/2000/svg">
<path fill-rule="evenodd" clip-rule="evenodd" d="M62.6301 36.902C62.677 37.6051 62.7004 38.3122 62.7004 39.0192C62.7004 47.3317 59.388 55.2962 53.4935 61.1832L53.4856 61.191L33.8216 80.703C32.3607 82.1522 30.0013 82.1522 28.5404 80.703L8.88043 61.191L8.82965 61.1402C3.09525 55.2261 -0.0805469 47.3122 0.00155311 39.0932C0.0796781 30.8744 3.40385 23.0192 9.25155 17.2182C15.0993 11.4135 23.0016 8.12441 31.2556 8.04631C32.49 8.03459 33.7165 8.09709 34.9314 8.226C34.2985 10.3198 33.9587 12.5424 33.9587 14.8432C33.9587 15.1205 33.9626 15.394 33.9704 15.6674C33.0993 15.5776 32.2165 15.5385 31.3298 15.5463C25.0173 15.6088 18.9898 18.1205 14.5368 22.5424C10.0837 26.9604 7.56021 32.9294 7.50161 39.1634C7.43911 45.39 9.83751 51.3934 14.1891 55.8934L31.1811 72.7564L48.1931 55.8734L48.197 55.8695C52.6892 51.3851 55.2009 45.3265 55.2009 39.0175C55.2009 38.5449 55.1892 38.0722 55.1619 37.6034C55.6931 37.6386 56.2322 37.6581 56.7752 37.6581C58.7986 37.6581 60.7635 37.3964 62.6307 36.9003L62.6301 36.902ZM31.3491 31.6911C27.0952 31.6911 23.6421 35.1403 23.6421 39.3981C23.6421 43.6559 27.0952 47.1051 31.3491 47.1051C35.6069 47.1051 39.0561 43.6559 39.0561 39.3981C39.0561 35.1403 35.6069 31.6911 31.3491 31.6911ZM16.9781 39.3981C16.9781 31.4606 23.4117 25.0231 31.3491 25.0231C39.2905 25.0231 45.7241 31.4606 45.7241 39.3981C45.7241 47.3356 39.2905 53.7731 31.3491 53.7731C23.4116 53.7731 16.9781 47.3356 16.9781 39.3981Z" fill="#9E9E9E"/>
<path d="M60.0987 3.75C60.0987 1.6797 58.4229 0 56.3487 0C54.2784 0 52.5987 1.6797 52.5987 3.75V11.043H45.3096C43.2393 11.043 41.5596 12.7227 41.5596 14.793C41.5596 16.8633 43.2393 18.543 45.3096 18.543H52.5987V25.8321C52.5987 27.9024 54.2784 29.5821 56.3487 29.5821C58.4229 29.5821 60.0987 27.9024 60.0987 25.8321V18.543H67.3917C69.462 18.543 71.1417 16.8633 71.1417 14.793C71.1417 12.7227 69.462 11.043 67.3917 11.043H60.0987V3.75Z" fill="#BC2876"/>
</svg>
