<svg width="80" height="80" viewBox="0 0 80 80" fill="none" xmlns="http://www.w3.org/2000/svg">
<g clip-path="url(#clip0_951_71012)">
<path d="M8.73828 3.59058H12.6599V76.41H8.73828V3.59058Z" fill="url(#paint0_linear_951_71012)"/>
<path d="M8.73828 3.59058H12.6599V12.1082H8.73828V3.59058Z" fill="#720361"/>
<path d="M67.3359 3.59058H71.2575V76.41H67.3359V3.59058Z" fill="url(#paint1_linear_951_71012)"/>
<path d="M67.3359 3.59058H71.2575V12.1082H67.3359V3.59058Z" fill="#720361"/>
<path d="M49.7865 37.4286C61.1396 27.4228 68.6662 3.58997 68.6662 3.58997H11.3281C11.3281 3.58997 18.8549 27.4228 30.2078 37.4286C31.7611 38.7975 31.7611 41.2025 30.2078 42.5715C18.8549 52.5773 11.3281 76.41 11.3281 76.41H68.6662C68.6662 76.41 61.1394 52.5773 49.7865 42.5715C48.2332 41.2025 48.2332 38.7975 49.7865 37.4286Z" fill="url(#paint2_linear_951_71012)"/>
<path d="M17.8086 76.41H62.1907C62.1907 76.41 55.1531 53.0954 44.8806 46.9575C43.0679 45.8744 41.9604 43.9169 41.9604 41.8052C41.9604 39.7591 42.8745 37.3476 44.4591 36.0532C46.4564 34.4216 48.2403 31.883 49.7396 29.1948C50.3523 28.0963 49.5634 26.7435 48.3057 26.7435H31.6939C30.4362 26.7435 29.6473 28.0963 30.26 29.1948C31.7593 31.883 33.5432 34.4216 35.5405 36.0532C37.1251 37.3476 38.0392 39.7591 38.0392 41.8052C38.0392 43.9167 36.9317 45.8744 35.119 46.9575C24.8462 53.0954 17.8086 76.41 17.8086 76.41Z" fill="url(#paint3_linear_951_71012)"/>
<path d="M44.8806 46.9575C43.0679 45.8744 41.9605 43.9169 41.9605 41.8052C41.9605 39.7591 42.8745 37.3476 44.459 36.0532C46.4563 34.4216 48.2402 31.883 49.7395 29.1948C50.3522 28.0963 49.5633 26.7435 48.3056 26.7435H44.4232C45.681 26.7435 46.4698 28.0963 45.8571 29.1948C44.3578 31.883 42.574 34.4216 40.5766 36.0532C38.992 37.3476 38.0781 39.7591 38.0781 41.8052C38.0781 43.9167 39.1856 45.8744 40.9983 46.9575C51.2709 53.0954 58.3084 76.41 58.3084 76.41H62.1908C62.1908 76.41 55.1531 53.0954 44.8806 46.9575Z" fill="url(#paint4_linear_951_71012)"/>
<path d="M49.787 42.5713C48.2339 41.2025 48.2339 38.7976 49.787 37.4288C61.1401 27.4232 68.667 3.59009 68.667 3.59009L11.3281 3.59056C11.3281 3.59056 11.8928 5.38036 12.9485 8.18507C13.3815 9.33958 13.8991 10.6651 14.492 12.1082H49.5918C54.2069 12.1082 57.2095 16.9837 55.1112 21.0941C52.019 27.1515 48.0641 33.4233 43.4881 37.4475C41.9402 38.8088 41.9802 41.2215 43.5256 42.5857C54.8696 52.5997 62.3893 76.41 62.3893 76.41H68.667C68.667 76.41 61.1402 52.5768 49.787 42.5713Z" fill="url(#paint5_linear_951_71012)"/>
<path d="M69.9667 80H10.0304C7.76997 80 5.9375 78.1675 5.9375 75.9071C5.9375 73.6467 7.76997 71.8143 10.0304 71.8143H69.9668C72.2272 71.8143 74.0597 73.6467 74.0597 75.9071C74.0596 78.1675 72.2271 80 69.9667 80Z" fill="#FF8A00"/>
<path d="M69.9651 71.8143H63.6875C65.9479 71.8143 67.7804 73.6467 67.7804 75.9071C67.7804 78.1675 65.9479 80 63.6875 80H69.9651C72.2255 80 74.058 78.1675 74.058 75.9071C74.058 73.6467 72.2255 71.8143 69.9651 71.8143Z" fill="#E27A00"/>
<path d="M69.9667 8.18573H10.0304C7.76997 8.18573 5.9375 6.35326 5.9375 4.09286C5.9375 1.83247 7.76997 0 10.0304 0H69.9668C72.2272 0 74.0597 1.83247 74.0597 4.09286C74.0596 6.35326 72.2271 8.18573 69.9667 8.18573Z" fill="#FF8A00"/>
<path d="M69.9651 0H63.6875C65.9479 0 67.7804 1.83247 67.7804 4.09286C67.7804 6.35326 65.9479 8.18573 63.6875 8.18573H69.9651C72.2255 8.18573 74.058 6.35326 74.058 4.09286C74.058 1.83247 72.2255 0 69.9651 0Z" fill="#E27A00"/>
</g>
<defs>
<linearGradient id="paint0_linear_951_71012" x1="8.35631" y1="6.90055" x2="12.8544" y2="7.06951" gradientUnits="userSpaceOnUse">
<stop stop-color="#BF2F75"/>
<stop offset="1" stop-color="#720361"/>
</linearGradient>
<linearGradient id="paint1_linear_951_71012" x1="66.954" y1="6.90055" x2="71.4521" y2="7.06951" gradientUnits="userSpaceOnUse">
<stop stop-color="#BF2F75"/>
<stop offset="1" stop-color="#720361"/>
</linearGradient>
<linearGradient id="paint2_linear_951_71012" x1="39.9971" y1="3.58997" x2="39.9972" y2="76.41" gradientUnits="userSpaceOnUse">
<stop stop-color="#F0F0F0"/>
<stop offset="1" stop-color="#DBDBDB"/>
</linearGradient>
<linearGradient id="paint3_linear_951_71012" x1="13.4857" y1="29.0011" x2="50.2019" y2="51.8852" gradientUnits="userSpaceOnUse">
<stop stop-color="#BF2F75"/>
<stop offset="1" stop-color="#720361"/>
</linearGradient>
<linearGradient id="paint4_linear_951_71012" x1="35.7295" y1="29.0011" x2="60.5771" y2="37.415" gradientUnits="userSpaceOnUse">
<stop stop-color="#BF2F75"/>
<stop offset="1" stop-color="#720361"/>
</linearGradient>
<linearGradient id="paint5_linear_951_71012" x1="39.9975" y1="3.59009" x2="39.9975" y2="76.41" gradientUnits="userSpaceOnUse">
<stop stop-color="#E6E6E6"/>
<stop offset="1" stop-color="#C2C2C2"/>
</linearGradient>
<clipPath id="clip0_951_71012">
<rect width="80" height="80" fill="white"/>
</clipPath>
</defs>
</svg>
