<svg width="79" height="80" viewBox="0 0 79 80" fill="none" xmlns="http://www.w3.org/2000/svg">
<g opacity="0.41">
<path d="M4.5521 48.4712C4.42365 47.2571 4.39378 46.032 4.46678 44.8135C4.80948 39.0882 7.36877 33.5693 11.3387 29.5591C12.755 28.1283 14.3827 26.8274 15.2598 24.9922C16.7369 21.9016 16.4432 18.4565 18.3141 15.3827C20.187 12.3055 23.0158 9.83217 26.2762 8.46481C35.9971 4.38833 50.1368 9.41682 49.4982 21.8111C49.4958 21.8555 49.4942 21.92 49.493 22.0018C49.4536 24.5714 51.5037 26.6199 53.9807 26.5477C63.1221 26.2815 71.3408 33.1376 73.4777 42.2666C74.852 48.1375 73.402 54.7312 69.4143 59.1507C66.4375 62.4498 62.3212 64.3954 58.1762 65.8029C49.8654 68.6251 41.0212 69.5979 32.2866 69.1584C24.1106 68.7469 15.411 66.7899 9.83072 60.6021C6.85384 57.3015 5.02752 52.9615 4.5521 48.4712Z" fill="#FFE2F1"/>
</g>
<g opacity="0.31">
<path d="M50.4368 7.66677C50.4613 6.49236 49.5603 5.52064 48.4245 5.49637C47.2887 5.47209 46.3481 6.40446 46.3236 7.57887C46.2991 8.75328 47.2001 9.725 48.3359 9.74927C49.4717 9.77355 50.4123 8.84118 50.4368 7.66677Z" fill="#FFE2F1"/>
</g>
<g opacity="0.31">
<path d="M13.5268 7.68103C13.5567 8.28631 14.0555 8.75143 14.6409 8.72007C15.2263 8.68871 15.6767 8.17255 15.6467 7.56727C15.6168 6.96199 15.118 6.49687 14.5326 6.52823C13.9472 6.55959 13.4968 7.07575 13.5268 7.68103Z" fill="#FFE2F1"/>
</g>
<g opacity="0.31">
<path d="M74.5898 32.4795C74.6095 32.8802 74.9398 33.188 75.3272 33.1672C75.7148 33.1464 76.0127 32.8048 75.993 32.4042C75.9732 32.0035 75.643 31.6957 75.2554 31.7163C74.8682 31.7373 74.57 32.0789 74.5898 32.4795Z" fill="#FFE2F1"/>
</g>
<g opacity="0.31">
<path d="M71.3141 69.0907C71.3522 67.2417 69.9336 65.7122 68.1455 65.6743C66.3573 65.6365 64.8768 67.1046 64.8386 68.9536C64.8005 70.8025 66.2191 72.3321 68.0073 72.3699C69.7954 72.4078 71.2759 70.9396 71.3141 69.0907Z" fill="#FFE2F1"/>
</g>
<path opacity="0.47" d="M4.06342 15.6823C3.04969 13.8749 3.64582 11.5589 5.39457 10.5093C7.14347 9.45971 10.598 9.34451 11.6116 11.1519C12.6253 12.9592 9.93991 14.701 8.89822 16.4931C7.44572 18.9925 5.07699 17.4895 4.06342 15.6823Z" fill="#ECF1F7"/>
<path opacity="0.47" d="M14.7348 72.3286C13.4782 73.2657 11.7259 72.9727 10.8207 71.6743C9.91549 70.3759 9.57137 67.6617 10.8279 66.7246C12.0845 65.7875 13.5703 67.7711 14.9699 68.4553C16.9218 69.4095 15.9914 71.3915 14.7348 72.3286Z" fill="#FFE2F1"/>
<path opacity="0.47" d="M64.5318 3.89318C65.8933 2.44422 68.132 2.40966 69.5322 3.81606C70.9324 5.22246 71.9367 8.5143 70.5753 9.96342C69.2138 11.4124 66.9469 9.2871 65.0632 8.75558C62.436 8.01446 63.1703 5.3423 64.5318 3.89318Z" fill="#FFE2F1"/>
<path opacity="0.32" d="M7.11202 23.709C6.19277 26.3905 5.94187 29.3201 6.53706 32.0918C7.33717 35.8185 10.0935 39.0945 9.62359 43.0692C9.34156 45.4543 9.3918 47.6406 9.33508 49.9839C9.21847 54.7958 12.5385 58.7793 16.4334 60.773C19.5967 62.3924 23.1936 62.8194 26.6656 62.51C29.7905 62.2314 32.8678 61.4007 35.8382 60.371C38.7006 59.3786 41.4792 58.1455 44.5658 58.2378C47.1326 58.3146 49.5129 59.2809 51.9489 59.9518C57.7651 61.5535 64.6457 61.3257 69.589 57.8545C75.0076 54.0494 77.1962 46.829 75.3028 40.5193C74.2871 37.135 72.9312 34.2015 73.4216 30.5956C73.6629 28.8218 74.0228 27.0164 73.6905 25.2577C73.3848 23.6391 72.5085 22.1826 71.4692 20.9146C68.6669 17.4954 64.6777 15.3153 60.5307 14.0326C55.8263 12.5774 50.6031 11.7841 45.7111 12.5375C36.2084 14.001 34.1404 12.5777 24.2068 11.1495C17.5523 10.1927 11.306 15.5506 8.27332 21.0782C7.8137 21.9158 7.42423 22.7982 7.11202 23.709Z" fill="#FFE2F1"/>
<g opacity="0.83">
<path opacity="0.81" d="M11.7112 31.4523C13.0799 29.6235 15.1957 28.3814 16.2323 26.28C17.4734 23.7641 17.2119 20.7948 18.3203 18.2246C19.9581 14.4267 22.9246 11.2008 26.6392 9.42923C28.4295 8.57547 30.3942 8.05611 32.3107 8.20507C35.2653 8.43451 37.8139 10.2156 39.8069 12.3428C42.773 15.5086 44.8703 20.0048 48.43 22.5414C50.3945 23.9411 52.703 22.4561 54.7842 21.9851C57.1381 21.4524 59.5837 21.5774 61.8321 22.2256C65.9731 23.4193 69.5393 26.4231 71.3228 30.3843C73.2269 34.6132 72.9562 40.4598 69.3823 44.0956C67.7288 45.7777 65.4866 46.9019 64.2596 48.9166C62.7197 51.4451 62.5391 54.8627 62.1092 57.674C61.6344 60.7788 60.324 63.8035 58.3545 66.3132C58.3322 66.3417 58.3098 66.37 58.2872 66.3984C54.8654 70.706 49.0256 72.1587 44.1026 69.9988C44.1026 69.9988 33.6281 65.4035 33.6278 65.4033C22.9995 60.7404 14.9307 53.2265 11.057 42.3371C10.2189 39.9806 9.91423 34.9569 10.9823 32.6566C11.1841 32.2225 11.4321 31.8252 11.7112 31.4523Z" fill="#FFE2F1"/>
</g>
<path opacity="0.58" d="M60.6817 69.9791C61.0744 69.9791 61.3927 69.6567 61.3927 69.2591C61.3927 68.8614 61.0744 68.5391 60.6817 68.5391C60.289 68.5391 59.9707 68.8614 59.9707 69.2591C59.9707 69.6567 60.289 69.9791 60.6817 69.9791Z" fill="#BC2876"/>
<path opacity="0.58" d="M42.6885 6.37845C42.8848 6.37845 43.044 6.21727 43.044 6.01845C43.044 5.81962 42.8848 5.65845 42.6885 5.65845C42.4922 5.65845 42.333 5.81962 42.333 6.01845C42.333 6.21727 42.4922 6.37845 42.6885 6.37845Z" fill="#BC2876"/>
<path opacity="0.58" d="M20.7481 71.7089C21.1408 71.7089 21.4591 71.3866 21.4591 70.9889C21.4591 70.5913 21.1408 70.2689 20.7481 70.2689C20.3554 70.2689 20.0371 70.5913 20.0371 70.9889C20.0371 71.3866 20.3554 71.7089 20.7481 71.7089Z" fill="#BC2876"/>
<path opacity="0.58" d="M63.5774 74.7952C63.8828 74.7952 64.1304 74.5445 64.1304 74.2352C64.1304 73.9259 63.8828 73.6752 63.5774 73.6752C63.272 73.6752 63.0244 73.9259 63.0244 74.2352C63.0244 74.5445 63.272 74.7952 63.5774 74.7952Z" fill="#EF929C"/>
<path opacity="0.58" d="M9.17255 6.76564C9.30344 6.76564 9.40955 6.65819 9.40955 6.52564C9.40955 6.3931 9.30344 6.28564 9.17255 6.28564C9.04166 6.28564 8.93555 6.3931 8.93555 6.52564C8.93555 6.65819 9.04166 6.76564 9.17255 6.76564Z" fill="#BC2876"/>
<path opacity="0.58" d="M74.1084 13.3092C74.3222 12.8836 74.1548 12.363 73.7345 12.1465C73.3142 11.93 72.8002 12.0995 72.5863 12.5251C72.3725 12.9507 72.5399 13.4713 72.9602 13.6878C73.3805 13.9043 73.8946 13.7348 74.1084 13.3092Z" fill="#EF929C"/>
<path opacity="0.58" d="M11.8723 4.28932C11.8338 4.47252 11.6558 4.58916 11.4749 4.55012C11.294 4.51092 11.1788 4.33076 11.2174 4.14772C11.2559 3.96452 11.4339 3.84788 11.6148 3.88692C11.7955 3.92596 11.9109 4.10612 11.8723 4.28932Z" fill="#EF929C"/>
<path opacity="0.58" d="M45.7834 3.19338C45.7449 3.37658 45.5668 3.49322 45.3861 3.45418C45.2052 3.41514 45.09 3.23482 45.1285 3.05178C45.1671 2.86858 45.3451 2.75194 45.5259 2.79098C45.7067 2.83002 45.822 3.01018 45.7834 3.19338Z" fill="#EF929C"/>
<path opacity="0.58" d="M69.3052 13.8407C69.2723 13.9964 69.1211 14.0956 68.9674 14.0623C68.8136 14.029 68.7157 13.8759 68.7485 13.7202C68.7814 13.5645 68.9326 13.4653 69.0863 13.4986C69.2399 13.5319 69.338 13.685 69.3052 13.8407Z" fill="#BC2876"/>
<path opacity="0.58" d="M6.49365 63.5059C6.46078 63.6615 6.30958 63.7607 6.15584 63.7275C6.00211 63.6942 5.90415 63.5411 5.93701 63.3854C5.96988 63.2297 6.12108 63.1305 6.27482 63.1638C6.42855 63.1971 6.52651 63.3502 6.49365 63.5059Z" fill="#BC2876"/>
<g opacity="0.66">
<path d="M58.6374 33.3415H57.4041C56.8865 33.3415 56.4652 32.9149 56.4652 32.3906V30.9857C56.4652 30.7223 56.3007 30.4842 56.0558 30.3933C55.9102 30.3393 55.7651 30.2783 55.6247 30.2124C55.3847 30.0997 55.0993 30.149 54.9154 30.3354L53.9344 31.3289C53.7571 31.5085 53.5212 31.6074 53.2705 31.6074C53.0196 31.6074 52.7838 31.5085 52.6064 31.3289L51.7342 30.4458C51.3683 30.0751 51.3683 29.4717 51.7342 29.101L52.7154 28.1076C52.8993 27.9212 52.9482 27.6325 52.8369 27.3892C52.7715 27.2458 52.7113 27.0989 52.6584 26.9524C52.5685 26.7045 52.3334 26.538 52.0733 26.538H50.6861C50.1683 26.538 49.7471 26.1114 49.7471 25.5871V24.3381C49.7471 23.8138 50.1683 23.3873 50.6861 23.3873H52.0733C52.3335 23.3873 52.5686 23.2207 52.6584 22.9729C52.7115 22.8261 52.7717 22.6793 52.8369 22.5362C52.9482 22.2929 52.8995 22.0041 52.7154 21.8178L51.7342 20.8242C51.3683 20.4535 51.3683 19.8503 51.7342 19.4794L52.6064 18.5962C52.9722 18.2255 53.5683 18.2253 53.9344 18.5962L54.9154 19.5898C55.0993 19.7762 55.3843 19.8257 55.6247 19.7129C55.7664 19.6465 55.9114 19.5857 56.056 19.5321C56.3008 19.4412 56.4652 19.2029 56.4652 18.9396V17.5346C56.4652 17.0103 56.8865 16.5837 57.4041 16.5837H58.6374C59.1552 16.5837 59.5764 17.0103 59.5764 17.5346V18.9396C59.5764 19.2029 59.7409 19.441 59.9858 19.5321C60.1302 19.5857 60.2754 19.6465 60.4168 19.7129C60.6571 19.8257 60.9423 19.7762 61.1262 19.5898L62.1073 18.5962C62.4732 18.2255 63.0693 18.2253 63.4352 18.5962L64.3074 19.4794C64.6733 19.8501 64.6733 20.4533 64.3074 20.8242L63.3262 21.8178C63.1422 22.0042 63.0933 22.2929 63.2049 22.5361C63.2701 22.6793 63.3303 22.8261 63.3834 22.9729C63.4732 23.2207 63.7084 23.3873 63.9685 23.3873H65.3557C65.8735 23.3873 66.2947 23.8138 66.2947 24.3381V25.5871C66.2947 26.1114 65.8735 26.538 65.3557 26.538H63.9685C63.7083 26.538 63.4733 26.7045 63.3834 26.9524C63.3305 27.0988 63.2703 27.2457 63.205 27.389C63.0935 27.6324 63.1423 27.9212 63.3264 28.1076L64.3076 29.101C64.6735 29.4717 64.6735 30.0749 64.3076 30.4458L63.4354 31.3289C63.258 31.5085 63.0222 31.6074 62.7713 31.6074C62.5206 31.6074 62.2847 31.5085 62.1074 31.3289L61.1264 30.3354C60.9425 30.149 60.6573 30.0997 60.417 30.2124C60.2765 30.2783 60.1315 30.3391 59.9859 30.3933C59.741 30.4842 59.5766 30.7223 59.5766 30.9857V32.3906C59.5764 32.9149 59.1552 33.3415 58.6374 33.3415ZM55.3569 29.8327C55.4924 29.8327 55.6294 29.862 55.7574 29.9221C55.8901 29.9844 56.0271 30.0418 56.1647 30.0929C56.5333 30.2298 56.7811 30.5887 56.7811 30.9857V32.3906C56.7811 32.7385 57.0606 33.0215 57.4039 33.0215H58.6373C58.9809 33.0215 59.2602 32.7385 59.2602 32.3906V30.9857C59.2602 30.5885 59.508 30.2298 59.8766 30.0929C60.0142 30.0418 60.1512 29.9842 60.2838 29.9221C60.6439 29.7533 61.0723 29.8284 61.3495 30.1092L62.3305 31.1028C62.5735 31.3489 62.969 31.3485 63.2117 31.1028L64.0837 30.2197C64.3265 29.9737 64.3265 29.5733 64.0837 29.3274L63.1025 28.3338C62.825 28.0529 62.7509 27.6191 62.9178 27.2546C62.9796 27.1194 63.0363 26.9805 63.0864 26.8423C63.2215 26.4689 63.576 26.218 63.968 26.218H65.3553C65.6989 26.218 65.9783 25.9349 65.9783 25.5871V24.3381C65.9783 23.9903 65.6987 23.7073 65.3553 23.7073H63.968C63.5759 23.7073 63.2215 23.4564 63.0864 23.0831C63.0361 22.9445 62.9792 22.8058 62.9178 22.6706C62.7508 22.3063 62.825 21.8725 63.1025 21.5916L64.0837 20.598C64.3264 20.3519 64.3264 19.9517 64.0837 19.7057L63.2117 18.8225C62.9688 18.5764 62.5734 18.5767 62.3305 18.8225L61.3495 19.8161C61.0722 20.097 60.6437 20.1721 60.2838 20.0031C60.1501 19.9405 60.0131 19.8829 59.8768 19.8324C59.508 19.6954 59.2602 19.3365 59.2602 18.9394V17.5345C59.2602 17.1866 58.9809 16.9036 58.6373 16.9036H57.4039C57.0604 16.9036 56.7811 17.1866 56.7811 17.5345V18.9394C56.7811 19.3365 56.5333 19.6953 56.1647 19.8324C56.0282 19.8829 55.8912 19.9405 55.7574 20.0031C55.3979 20.1721 54.9693 20.097 54.6918 19.8159L53.7108 18.8223C53.468 18.5762 53.0725 18.5765 52.8296 18.8223L51.9575 19.7055C51.7148 19.9516 51.7148 20.3517 51.9575 20.5978L52.9387 21.5914C53.216 21.8722 53.2902 22.306 53.1234 22.6706C53.0618 22.8057 53.005 22.9444 52.9548 23.0829C52.8197 23.4562 52.4651 23.7071 52.0731 23.7071H50.6859C50.3423 23.7071 50.0629 23.9901 50.0629 24.338V25.5869C50.0629 25.9348 50.3424 26.2178 50.6859 26.2178H52.0731C52.4653 26.2178 52.8197 26.4687 52.9548 26.8421C53.0049 26.9804 53.0618 27.1191 53.1235 27.2546C53.2902 27.6191 53.216 28.0527 52.9387 28.3337L51.9575 29.3273C51.7146 29.5732 51.7146 29.9735 51.9575 30.2196L52.8296 31.1026C53.0723 31.3484 53.4678 31.3485 53.7108 31.1026L54.6918 30.109C54.8704 29.9284 55.1118 29.8327 55.3569 29.8327ZM58.0209 29.3548C55.6294 29.3548 53.6838 27.3845 53.6838 24.9628C53.6838 22.541 55.6296 20.5708 58.0209 20.5708C60.4124 20.5708 62.358 22.541 62.358 24.9628C62.358 27.3845 60.4122 29.3548 58.0209 29.3548ZM58.0209 20.8908C55.8037 20.8908 53.9998 22.7175 53.9998 24.9628C53.9998 27.2081 55.8037 29.0348 58.0209 29.0348C60.2381 29.0348 62.042 27.2081 62.042 24.9628C62.042 22.7175 60.2381 20.8908 58.0209 20.8908Z" fill="white"/>
<g opacity="0.84">
<path d="M56.3407 56.1723H54.802C54.4383 56.1723 54.114 55.942 53.9888 55.5963C53.9308 55.4361 53.8665 55.2792 53.7962 55.1256C53.6422 54.7889 53.707 54.3912 53.9661 54.1289L55.0541 53.027C55.3923 52.6844 55.3923 52.1291 55.0541 51.7865L54.0869 50.8072C53.7487 50.4646 53.2002 50.4646 52.862 50.8072L51.774 51.9091C51.5149 52.1715 51.1222 52.2371 50.7896 52.0811C50.638 52.0099 50.4828 51.9448 50.3248 51.886C49.9834 51.7593 49.756 51.4307 49.756 51.0625V49.5044C49.756 49.02 49.3683 48.6273 48.8898 48.6273H47.522C47.0436 48.6273 46.6559 49.02 46.6559 49.5044V51.0625C46.6559 51.4308 46.4285 51.7593 46.0871 51.886C45.9289 51.9448 45.7739 52.0099 45.6221 52.0811C45.2897 52.2371 44.897 52.1715 44.6379 51.9091L43.5498 50.8072C43.2115 50.4646 42.6631 50.4646 42.3248 50.8072L41.3577 51.7865C41.0194 52.1291 41.0194 52.6844 41.3577 53.027L42.4458 54.1289C42.7049 54.3913 42.7697 54.7889 42.6157 55.1256C42.5454 55.2792 42.4811 55.4363 42.4231 55.5963C42.2978 55.942 41.9734 56.1723 41.6098 56.1723H40.0712C39.5928 56.1723 39.2051 56.5649 39.2051 57.0494V58.4345C39.2051 58.919 39.5928 59.3116 40.0712 59.3116H41.6098C41.9736 59.3116 42.2979 59.5419 42.4231 59.8876C42.4811 60.0478 42.5454 60.2048 42.6157 60.3585C42.7697 60.6952 42.7049 61.0928 42.4458 61.3552L41.3577 62.4569C41.0194 62.7995 41.0194 63.3548 41.3577 63.6974L42.3248 64.6768C42.6631 65.0193 43.2115 65.0193 43.5498 64.6768L44.6379 63.5748C44.897 63.3124 45.2897 63.2468 45.6221 63.4028C45.7738 63.474 45.9289 63.5392 46.0869 63.5979C46.4284 63.7246 46.6557 64.0532 46.6557 64.4214V65.9795C46.6557 66.464 47.0435 66.8566 47.5219 66.8566H48.8897C49.3681 66.8566 49.7558 66.464 49.7558 65.9795V64.4214C49.7558 64.0531 49.9832 63.7246 50.3246 63.5979C50.4828 63.5392 50.6378 63.474 50.7895 63.4028C51.1219 63.2468 51.5145 63.3124 51.7737 63.5748L52.8618 64.6768C53.2001 65.0193 53.7485 65.0193 54.0868 64.6768L55.0539 63.6974C55.3922 63.3548 55.3922 62.7995 55.0539 62.4569L53.9659 61.3552C53.7068 61.0928 53.642 60.6952 53.7961 60.3585C53.8664 60.2049 53.9307 60.0478 53.9887 59.8876C54.114 59.5419 54.4383 59.3116 54.8019 59.3116H56.3405C56.8189 59.3116 57.2067 58.919 57.2067 58.4345V57.0494C57.2068 56.5651 56.8191 56.1723 56.3407 56.1723ZM48.206 62.4353C45.6464 62.4353 43.5714 60.334 43.5714 57.742C43.5714 55.15 45.6464 53.0488 48.206 53.0488C50.7656 53.0488 52.8406 55.15 52.8406 57.742C52.8408 60.334 50.7658 62.4353 48.206 62.4353Z" fill="white"/>
</g>
<path d="M32.277 65.5034H31.241C30.7921 65.5034 30.4268 65.1337 30.4268 64.6791V63.499C30.4268 63.2884 30.2952 63.098 30.0996 63.0252C29.9775 62.9801 29.8548 62.9286 29.7356 62.8726C29.5433 62.7825 29.3153 62.822 29.1682 62.9708L28.344 63.8054C28.1903 63.9612 27.9859 64.047 27.7685 64.047C27.551 64.047 27.3466 63.9612 27.1927 63.8054L26.4602 63.0634C26.3065 62.9078 26.2218 62.7007 26.2218 62.4806C26.2218 62.2604 26.3065 62.0534 26.4602 61.8977L27.2843 61.0631C27.4314 60.914 27.4705 60.6833 27.3814 60.4886C27.3264 60.3682 27.2757 60.2444 27.2305 60.1198C27.1587 59.9215 26.9707 59.7882 26.7628 59.7882H25.5972C25.1483 59.7882 24.7832 59.4183 24.7832 58.9639V57.9148C24.7832 57.4602 25.1485 57.0905 25.5972 57.0905H26.7628C26.9707 57.0905 27.1586 56.9574 27.2303 56.7591C27.2758 56.6338 27.3265 56.5097 27.3812 56.3903C27.4703 56.1956 27.4313 55.9647 27.2842 55.8158L26.4601 54.981C26.3063 54.8254 26.2216 54.6183 26.2216 54.3982C26.2216 54.178 26.3063 53.971 26.4601 53.8151L27.1925 53.0732C27.51 52.7519 28.0265 52.7519 28.3439 53.0732L29.168 53.9079C29.3151 54.0569 29.543 54.0966 29.7354 54.006C29.8533 53.9506 29.9757 53.8994 30.0996 53.8534C30.2954 53.7806 30.4268 53.5902 30.4268 53.3798V52.1994C30.4268 51.7449 30.7919 51.3751 31.241 51.3751H32.277C32.7259 51.3751 33.091 51.745 33.091 52.1994V53.3798C33.091 53.5903 33.2225 53.7806 33.4184 53.8534C33.5422 53.8994 33.6647 53.9506 33.7824 54.006C33.9749 54.0964 34.2027 54.0567 34.3498 53.9079L35.1739 53.0732C35.4913 52.7519 36.0077 52.7519 36.3251 53.0732L37.0578 53.8151C37.2115 53.971 37.2962 54.178 37.2962 54.3982C37.2962 54.6183 37.2115 54.8254 37.0578 54.981L36.2336 55.8158C36.0865 55.9647 36.0475 56.1956 36.1366 56.3905C36.1914 56.5097 36.2422 56.6338 36.2875 56.7593C36.3594 56.9574 36.5473 57.0905 36.7552 57.0905H37.9206C38.3695 57.0905 38.7346 57.4602 38.7346 57.9148V58.9639C38.7346 59.4185 38.3693 59.7882 37.9206 59.7882H36.7552C36.5473 59.7882 36.3594 59.9215 36.2875 60.1198C36.2423 60.2441 36.1916 60.3684 36.1366 60.4886C36.0475 60.6833 36.0865 60.914 36.2336 61.0631L37.0578 61.8977C37.2115 62.0535 37.2962 62.2606 37.2962 62.4806C37.2962 62.7007 37.2115 62.9078 37.0578 63.0634L36.3251 63.8054C36.1714 63.9612 35.9669 64.047 35.7495 64.047C35.5321 64.047 35.3277 63.9612 35.1739 63.8054L34.3498 62.9708C34.2027 62.8218 33.9745 62.7825 33.7824 62.8726C33.6626 62.9289 33.54 62.9801 33.4182 63.0254C33.2226 63.098 33.091 63.2884 33.091 63.499V64.6791C33.091 65.1335 32.7259 65.5034 32.277 65.5034ZM29.5215 62.5047C29.6389 62.5047 29.7574 62.53 29.8684 62.582C29.98 62.6343 30.0944 62.6823 30.2085 62.7246C30.5281 62.8434 30.743 63.1546 30.743 63.4988V64.679C30.743 64.957 30.9665 65.1833 31.2411 65.1833H32.2771C32.5517 65.1833 32.7752 64.957 32.7752 64.679V63.4988C32.7752 63.1546 32.9899 62.8434 33.3095 62.7247C33.4234 62.6825 33.5378 62.6345 33.6497 62.582C33.9619 62.4359 34.3332 62.501 34.5734 62.7444L35.3975 63.579C35.5857 63.7695 35.9137 63.7695 36.1019 63.579L36.8345 62.837C36.9285 62.7417 36.9803 62.6151 36.9803 62.4804C36.9803 62.3457 36.9285 62.219 36.8345 62.1238L36.0104 61.2892C35.7699 61.0458 35.7054 60.6698 35.85 60.3538C35.9013 60.2415 35.9487 60.1257 35.9909 60.0095C36.1083 59.6857 36.4155 59.4681 36.7553 59.4681H37.9207C38.1953 59.4681 38.4188 59.2418 38.4188 58.9638V57.9146C38.4188 57.6366 38.1953 57.4103 37.9207 57.4103H36.7553C36.4155 57.4103 36.1083 57.1929 35.9909 56.8692C35.9486 56.7522 35.9012 56.6364 35.8502 56.5249C35.7056 56.2087 35.7701 55.8329 36.0104 55.5894L36.8345 54.7546C36.9285 54.6593 36.9803 54.5327 36.9803 54.3982C36.9803 54.2636 36.9285 54.1367 36.8345 54.0414L36.1019 53.2994C35.9077 53.1028 35.5917 53.1028 35.3975 53.2994L34.5734 54.1342C34.333 54.3777 33.9617 54.443 33.6495 54.2964C33.5397 54.2449 33.4252 54.1969 33.3095 54.1537C32.9899 54.035 32.7752 53.7239 32.7752 53.3798V52.1994C32.7752 51.9214 32.5517 51.6951 32.2771 51.6951H31.2411C30.9665 51.6951 30.743 51.9214 30.743 52.1994V53.3798C30.743 53.7239 30.5282 54.035 30.2086 54.1537C30.093 54.1969 29.9784 54.2447 29.8684 54.2964C29.5562 54.443 29.1851 54.3778 28.9448 54.1342L28.1206 53.2994C27.9265 53.1028 27.6103 53.1028 27.4161 53.2994L26.6836 54.0414C26.5896 54.1367 26.5378 54.2634 26.5378 54.3982C26.5378 54.5329 26.5896 54.6594 26.6836 54.7546L27.5078 55.5894C27.7481 55.8329 27.8125 56.2087 27.668 56.5247C27.6169 56.6362 27.5695 56.7522 27.527 56.8692C27.41 57.1929 27.1026 57.4103 26.7628 57.4103H25.5972C25.3226 57.4103 25.0992 57.6366 25.0992 57.9146V58.9638C25.0992 59.2418 25.3226 59.4681 25.5972 59.4681H26.7628C27.1026 59.4681 27.4098 59.6855 27.527 60.0094C27.5692 60.1257 27.6166 60.2415 27.668 60.3538C27.8127 60.6698 27.7482 61.0457 27.5078 61.2892L26.6836 62.1238C26.5896 62.2191 26.5378 62.3458 26.5378 62.4804C26.5378 62.615 26.5896 62.7417 26.6836 62.837L27.4161 63.579C27.6043 63.7694 27.9323 63.7697 28.1206 63.579L28.9448 62.7444C29.0996 62.5876 29.3086 62.5047 29.5215 62.5047ZM31.7591 62.1543C29.7362 62.1543 28.0905 60.4878 28.0905 58.4393C28.0905 56.3908 29.7362 54.7242 31.7591 54.7242C33.7819 54.7242 35.4277 56.3908 35.4277 58.4393C35.4275 60.4878 33.7818 62.1543 31.7591 62.1543ZM31.7591 55.0442C29.9105 55.0442 28.4065 56.5671 28.4065 58.4393C28.4065 60.3113 29.9105 61.8343 31.7591 61.8343C33.6077 61.8343 35.1117 60.3113 35.1117 58.4393C35.1115 56.5673 33.6077 55.0442 31.7591 55.0442Z" fill="white"/>
</g>
<g opacity="0.81">
<path d="M65.7958 48.147H63.7361C63.6488 48.147 63.5781 48.0755 63.5781 47.987C63.5781 47.8985 63.6488 47.827 63.7361 47.827H65.7958C65.8832 47.827 65.9538 47.8985 65.9538 47.987C65.9538 48.0755 65.883 48.147 65.7958 48.147Z" fill="white"/>
<path d="M65.7958 51.5845H63.7361C63.6488 51.5845 63.5781 51.513 63.5781 51.4245C63.5781 51.336 63.6488 51.2645 63.7361 51.2645H65.7958C65.8832 51.2645 65.9538 51.336 65.9538 51.4245C65.9538 51.513 65.883 51.5845 65.7958 51.5845Z" fill="white"/>
<path d="M67.252 55.0556H54.7283C54.4921 55.0556 54.2998 54.8608 54.2998 54.6216V44.0186C54.2998 43.7794 54.4921 43.5848 54.7283 43.5848H67.252C67.4882 43.5848 67.6805 43.7794 67.6805 44.0186V54.6216C67.6805 54.8608 67.4884 55.0556 67.252 55.0556ZM54.7285 43.9048C54.6664 43.9048 54.616 43.9559 54.616 44.0186V54.6216C54.616 54.6845 54.6664 54.7356 54.7285 54.7356H67.2522C67.3143 54.7356 67.3647 54.6845 67.3647 54.6216V44.0186C67.3647 43.9559 67.3143 43.9048 67.2522 43.9048H54.7285Z" fill="white"/>
<path opacity="0.66" d="M67.252 55.0556H54.7283C54.4921 55.0556 54.2998 54.8608 54.2998 54.6216V44.0186C54.2998 43.7794 54.4921 43.5848 54.7283 43.5848H67.252C67.4882 43.5848 67.6805 43.7794 67.6805 44.0186V54.6216C67.6805 54.8608 67.4884 55.0556 67.252 55.0556ZM54.7285 43.9048C54.6664 43.9048 54.616 43.9559 54.616 44.0186V54.6216C54.616 54.6845 54.6664 54.7356 54.7285 54.7356H67.2522C67.3143 54.7356 67.3647 54.6845 67.3647 54.6216V44.0186C67.3647 43.9559 67.3143 43.9048 67.2522 43.9048H54.7285Z" fill="white"/>
<path d="M65.7957 46.4784H55.9803C55.8929 46.4784 55.8223 46.4069 55.8223 46.3184C55.8223 46.23 55.8929 46.1584 55.9803 46.1584H65.7957C65.8831 46.1584 65.9537 46.23 65.9537 46.3184C65.9537 46.4069 65.8829 46.4784 65.7957 46.4784Z" fill="white"/>
<path d="M65.7957 49.8156H55.9803C55.8929 49.8156 55.8223 49.7441 55.8223 49.6556C55.8223 49.5671 55.8929 49.4956 55.9803 49.4956H65.7957C65.8831 49.4956 65.9537 49.5671 65.9537 49.6556C65.9537 49.7439 65.8829 49.8156 65.7957 49.8156Z" fill="white"/>
<path d="M61.2722 48.147H55.9803C55.8929 48.147 55.8223 48.0755 55.8223 47.987C55.8223 47.8985 55.8929 47.827 55.9803 47.827H61.2722C61.3595 47.827 61.4302 47.8985 61.4302 47.987C61.4302 48.0755 61.3594 48.147 61.2722 48.147Z" fill="white"/>
<path d="M61.2722 51.5845H55.9803C55.8929 51.5845 55.8223 51.513 55.8223 51.4245C55.8223 51.336 55.8929 51.2645 55.9803 51.2645H61.2722C61.3595 51.2645 61.4302 51.336 61.4302 51.4245C61.4302 51.513 61.3594 51.5845 61.2722 51.5845Z" fill="white"/>
<path d="M59.5492 53.1761H55.9803C55.8929 53.1761 55.8223 53.1046 55.8223 53.0161C55.8223 52.9276 55.8929 52.8561 55.9803 52.8561H59.5492C59.6365 52.8561 59.7072 52.9276 59.7072 53.0161C59.7072 53.1046 59.6365 53.1761 59.5492 53.1761Z" fill="white"/>
</g>
<g opacity="0.81">
<path d="M25.7215 30.6492H23.3846C23.2973 30.6492 23.2266 30.5775 23.2266 30.4892C23.2266 30.4009 23.2973 30.3292 23.3846 30.3292H25.7215C25.8088 30.3292 25.8795 30.4009 25.8795 30.4892C25.8795 30.5775 25.8088 30.6492 25.7215 30.6492Z" fill="white"/>
<path d="M25.7215 34.5499H23.3846C23.2973 34.5499 23.2266 34.4782 23.2266 34.3899C23.2266 34.3015 23.2973 34.2299 23.3846 34.2299H25.7215C25.8088 34.2299 25.8795 34.3015 25.8795 34.3899C25.8795 34.4782 25.8088 34.5499 25.7215 34.5499Z" fill="white"/>
<path d="M27.41 38.4874H13.1285C12.8923 38.4874 12.7002 38.2929 12.7002 38.0537V25.9505C12.7002 25.7113 12.8923 25.5167 13.1285 25.5167H27.41C27.6462 25.5167 27.8383 25.7113 27.8383 25.9505V38.0537C27.8383 38.2929 27.6462 38.4874 27.41 38.4874ZM13.1285 25.8367C13.0666 25.8367 13.0162 25.8878 13.0162 25.9505V38.0537C13.0162 38.1164 13.0666 38.1674 13.1285 38.1674H27.41C27.4719 38.1674 27.5223 38.1164 27.5223 38.0537V25.9505C27.5223 25.8878 27.4719 25.8367 27.41 25.8367H13.1285Z" fill="white"/>
<path opacity="0.66" d="M27.41 38.4874H13.1285C12.8923 38.4874 12.7002 38.2929 12.7002 38.0537V25.9505C12.7002 25.7113 12.8923 25.5167 13.1285 25.5167H27.41C27.6462 25.5167 27.8383 25.7113 27.8383 25.9505V38.0537C27.8383 38.2929 27.6462 38.4874 27.41 38.4874ZM13.1285 25.8367C13.0666 25.8367 13.0162 25.8878 13.0162 25.9505V38.0537C13.0162 38.1164 13.0666 38.1674 13.1285 38.1674H27.41C27.4719 38.1674 27.5223 38.1164 27.5223 38.0537V25.9505C27.5223 25.8878 27.4719 25.8367 27.41 25.8367H13.1285Z" fill="white"/>
<path d="M25.7217 28.7575H14.5857C14.4985 28.7575 14.4277 28.6858 14.4277 28.5975C14.4277 28.5092 14.4985 28.4375 14.5857 28.4375H25.7217C25.8089 28.4375 25.8797 28.5092 25.8797 28.5975C25.8797 28.6858 25.8089 28.7575 25.7217 28.7575Z" fill="white"/>
<path d="M25.7217 32.542H14.5857C14.4985 32.542 14.4277 32.4704 14.4277 32.382C14.4277 32.2937 14.4985 32.222 14.5857 32.222H25.7217C25.8089 32.222 25.8797 32.2937 25.8797 32.382C25.8797 32.4704 25.8089 32.542 25.7217 32.542Z" fill="white"/>
<path d="M20.5896 30.6492H14.5857C14.4985 30.6492 14.4277 30.5775 14.4277 30.4892C14.4277 30.4009 14.4985 30.3292 14.5857 30.3292H20.5896C20.6768 30.3292 20.7476 30.4009 20.7476 30.4892C20.7476 30.5775 20.6768 30.6492 20.5896 30.6492Z" fill="white"/>
<path d="M20.5896 34.5499H14.5857C14.4985 34.5499 14.4277 34.4782 14.4277 34.3899C14.4277 34.3015 14.4985 34.2299 14.5857 34.2299H20.5896C20.6768 34.2299 20.7476 34.3015 20.7476 34.3899C20.7476 34.4782 20.6768 34.5499 20.5896 34.5499Z" fill="white"/>
<path d="M18.6346 36.3556H14.5857C14.4985 36.3556 14.4277 36.284 14.4277 36.1956C14.4277 36.1073 14.4985 36.0356 14.5857 36.0356H18.6348C18.722 36.0356 18.7928 36.1073 18.7928 36.1956C18.7926 36.284 18.722 36.3556 18.6346 36.3556Z" fill="white"/>
</g>
<path d="M66.8647 25.2834H65.6187H60.6127H59.7629C59.4454 25.2834 59.1627 25.5183 59.0584 25.8687L58.8232 26.6591C58.7189 27.0095 58.4362 27.2444 58.1186 27.2444H47.952C47.5401 27.2444 47.2061 27.6346 47.2061 28.1161V39.7726C47.2061 40.254 47.5401 40.6442 47.952 40.6442H48.0024H65.6186H66.8646C67.3044 40.6442 67.6609 40.254 67.6609 39.7726V29.042V27.2446V26.1553C67.6612 25.6737 67.3046 25.2834 66.8647 25.2834Z" fill="#BC2876"/>
<path d="M59.6092 27.3679L59.8604 26.5775C59.9718 26.2271 60.2736 25.9922 60.6127 25.9922H66.8647C67.3046 25.9922 67.6611 26.3824 67.6611 26.8639V27.9531V29.7506V40.4811C67.6611 40.9626 67.3044 41.3528 66.8647 41.3528H48.0024C47.5625 41.3528 47.2061 40.9626 47.2061 40.4811V28.8247C47.2061 28.3432 47.5627 27.953 48.0024 27.953H58.857C59.196 27.9531 59.4978 27.7183 59.6092 27.3679Z" fill="#720361"/>
<path opacity="0.12" d="M60.0718 28.1705L60.3084 27.4256C60.4133 27.0953 60.6979 26.8739 61.0174 26.8739H66.9103C67.3249 26.8739 67.661 27.2417 67.661 27.6955V28.7222V30.4163V40.5305C67.661 40.9843 67.3249 41.3521 66.9103 41.3521H49.1315C48.7169 41.3521 48.3809 40.9843 48.3809 40.5305V29.5437C48.3809 29.0899 48.7169 28.7221 49.1315 28.7221H59.3627C59.6823 28.7221 59.9667 28.5008 60.0718 28.1705Z" fill="white"/>
<path d="M65.5062 40.3693H60.8406C60.7532 40.3693 60.6826 40.2977 60.6826 40.2093C60.6826 40.1209 60.7532 40.0493 60.8406 40.0493H65.5062C65.8072 40.0493 66.0521 39.8013 66.0521 39.4963V35.7481C66.0521 35.6598 66.1227 35.5881 66.2101 35.5881C66.2975 35.5881 66.3681 35.6598 66.3681 35.7481V39.4963C66.3681 39.9776 65.9813 40.3693 65.5062 40.3693Z" fill="white"/>
<path d="M11.1591 38.5402H12.4132H17.4516H18.3067C18.6262 38.5402 18.9108 38.8043 19.0158 39.1986L19.2527 40.0877C19.3576 40.4819 19.6421 40.7461 19.9618 40.7461H30.194C30.6086 40.7461 30.9447 41.1851 30.9447 41.7266V54.8389C30.9447 55.3803 30.6086 55.8194 30.194 55.8194H30.1431H12.413H11.159C10.7162 55.8194 10.3574 55.3803 10.3574 54.8389V42.7682V40.7462V39.5208C10.3576 38.979 10.7164 38.5402 11.1591 38.5402Z" fill="#F28393"/>
<path opacity="0.12" d="M18.4612 40.8846L18.2084 39.9954C18.0964 39.6012 17.7926 39.337 17.4515 39.337H11.159C10.7162 39.337 10.3574 39.7761 10.3574 40.3175V41.5428V43.5649V55.6356C10.3574 56.177 10.7162 56.6161 11.159 56.6161H30.1428C30.5855 56.6161 30.9443 56.177 30.9443 55.6356V42.5234C30.9443 41.982 30.5855 41.543 30.1428 41.543H19.2182C18.8771 41.543 18.5733 41.2788 18.4612 40.8846Z" fill="white"/>
<path opacity="0.12" d="M17.9959 41.7878L17.7577 40.9497C17.652 40.5782 17.3657 40.3292 17.0441 40.3292H11.113C10.6957 40.3292 10.3574 40.743 10.3574 41.2534V42.4084V44.3143V55.6918C10.3574 56.2022 10.6957 56.6159 11.113 56.6159H29.0065C29.4238 56.6159 29.762 56.2022 29.762 55.6918V43.3326C29.762 42.8222 29.4238 42.4084 29.0065 42.4084H18.7093C18.3879 42.4084 18.1015 42.1593 17.9959 41.7878Z" fill="white"/>
<path d="M11.8182 44.1686C11.7401 44.1686 11.6768 44.0971 11.6768 44.0086V41.7876C11.6768 41.4868 11.8929 41.2422 12.1587 41.2422H15.1044C15.1825 41.2422 15.2458 41.3137 15.2458 41.4022C15.2458 41.4907 15.1825 41.5622 15.1044 41.5622H12.1588C12.049 41.5622 11.9596 41.6633 11.9596 41.7876V44.0086C11.9596 44.0971 11.8962 44.1686 11.8182 44.1686Z" fill="white"/>
<path d="M50.0834 54.0964H29.779C26.4072 54.0964 23.6738 51.3284 23.6738 47.914C23.6738 44.4996 26.4072 41.7316 29.779 41.7316H50.0832C53.4549 41.7316 56.1883 44.4996 56.1883 47.914C56.1885 51.3284 53.4551 54.0964 50.0834 54.0964Z" fill="#C5D9FF"/>
<path d="M39.9309 51.3713C44.6729 51.3713 48.5171 47.4785 48.5171 42.6764C48.5171 37.8744 44.6729 33.9816 39.9309 33.9816C35.1889 33.9816 31.3447 37.8744 31.3447 42.6764C31.3447 47.4785 35.1889 51.3713 39.9309 51.3713Z" fill="#FF8A00"/>
<path d="M50.0834 52.275H29.779C26.4072 52.275 23.6738 49.507 23.6738 46.0926C23.6738 42.6782 26.4072 39.9102 29.779 39.9102H50.0832C53.4549 39.9102 56.1883 42.6782 56.1883 46.0926C56.1885 49.507 53.4551 52.275 50.0834 52.275Z" fill="#FF8A00"/>
<path d="M43.3291 48.8399C47.6842 46.9397 49.6935 41.8241 47.8171 37.4139C45.9407 33.0037 40.8891 30.969 36.534 32.8691C32.1789 34.7693 30.1696 39.8849 32.046 44.2951C33.9224 48.7053 38.974 50.7401 43.3291 48.8399Z" fill="#FF8A00"/>
<g opacity="0.35">
<path d="M50.0834 52.275H29.779C26.4072 52.275 23.6738 49.507 23.6738 46.0926C23.6738 42.6782 26.4072 39.9102 29.779 39.9102H50.0832C53.4549 39.9102 56.1883 42.6782 56.1883 46.0926C56.1885 49.507 53.4551 52.275 50.0834 52.275Z" fill="#ECF1F7"/>
<path d="M43.3291 48.8399C47.6842 46.9397 49.6935 41.8241 47.8171 37.4139C45.9407 33.0037 40.8891 30.969 36.534 32.8691C32.1789 34.7693 30.1696 39.8849 32.046 44.2951C33.9224 48.7053 38.974 50.7401 43.3291 48.8399Z" fill="#ECF1F7"/>
</g>
<path d="M37.9234 42.1494C37.8212 42.1494 37.7191 42.1094 37.6417 42.0297C37.4887 41.8722 37.4908 41.619 37.6464 41.4641L39.9505 39.1702L42.2183 41.4665C42.3727 41.6226 42.3727 41.8759 42.2183 42.0321C42.0639 42.1884 41.814 42.1884 41.6598 42.0321L39.946 40.2967L38.2002 42.0345C38.1234 42.1111 38.0234 42.1494 37.9234 42.1494Z" fill="white"/>
<path d="M39.9311 45.3304C39.7129 45.3304 39.5361 45.1514 39.5361 44.9304V39.7331C39.5361 39.5122 39.7129 39.3331 39.9311 39.3331C40.1493 39.3331 40.3261 39.5122 40.3261 39.7331V44.9304C40.3261 45.1514 40.1493 45.3304 39.9311 45.3304Z" fill="white"/>
<path d="M43.665 47.7986H36.1387C35.5992 47.7986 35.1602 47.3542 35.1602 46.8078V44.0388C35.1602 43.8178 35.337 43.6388 35.5552 43.6388C35.7734 43.6388 35.9502 43.8178 35.9502 44.0388V46.8078C35.9502 46.913 36.0347 46.9986 36.1387 46.9986H43.665C43.8013 46.9986 43.9124 46.8862 43.9124 46.7481V44.039C43.9124 43.818 44.0892 43.639 44.3074 43.639C44.5256 43.639 44.7024 43.818 44.7024 44.039V46.7481C44.7026 47.3273 44.2371 47.7986 43.665 47.7986Z" fill="white"/>
</svg>
