<svg width="68" height="98" viewBox="0 0 68 98" fill="none" xmlns="http://www.w3.org/2000/svg">
<mask id="mask0_739_67312" style="mask-type:luminance" maskUnits="userSpaceOnUse" x="0" y="0" width="64" height="63">
<path d="M0.484375 0H63.255V62.7346H0.484375V0Z" fill="white"/>
</mask>
<g mask="url(#mask0_739_67312)">
<path fill-rule="evenodd" clip-rule="evenodd" d="M6.57046 62.7346C5.77133 62.7349 4.97998 62.5778 4.2416 62.2722C3.50321 61.9666 2.83227 61.5185 2.26709 60.9535C1.70192 60.3886 1.25358 59.7178 0.947697 58.9796C0.641813 58.2413 0.484375 57.45 0.484375 56.6509L0.484375 6.08248C0.484533 5.28346 0.642088 4.49229 0.948042 3.75417C1.254 3.01605 1.70236 2.34542 2.26752 1.78059C2.83268 1.21577 3.50357 0.767806 4.24187 0.462288C4.98018 0.156771 5.77143 -0.000315048 6.57046 4.74373e-07H57.1689C57.968 -0.000315072 58.7594 0.156811 59.4977 0.462403C60.2361 0.767996 60.9071 1.21607 61.4722 1.78102C62.0374 2.34597 62.4858 3.01674 62.7916 3.755C63.0975 4.49326 63.255 5.28456 63.255 6.08368V56.6533C63.2548 57.4523 63.0972 58.2435 62.7913 58.9816C62.4853 59.7197 62.037 60.3903 61.4718 60.9552C60.9067 61.52 60.2358 61.968 59.4975 62.2735C58.7592 62.579 57.9679 62.7361 57.1689 62.7358L6.57046 62.7346Z" fill="#EEEEEF"/>
</g>
<path fill-rule="evenodd" clip-rule="evenodd" d="M63.2544 0.00170898C64.4894 0.00170898 65.618 0.476906 66.4768 1.31964C66.8981 1.7328 67.2336 2.22515 67.464 2.76839C67.6945 3.31164 67.8152 3.89506 67.8195 4.48514V62.3428C67.8195 63.5555 67.3368 64.6631 66.4768 65.5071C65.6142 66.3477 64.4588 66.8203 63.2544 66.825H4.56387C3.96669 66.8277 3.37483 66.7127 2.82211 66.4866C2.2694 66.2605 1.76668 65.9276 1.34268 65.5071C0.921513 65.094 0.586089 64.6019 0.355672 64.0589C0.125255 63.5159 0.00438373 62.9327 0 62.3428L0 4.48514C0 3.2724 0.482622 2.16361 1.34268 1.31964C2.20492 0.479297 3.35987 0.00675456 4.56387 0.00170898L63.2544 0.00170898Z" fill="#813588"/>
<path fill-rule="evenodd" clip-rule="evenodd" d="M44.6212 51.8454L30.5534 55.8549C29.3716 56.1704 28.1366 55.5381 27.7604 54.3773L17.1291 17.9852C16.8074 16.8256 17.4509 15.5597 18.6859 15.2429L33.2388 11.0762C36.6209 10.0739 40.2182 11.0762 42.5818 13.6614C44.5148 15.6116 45.4813 18.2487 45.3736 20.9923C45.266 23.6813 43.9777 26.2664 41.9371 28.0064C47.9513 28.3751 52.8369 32.9118 53.4829 38.8183C54.1264 44.6716 50.3669 50.1574 44.6225 51.8454" fill="#4B205A"/>
<path fill-rule="evenodd" clip-rule="evenodd" d="M29.5862 58.7054C27.5988 58.7054 25.8267 57.3863 25.2896 55.4879L14.391 18.1999C13.6931 15.8264 15.089 13.3996 17.4513 12.7141L32.4336 8.44349C33.3457 8.1799 34.3122 8.07471 35.3331 8.07471C37.1944 8.07298 39.0355 8.46163 40.7373 9.21556C42.4391 9.96948 43.9639 11.0719 45.2132 12.4517C46.8776 14.4565 47.8441 16.9351 48.1127 19.519C48.3277 21.8583 47.8417 24.2086 46.7168 26.2708C49.7356 27.4346 52.2972 29.5434 54.0192 32.2825C55.899 35.2896 56.6501 38.8227 56.2219 42.3557C55.8445 45.0992 54.6095 47.6311 52.731 49.6878C50.954 51.8499 48.5834 53.4449 45.9112 54.2764L30.8224 58.5483C30.4184 58.6495 30.0039 58.7026 29.5874 58.7067L29.5862 58.7054ZM35.8145 10.6574C34.9557 10.6574 34.0424 10.7625 33.2368 11.0274L18.6319 15.1928C17.4501 15.5628 16.7522 16.7768 17.0751 17.9363L27.7064 54.3272C27.8673 54.9088 28.2435 55.3828 28.7806 55.6463C29.3176 55.9099 29.9079 56.0151 30.4982 55.8567L44.5685 51.8485C50.3661 50.2138 54.0724 44.676 53.4277 38.8214C52.783 32.9149 47.8961 28.3782 41.8819 28.0095C42.8838 27.1771 43.7054 26.1492 44.2965 24.9885C44.8876 23.8278 45.2357 22.5588 45.3196 21.2589C45.4805 18.4622 44.4596 15.7212 42.5266 13.6645C41.6851 12.7158 40.6514 11.9571 39.4941 11.4386C38.3369 10.9202 37.0826 10.6539 35.8145 10.6574Z" fill="#FEFEFE"/>
<path fill-rule="evenodd" clip-rule="evenodd" d="M48.9706 42.1417C48.9706 35.9715 43.9773 31.0129 37.6945 30.9077C38.6716 30.0726 39.47 29.0489 40.042 27.8979C40.614 26.7469 40.9478 25.4923 41.0234 24.2092C41.1843 21.6253 40.219 19.0934 38.4457 17.1951C36.191 14.6112 32.5924 13.6088 29.2635 14.558L17.0742 18.039L27.7067 54.3248C27.8676 54.9064 28.2438 55.3803 28.7809 55.6439C29.318 55.9075 29.9082 56.0127 30.4985 55.8543L40.4863 53.0068L40.6472 52.9536C45.5885 51.5825 48.9706 47.1523 48.9706 42.1417Z" fill="#813588"/>
<path fill-rule="evenodd" clip-rule="evenodd" d="M59.4481 83.5801C59.0612 83.1293 58.5673 82.6785 58.0084 82.6785C57.321 82.6785 56.5479 83.1074 56.5479 84.2025C56.5479 84.6106 56.7408 85.1259 57.1276 85.5767C58.1805 86.8646 59.9202 87.917 62.3691 87.917C65.2688 87.917 67.6964 86.2848 67.6964 83.3653C67.6964 77.6761 60.1349 78.2345 60.1349 75.7013C60.1349 74.7134 60.801 74.1555 61.9178 74.1555C62.7773 74.1555 63.4646 74.3702 63.9586 74.7779C64.517 75.2073 64.947 76.0445 65.8704 76.0445C66.6436 76.0445 67.3309 75.5292 67.3309 74.7565C67.3309 73.6402 66.2141 72.5883 65.2475 72.0304C64.4312 71.5578 63.357 71.1928 61.897 71.1928C59.4476 71.2355 57.0418 72.5665 57.0418 75.7439C57.0418 80.8748 64.6033 79.9732 64.6033 83.1937C64.6033 84.3527 63.7007 84.9325 62.3478 84.9325C61.1446 84.9325 60.2857 84.3959 59.4476 83.5801H59.4481ZM6.95973 77.6547C5.9495 77.8476 5.30579 78.2558 5.30579 79.2219C5.30579 80.2092 5.92869 80.7463 6.9379 80.8748C8.67814 81.0682 9.27971 81.6693 9.27971 83.0003C9.27971 84.2238 8.26948 84.8893 6.33633 84.8893H3.17873V74.0265H6.59422C7.88366 74.0265 8.52787 74.7992 8.52787 75.9587C8.52787 76.9679 7.9263 77.4831 6.95922 77.6542L6.95973 77.6547ZM24.9657 83.4298C24.9657 84.9111 26.2754 87.7017 29.8849 87.7017C33.4501 87.7017 35.2548 85.5767 35.2548 81.7551V73.2112C35.2548 72.0944 34.6101 71.4294 33.708 71.4294C32.7414 71.4294 32.1617 72.0944 32.1617 73.2112V81.8195C32.1617 83.773 31.4956 84.6964 29.9707 84.7182C27.3715 84.7609 28.4883 82.0124 26.641 81.8627C25.8246 81.7982 24.9657 82.3348 24.9657 83.4298ZM53.6877 77.1181C54.0532 77.1181 54.504 76.9252 54.7619 76.3668C55.1701 75.4865 55.5782 73.8118 55.5782 73.0605C55.5782 72.0299 55.1056 71.3862 53.9883 71.3862C52.8501 71.4289 52.3775 72.1589 52.3775 73.5113V74.7347C52.3775 76.2592 52.8069 77.1181 53.6877 77.1181ZM19.9389 78.1055L16.4813 72.3523C16.1376 71.7944 15.7721 71.4294 15.1066 71.4294C14.2258 71.4294 13.5379 72.0304 13.5379 72.8249C13.5379 73.3189 13.6887 73.6834 13.9466 74.0915L18.3931 81.219V85.9848C18.3931 87.1017 19.1018 87.7667 19.9181 87.7667C20.842 87.7667 21.4862 87.1017 21.4862 85.9848V81.219L25.9328 74.0915C26.1907 73.6834 26.3409 73.3189 26.3409 72.8249C26.3409 72.0304 25.6536 71.4294 24.7723 71.4294C24.1073 71.4294 23.7417 71.7949 23.3981 72.3523L19.9394 78.106L19.9389 78.1055ZM9.64471 79.0929C10.9336 78.2558 11.5992 77.0968 11.5992 75.7439C11.5992 73.0818 9.73101 71.1928 5.95001 71.1928H1.65373C0.729804 71.1928 0.107422 71.7939 0.107422 72.7168V86.2422C0.107422 87.1438 0.730312 87.7662 1.65373 87.7662L5.92818 87.8093C10.826 87.852 12.4373 85.7483 12.4373 83.1719C12.4373 81.3256 11.3844 79.8661 9.64471 79.1574C9.64471 79.1574 9.62491 79.1488 9.62491 79.1279C9.62491 79.1046 9.64471 79.0929 9.64471 79.0929ZM44.3626 87.6804C40.5821 87.6804 38.3911 85.4046 38.3911 80.8748V73.2107C38.3911 72.0944 39.014 71.4289 39.9374 71.4289C40.8395 71.4289 41.4842 72.0944 41.4842 73.2107V80.6387C41.4842 83.6872 42.4721 84.6532 44.3626 84.6532C46.2526 84.6532 47.241 83.6872 47.241 80.6387V73.2107C47.241 72.0944 47.8858 71.4289 48.7879 71.4289C49.7113 71.4289 50.3342 72.0944 50.3342 73.2107V80.8748C50.3342 85.4046 48.1431 87.6804 44.3626 87.6804Z" fill="#813588"/>
<path fill-rule="evenodd" clip-rule="evenodd" d="M39.9383 71.717C40.8404 71.717 41.4851 72.3826 41.4851 73.4989V73.2106C41.4851 72.0942 40.8404 71.4287 39.9383 71.4287C39.0143 71.4287 38.392 72.0942 38.392 73.2106V73.4989C38.392 72.3826 39.0149 71.717 39.9383 71.717ZM41.4851 80.9269C41.4851 83.9753 42.473 84.9414 44.3635 84.9414C46.254 84.9414 47.2419 83.9753 47.2419 80.9269V80.6385C47.2419 83.687 46.254 84.6531 44.3635 84.6531C42.473 84.6531 41.4851 83.687 41.4851 80.6385V80.9269ZM60.1424 75.8275C60.1379 75.8814 60.1356 75.9354 60.1353 75.9894C60.1353 78.4983 67.5521 77.9759 67.6932 83.4931C67.6942 83.4504 67.6968 83.4083 67.6968 83.3651C67.6968 77.7728 60.3916 78.217 60.1429 75.8275M15.1069 71.717C15.7729 71.717 16.1374 72.082 16.4816 72.6405L19.9398 78.3932L23.3984 72.6399C23.7421 72.0815 24.1071 71.7165 24.7731 71.7165C25.6087 71.7165 26.2692 72.2577 26.3347 72.9918C26.3387 72.9369 26.3413 72.8816 26.3413 72.8237C26.3413 72.0292 25.6539 71.4282 24.7726 71.4282C24.1076 71.4282 23.7421 71.7937 23.3984 72.3511L19.9398 78.1048L16.4816 72.3521C16.1379 71.7942 15.7729 71.4292 15.1069 71.4292C14.2261 71.4292 13.5382 72.0303 13.5382 72.8247C13.5382 72.8826 13.5413 72.9379 13.5454 72.9923C13.6114 72.2587 14.2713 71.7175 15.1069 71.7175M58.0087 82.9666C58.5671 82.9666 59.0616 83.4174 59.4479 83.8682C60.2855 84.684 61.145 85.2206 62.3481 85.2206C63.7015 85.2206 64.6036 84.6409 64.6036 83.4819C64.6036 83.4281 64.6011 83.3758 64.597 83.3245C64.53 84.3957 63.6487 84.9323 62.3481 84.9323C61.145 84.9323 60.2855 84.3957 59.4479 83.5799C59.0616 83.1291 58.5676 82.6783 58.0087 82.6783C57.3214 82.6783 56.5482 83.1078 56.5482 84.2023C56.5482 84.2429 56.5517 84.286 56.5553 84.3292C56.6284 83.3545 57.3569 82.9666 58.0087 82.9666ZM61.8968 71.481C63.3574 71.481 64.4315 71.846 65.2479 72.3186C66.1733 72.8527 67.2338 73.84 67.3226 74.9026C67.3284 74.854 67.3313 74.8052 67.3313 74.7564C67.3313 73.6395 66.2144 72.5882 65.2479 72.0303C64.4315 71.5576 63.3573 71.1926 61.8973 71.1926C59.4479 71.2358 57.0421 72.5668 57.0421 75.7437C57.0421 75.7935 57.0442 75.8412 57.0457 75.8899C57.1168 72.8161 59.4855 71.5231 61.8968 71.481ZM24.9665 83.4291C24.9665 83.4839 24.9686 83.5408 24.9721 83.5982C25.0331 82.5849 25.8565 82.0889 26.6423 82.1508C28.4892 82.3011 27.3723 85.049 29.9715 85.0059C31.4965 84.9846 32.1625 84.0616 32.1625 82.1077V81.8193C32.1625 83.7728 31.4965 84.6962 29.9715 84.718C27.3723 84.7607 28.4892 82.0122 26.6418 81.8625C25.8255 81.798 24.9665 82.3346 24.9665 83.4296M48.7887 71.4287C47.8861 71.4287 47.2419 72.0942 47.2419 73.2106V73.4989C47.2419 72.3821 47.8866 71.717 48.7887 71.717C49.7121 71.717 50.335 72.3821 50.335 73.4989V73.2106C50.335 72.0942 49.7121 71.4287 48.7887 71.4287ZM53.9896 71.386C52.851 71.4287 52.3783 72.1587 52.3783 73.5111V73.7994C52.3783 72.447 52.8504 71.717 53.9896 71.6739C55.0516 71.6739 55.5303 72.2577 55.5745 73.2014C55.5773 73.1544 55.5788 73.1074 55.5791 73.0603C55.5791 72.0297 55.1065 71.386 53.9896 71.386ZM33.7089 71.4287C32.7423 71.4287 32.1625 72.0942 32.1625 73.2106V73.4989C32.1625 72.3821 32.7423 71.717 33.7089 71.717C34.611 71.717 35.2557 72.3821 35.2557 73.4989V73.2106C35.2557 72.0942 34.611 71.4287 33.7089 71.4287ZM1.65458 71.481H5.95086C9.65114 71.481 11.5188 73.2913 11.5965 75.8641C11.5975 75.8234 11.6 75.7844 11.6 75.7437C11.6 73.0816 9.73186 71.1926 5.95086 71.1926H1.65458C0.730655 71.1926 0.108269 71.7937 0.108269 72.7166V73.005C0.108269 72.082 0.731162 71.481 1.65458 71.481ZM6.96058 77.6546C5.95086 77.8475 5.30665 78.2556 5.30665 79.2217C5.30665 79.2724 5.30918 79.3217 5.31223 79.3704C5.37315 78.5049 6.00111 78.1267 6.96058 77.9429C7.92715 77.7713 8.52872 77.256 8.52872 76.2473C8.52872 76.1961 8.52568 76.1468 8.52365 76.0976C8.46933 77.0144 7.88146 77.4911 6.96007 77.6546M6.33769 85.1775C8.27083 85.1775 9.28056 84.5124 9.28056 83.2885C9.28056 83.225 9.27751 83.1641 9.27497 83.1037C9.21811 84.2601 8.21449 84.8896 6.33769 84.8896H3.18008V85.1775H6.33769ZM9.64556 79.1572C9.64556 79.1572 9.62576 79.1486 9.62576 79.1278C9.62576 79.1044 9.64556 79.0927 9.64556 79.0927C9.60782 79.0749 9.56464 79.0723 9.52503 79.0855C9.48542 79.0987 9.45245 79.1267 9.43299 79.1637C9.41353 79.2006 9.4091 79.2436 9.42062 79.2838C9.43213 79.3239 9.4587 79.358 9.49479 79.379L9.64556 79.4456C11.3528 80.141 12.3955 81.5604 12.4346 83.3575C12.4361 83.2956 12.4382 83.2342 12.4382 83.1717C12.4382 82.6981 12.3615 82.2346 12.2214 81.794C11.8305 80.606 10.9248 79.6781 9.64556 79.1572ZM0.00013978 91.0378C0.00013978 90.918 0.0437991 90.8155 0.132131 90.7302C0.173741 90.6888 0.2232 90.6562 0.2776 90.6342C0.332001 90.6123 0.390244 90.6014 0.448907 90.6023H4.14208C4.20091 90.602 4.25918 90.6137 4.31331 90.6367C4.36743 90.6598 4.41628 90.6937 4.45683 90.7363C4.50012 90.7779 4.53439 90.8281 4.55753 90.8835C4.58067 90.939 4.59218 90.9986 4.59136 91.0586C4.5922 91.1175 4.58066 91.1759 4.55748 91.2301C4.53431 91.2842 4.50002 91.3328 4.45683 91.3729C4.41547 91.4144 4.36623 91.4472 4.31201 91.4694C4.25779 91.4917 4.19967 91.5029 4.14107 91.5023H2.80645V95.8651C2.80645 96.0047 2.75568 96.124 2.65517 96.223C2.60703 96.2713 2.5496 96.3094 2.48635 96.335C2.4231 96.3606 2.35533 96.3731 2.28712 96.3717C2.22049 96.3731 2.1543 96.3606 2.09277 96.335C2.03125 96.3094 1.97572 96.2712 1.92973 96.223C1.88266 96.1762 1.84554 96.1204 1.82059 96.0589C1.79564 95.9974 1.78337 95.9315 1.78454 95.8651V91.5023H0.450429C0.390728 91.5035 0.331445 91.4922 0.276372 91.4691C0.2213 91.446 0.17165 91.4117 0.130605 91.3683C0.0878192 91.3248 0.0542228 91.2731 0.03181 91.2163C0.0093973 91.1595 -0.00137236 91.0988 0.00013978 91.0378ZM5.34929 95.9194V90.9962C5.34838 90.9373 5.35983 90.8788 5.38292 90.8246C5.406 90.7704 5.4402 90.7216 5.48331 90.6815C5.52843 90.6383 5.58171 90.6046 5.64004 90.5824C5.69836 90.5602 5.76055 90.5498 5.82293 90.552C5.88123 90.5515 5.93901 90.5629 5.99271 90.5856C6.04641 90.6083 6.09488 90.6418 6.13513 90.684C6.17731 90.7242 6.21078 90.7727 6.23348 90.8264C6.25619 90.8801 6.26764 90.9379 6.26713 90.9962V92.7461C6.42348 92.5618 6.6306 92.4039 6.889 92.2729C7.15202 92.1406 7.44287 92.0731 7.73729 92.076C8.17895 92.076 8.51146 92.1892 8.73635 92.4151C8.96124 92.6415 9.07343 92.9664 9.07343 93.3908V95.9194C9.07401 95.9788 9.06241 96.0377 9.03936 96.0924C9.01631 96.1472 8.9823 96.1966 8.93941 96.2377C8.89703 96.2812 8.8462 96.3154 8.79006 96.3385C8.73393 96.3615 8.67367 96.3729 8.61299 96.3717C8.55251 96.3731 8.49242 96.3618 8.4365 96.3388C8.38058 96.3157 8.33004 96.2813 8.28809 96.2377C8.24572 96.1963 8.21218 96.1468 8.18949 96.0921C8.16681 96.0374 8.15545 95.9786 8.15611 95.9194V93.7213C8.15611 93.4202 8.08453 93.2065 7.94035 93.0811C7.79669 92.9552 7.58804 92.8923 7.31391 92.8923C7.10456 92.8924 6.8989 92.9474 6.71741 93.0517C6.54071 93.1473 6.3869 93.2801 6.26662 93.4411V95.9194C6.26729 95.9788 6.25578 96.0377 6.23282 96.0924C6.20986 96.1471 6.17592 96.1966 6.13311 96.2377C6.09064 96.2812 6.03973 96.3155 5.9835 96.3386C5.92728 96.3616 5.86693 96.3729 5.80617 96.3717C5.7457 96.373 5.68561 96.3618 5.6297 96.3387C5.57378 96.3157 5.52325 96.2813 5.48128 96.2377C5.43888 96.1964 5.40532 96.1468 5.38263 96.0921C5.35994 96.0374 5.3486 95.9786 5.34929 95.9194ZM10.9254 93.9142H13.225C13.2193 93.7943 13.194 93.6761 13.1499 93.5644C13.1021 93.4453 13.0349 93.335 12.9509 93.238C12.8529 93.1274 12.7301 93.0416 12.5925 92.9877C12.4289 92.9217 12.2536 92.8893 12.0772 92.8923C11.731 92.8923 11.4589 92.9969 11.2604 93.2055C11.0624 93.4136 10.9507 93.6502 10.9254 93.9142ZM9.97452 94.2447C9.97452 93.8487 10.0628 93.4847 10.2405 93.1542C10.4138 92.8278 10.6738 92.5555 10.9919 92.3674C11.3199 92.1721 11.6955 92.0712 12.0772 92.076C12.5544 92.076 12.9631 92.209 13.3027 92.474C13.6418 92.739 13.8758 93.0979 14.0043 93.5502C14.0738 93.7873 14.1089 93.9716 14.1089 94.1025C14.1093 94.1607 14.0978 94.2184 14.0751 94.272C14.0524 94.3256 14.019 94.374 13.9769 94.4142C13.936 94.4567 13.8868 94.4903 13.8324 94.513C13.778 94.5357 13.7195 94.547 13.6606 94.5462H10.9335C10.9639 94.8488 11.0959 95.1016 11.3294 95.3052C11.563 95.5082 11.865 95.6098 12.2366 95.6098C12.5584 95.612 12.8765 95.5408 13.1666 95.4016C13.226 95.3757 13.2902 95.3624 13.355 95.3625C13.4544 95.3633 13.5497 95.4024 13.621 95.4717C13.6592 95.505 13.6896 95.5462 13.7102 95.5925C13.7309 95.6388 13.7411 95.689 13.7403 95.7397C13.7403 95.8514 13.6829 95.9529 13.5687 96.0453C13.4406 96.1444 13.2949 96.2183 13.1392 96.2631C12.9692 96.3156 12.7956 96.3561 12.6199 96.3844C12.4627 96.4107 12.3036 96.4246 12.1442 96.4261C11.5158 96.4261 10.9969 96.2245 10.5883 95.8209C10.1791 95.4179 9.97401 94.8919 9.97401 94.2447M17.234 95.7062V91.0459C17.2335 90.9809 17.2465 90.9166 17.2721 90.8568C17.2977 90.7971 17.3353 90.7432 17.3827 90.6987C17.4307 90.6507 17.4879 90.613 17.5509 90.5878C17.6139 90.5626 17.6814 90.5504 17.7492 90.552C17.8863 90.552 18.0051 90.6017 18.1056 90.7007C18.1532 90.7448 18.1911 90.7982 18.2171 90.8576C18.243 90.917 18.2564 90.9811 18.2564 91.0459V95.4214H20.3758C20.4962 95.4214 20.6002 95.4641 20.688 95.5493C20.7303 95.5884 20.7639 95.636 20.7867 95.6889C20.8094 95.7418 20.8208 95.7989 20.82 95.8565C20.8216 95.9177 20.8107 95.9786 20.788 96.0355C20.7653 96.0924 20.7313 96.1441 20.688 96.1875C20.6481 96.2301 20.5997 96.2641 20.546 96.2871C20.4922 96.3102 20.4343 96.3219 20.3758 96.3215H17.8543C17.6837 96.3215 17.5375 96.2606 17.4162 96.1392C17.3578 96.0834 17.3116 96.0161 17.2802 95.9416C17.2489 95.8671 17.2331 95.787 17.234 95.7062ZM22.2151 93.9142H24.5147C24.5032 93.6641 24.4065 93.4255 24.2406 93.238C24.1426 93.1274 24.0198 93.0417 23.8822 92.9877C23.7186 92.9217 23.5433 92.8892 23.3669 92.8923C23.0207 92.8923 22.7486 92.9969 22.5496 93.2055C22.3516 93.4136 22.2399 93.6502 22.2146 93.9142M21.2642 94.2447C21.2642 93.8487 21.3526 93.4847 21.5297 93.1542C21.7033 92.8277 21.9637 92.5554 22.2821 92.3674C22.6099 92.1722 22.9854 92.0713 23.3669 92.076C23.8441 92.076 24.2528 92.209 24.5924 92.474C24.9315 92.739 25.1661 93.0979 25.294 93.5502C25.3635 93.7873 25.3986 93.9716 25.3986 94.1025C25.399 94.1607 25.3875 94.2184 25.3648 94.272C25.3421 94.3256 25.3087 94.374 25.2666 94.4142C25.2257 94.4566 25.1766 94.4902 25.1223 94.5129C25.068 94.5356 25.0097 94.5469 24.9508 94.5462H22.2232C22.2536 94.8488 22.3856 95.1016 22.6192 95.3052C22.8527 95.5082 23.1547 95.6098 23.5263 95.6098C23.8481 95.612 24.1662 95.5408 24.4564 95.4016C24.5156 95.3758 24.5796 95.3625 24.6442 95.3625C24.7438 95.3631 24.8393 95.4023 24.9107 95.4717C24.9489 95.505 24.9794 95.5462 25 95.5925C25.0206 95.6388 25.0308 95.689 25.03 95.7397C25.03 95.8514 24.9732 95.9529 24.8584 96.0453C24.7303 96.1444 24.5846 96.2183 24.4289 96.2631C24.2589 96.3156 24.0853 96.3561 23.9096 96.3844C23.7524 96.4107 23.5933 96.4246 23.4339 96.4261C22.8055 96.4261 22.2866 96.2245 21.8775 95.8209C21.4683 95.4179 21.2642 94.8919 21.2642 94.2447ZM26.9824 95.0696C26.9824 95.2849 27.0642 95.4585 27.2292 95.591C27.3931 95.7235 27.5997 95.79 27.8475 95.79C28.0505 95.79 28.2384 95.7544 28.4115 95.6834C28.5841 95.6123 28.7212 95.5077 28.8212 95.3712V94.7518C28.7157 94.6137 28.5738 94.5077 28.4115 94.4457C28.232 94.3747 28.0405 94.3392 27.8475 94.3411C27.5967 94.3411 27.3896 94.4071 27.2266 94.5381C27.0642 94.6691 26.9824 94.8462 26.9824 95.0696ZM26.0397 95.0529C26.0397 94.8244 26.0834 94.6214 26.1702 94.4437C26.2575 94.2665 26.3722 94.1254 26.5154 94.0208C26.6566 93.9174 26.8137 93.8375 26.9804 93.7842C27.1472 93.7312 27.3212 93.7043 27.4962 93.7045C27.7754 93.7045 28.0292 93.7502 28.2592 93.8406C28.4892 93.932 28.6765 94.0634 28.8212 94.2365V93.6274C28.8212 93.401 28.7333 93.2223 28.5582 93.0903C28.3825 92.9583 28.1511 92.8923 27.8642 92.8923C27.4901 92.8923 27.1611 92.9837 26.8769 93.1649C26.8194 93.1998 26.7537 93.2186 26.6865 93.2192C26.5928 93.2191 26.5027 93.1831 26.4347 93.1187C26.3981 93.0863 26.3691 93.0461 26.3498 93.0012C26.3305 92.9563 26.3214 92.9076 26.323 92.8588C26.323 92.7836 26.3463 92.7182 26.3941 92.6623C26.5454 92.4725 26.7773 92.3273 27.0911 92.2267C27.3878 92.129 27.698 92.0781 28.0104 92.076C28.2495 92.076 28.4699 92.1034 28.6704 92.1577C28.8651 92.2095 29.0493 92.2945 29.2151 92.409C29.3776 92.5217 29.5055 92.6781 29.5989 92.8781C29.6923 93.0776 29.7385 93.3111 29.7385 93.5791V95.9194C29.739 95.9789 29.7273 96.0379 29.7039 96.0927C29.6806 96.1475 29.6462 96.1968 29.6029 96.2377C29.5616 96.2805 29.5121 96.3144 29.4573 96.3374C29.4025 96.3605 29.3436 96.3721 29.2841 96.3717H29.2344C29.1481 96.3717 29.0577 96.3367 28.9633 96.2672C28.8684 96.1971 28.8212 96.0925 28.8212 95.9529V95.8778C28.6659 96.0572 28.4696 96.1965 28.249 96.2839C28.0098 96.3802 27.754 96.4285 27.4962 96.4261C27.1398 96.4243 26.7942 96.3043 26.5134 96.0849C26.367 95.9691 26.2495 95.8209 26.1702 95.6519C26.0813 95.4649 26.0367 95.2599 26.0397 95.0529ZM30.899 95.9194V92.574C30.8982 92.5152 30.9097 92.457 30.9328 92.4029C30.9559 92.3489 30.99 92.3003 31.033 92.2603C31.0781 92.2171 31.1314 92.1833 31.1897 92.161C31.248 92.1387 31.3102 92.1282 31.3726 92.1303C31.4924 92.1303 31.5965 92.176 31.6848 92.2674C31.7272 92.3095 31.7608 92.3596 31.7834 92.4149C31.8061 92.4702 31.8175 92.5295 31.8168 92.5892V92.81C32.1402 92.3572 32.4702 92.1303 32.8052 92.1303C32.925 92.1303 33.0225 92.1689 33.0966 92.245C33.1335 92.284 33.1623 92.3299 33.1813 92.3801C33.2003 92.4303 33.2091 92.4838 33.2073 92.5374C33.2073 92.676 33.1662 92.7882 33.0839 92.875C33.0012 92.9613 32.8946 93.0136 32.7631 93.0309C32.3417 93.0695 32.026 93.237 31.8163 93.5329V95.9235C31.8163 96.0453 31.7716 96.1504 31.6828 96.2387C31.6415 96.2814 31.5919 96.3152 31.5371 96.3381C31.4823 96.3609 31.4234 96.3724 31.364 96.3717H31.3472C31.2881 96.3725 31.2295 96.3609 31.1751 96.3379C31.1206 96.3148 31.0716 96.2807 31.031 96.2377C30.9886 96.1963 30.9551 96.1468 30.9324 96.0921C30.9097 96.0374 30.8983 95.9786 30.899 95.9194ZM33.882 95.9194V92.574C33.8812 92.5152 33.8927 92.457 33.9158 92.4029C33.9389 92.3489 33.973 92.3003 34.016 92.2603C34.061 92.2171 34.1142 92.1834 34.1724 92.1611C34.2307 92.1388 34.2928 92.1283 34.3551 92.1303C34.4134 92.1298 34.4712 92.1412 34.5249 92.1639C34.5786 92.1866 34.6271 92.2201 34.6673 92.2623C34.7551 92.3506 34.7993 92.4542 34.7993 92.5745V92.7461C34.9557 92.5588 35.1618 92.4009 35.4171 92.2709C35.679 92.1396 35.9684 92.0728 36.2613 92.076C36.7025 92.076 37.0355 92.1912 37.2604 92.4212C37.4848 92.6517 37.5975 92.9806 37.5975 93.4076V95.9194C37.598 95.979 37.5862 96.038 37.5628 96.0928C37.5394 96.1476 37.5049 96.1969 37.4614 96.2377C37.4185 96.2811 37.3672 96.3154 37.3107 96.3384C37.2541 96.3615 37.1935 96.3728 37.1325 96.3717C37.0729 96.3728 37.0137 96.3616 36.9586 96.3389C36.9036 96.3162 36.8537 96.2824 36.8121 96.2398C36.7695 96.1982 36.7358 96.1485 36.7131 96.0935C36.6904 96.0385 36.6792 95.9794 36.6801 95.9199V93.7421C36.6801 93.438 36.6081 93.2207 36.4644 93.0893C36.3207 92.9583 36.1141 92.8923 35.8466 92.8923C35.6344 92.8916 35.4258 92.9466 35.2415 93.0517C35.0661 93.1457 34.9148 93.279 34.7993 93.4411V95.9194C34.7999 95.9788 34.7883 96.0377 34.7652 96.0924C34.7422 96.1472 34.7082 96.1966 34.6653 96.2377C34.6228 96.2812 34.5719 96.3155 34.5157 96.3386C34.4594 96.3616 34.3991 96.3729 34.3383 96.3717C34.2779 96.3731 34.2178 96.3618 34.1618 96.3388C34.1059 96.3157 34.0554 96.2813 34.0134 96.2377C33.9711 96.1963 33.9375 96.1468 33.9148 96.0921C33.8922 96.0374 33.8808 95.9786 33.8815 95.9194M38.7539 95.9194V92.574C38.7532 92.5152 38.7647 92.457 38.7878 92.4029C38.8108 92.3489 38.845 92.3003 38.8879 92.2603C38.933 92.2171 38.9862 92.1834 39.0444 92.1611C39.1026 92.1388 39.1647 92.1283 39.227 92.1303C39.2853 92.1298 39.3431 92.1412 39.3968 92.1639C39.4505 92.1866 39.499 92.2201 39.5393 92.2623C39.5814 92.3025 39.6149 92.351 39.6376 92.4047C39.6603 92.4584 39.6718 92.5162 39.6712 92.5745V95.9199C39.6712 96.0423 39.6266 96.1484 39.5372 96.2377C39.4948 96.2812 39.4439 96.3155 39.3876 96.3386C39.3314 96.3616 39.2711 96.3729 39.2103 96.3717C39.1498 96.3731 39.0897 96.3618 39.0338 96.3388C38.9779 96.3157 38.9273 96.2813 38.8854 96.2377C38.843 96.1963 38.8095 96.1468 38.7868 96.0921C38.7641 96.0374 38.7528 95.9786 38.7534 95.9194M38.6448 91.1089C38.6448 90.9556 38.7001 90.8246 38.8103 90.7155C38.8624 90.6625 38.9247 90.6208 38.9935 90.5927C39.0623 90.5646 39.136 90.5507 39.2103 90.552C39.3672 90.552 39.5002 90.6063 39.6103 90.7155C39.721 90.8241 39.7763 90.9556 39.7763 91.1089C39.7763 91.2678 39.7205 91.4023 39.6103 91.511C39.5582 91.5639 39.4959 91.6057 39.4271 91.6338C39.3583 91.6619 39.2846 91.6757 39.2103 91.6744C39.136 91.6757 39.0623 91.6619 38.9935 91.6338C38.9247 91.6057 38.8624 91.5639 38.8103 91.511C38.7565 91.459 38.714 91.3964 38.6855 91.3272C38.657 91.258 38.6431 91.1837 38.6448 91.1089ZM40.8277 95.9194V92.574C40.8277 92.4516 40.8718 92.3471 40.9617 92.2603C41.0067 92.2171 41.0599 92.1834 41.1182 92.1611C41.1764 92.1388 41.2385 92.1283 41.3008 92.1303C41.3591 92.1298 41.4169 92.1412 41.4706 92.1639C41.5243 92.1866 41.5728 92.2201 41.613 92.2623C41.7008 92.3506 41.745 92.4542 41.745 92.5745V92.7461C41.9014 92.5588 42.107 92.4009 42.3628 92.2709C42.6247 92.1396 42.9141 92.0727 43.2071 92.076C43.6482 92.076 43.9812 92.1912 44.2061 92.4212C44.4305 92.6517 44.5432 92.9806 44.5432 93.4076V95.9194C44.5437 95.979 44.5319 96.038 44.5085 96.0928C44.4851 96.1476 44.4506 96.1969 44.4072 96.2377C44.3642 96.2811 44.3129 96.3154 44.2564 96.3384C44.1998 96.3615 44.1392 96.3728 44.0782 96.3717C44.0186 96.3728 43.9595 96.3616 43.9044 96.3389C43.8493 96.3162 43.7994 96.2824 43.7579 96.2398C43.7152 96.1982 43.6815 96.1485 43.6588 96.0935C43.6361 96.0385 43.6249 95.9794 43.6259 95.9199V93.7421C43.6259 93.438 43.5538 93.2207 43.4101 93.0893C43.2659 92.9583 43.0598 92.8923 42.7923 92.8923C42.5771 92.8923 42.3755 92.9456 42.1867 93.0517C42.0116 93.146 41.8605 93.2792 41.745 93.4411V95.9194C41.7455 95.9788 41.7339 96.0377 41.7108 96.0924C41.6878 96.1471 41.6538 96.1966 41.611 96.2377C41.5685 96.2812 41.5176 96.3155 41.4614 96.3386C41.4052 96.3616 41.3448 96.3729 41.2841 96.3717C41.2236 96.3731 41.1635 96.3618 41.1076 96.3388C41.0516 96.3157 41.0011 96.2813 40.9592 96.2377C40.9168 96.1963 40.8832 96.1468 40.8606 96.0921C40.8379 96.0374 40.8265 95.9786 40.8272 95.9194M46.7028 93.2517C46.4921 93.4903 46.3865 93.8066 46.3865 94.199C46.3865 94.5909 46.4921 94.9072 46.7028 95.1463C46.9134 95.3854 47.1952 95.5052 47.547 95.5052C47.7536 95.5052 47.9551 95.4524 48.1521 95.3463C48.3491 95.2407 48.4978 95.1087 48.5988 94.9503V93.439C48.4978 93.2837 48.3491 93.1532 48.1521 93.0491C47.9665 92.9476 47.7586 92.8937 47.547 92.8923C47.1952 92.8923 46.9134 93.0121 46.7028 93.2517ZM45.4438 94.199C45.4438 93.539 45.6133 93.0197 45.953 92.642C46.2921 92.2648 46.7347 92.076 47.2789 92.076C47.5358 92.076 47.778 92.1339 48.0059 92.2501C48.2333 92.3658 48.4308 92.5313 48.5983 92.7461V92.5826C48.5983 92.4572 48.643 92.3506 48.7319 92.2628C48.7763 92.2191 48.8291 92.1849 48.8871 92.1622C48.9451 92.1395 49.0072 92.1288 49.0694 92.1308C49.1892 92.1308 49.2933 92.175 49.3827 92.2643C49.4253 92.3056 49.4591 92.355 49.4819 92.4098C49.5048 92.4645 49.5163 92.5233 49.5157 92.5826V96.0996C49.5157 96.3895 49.474 96.6474 49.3903 96.8718C49.3065 97.0967 49.1969 97.2789 49.0613 97.4185C48.9258 97.5581 48.7623 97.6723 48.5714 97.7617C48.3882 97.8484 48.1945 97.911 47.9952 97.948C47.792 97.9839 47.5859 98.0014 47.3795 98.0003C47.0697 98.0016 46.7612 97.9613 46.4621 97.8805C46.1687 97.8008 45.9453 97.6723 45.792 97.4962C45.7414 97.4282 45.7135 97.3459 45.7123 97.2612C45.7123 97.1515 45.7514 97.0601 45.8291 96.986C45.8664 96.9497 45.9104 96.9212 45.9588 96.902C46.0072 96.8829 46.0588 96.8734 46.1108 96.8743C46.186 96.8743 46.2545 96.8911 46.3159 96.9236C46.6043 97.0972 46.9596 97.184 47.382 97.184C47.5384 97.184 47.6846 97.1657 47.8201 97.1292C47.9571 97.0922 48.0874 97.0336 48.2059 96.9555C48.3278 96.8758 48.4237 96.7631 48.4933 96.618C48.5633 96.4723 48.5983 96.2997 48.5983 96.1001V95.6356C48.4407 95.844 48.2398 96.0158 48.0095 96.1392C47.7849 96.2602 47.5335 96.3229 47.2784 96.3215C46.7342 96.3215 46.2921 96.1342 45.9535 95.7595C45.6133 95.3849 45.4438 94.8645 45.4438 94.199ZM54.1698 94.3325H56.2055L55.1923 91.6323L54.1698 94.333V94.3325ZM52.5321 95.8194C52.5304 95.7537 52.5462 95.6887 52.5778 95.6311L54.3627 91.0916C54.4238 90.9311 54.5335 90.7938 54.6765 90.6987C54.8187 90.6021 54.9868 90.5509 55.1587 90.552H55.2004C55.3679 90.552 55.5258 90.5967 55.674 90.686C55.8288 90.7813 55.9491 90.9236 56.0172 91.0921L57.8102 95.6306C57.8326 95.7093 57.8437 95.7717 57.8437 95.8194C57.8437 95.96 57.7919 96.0869 57.6889 96.2007C57.6397 96.2562 57.5789 96.3003 57.5109 96.3298C57.4428 96.3594 57.3691 96.3737 57.295 96.3717C57.1863 96.3717 57.0863 96.3408 56.9954 96.2788C56.9062 96.219 56.8368 96.1338 56.7964 96.0342L56.4949 95.2331H53.8896L53.5794 96.0342C53.5434 96.1351 53.4749 96.2212 53.3845 96.2788C53.2949 96.3395 53.1891 96.3719 53.0809 96.3717C53.0073 96.3739 52.9341 96.3603 52.8662 96.332C52.7983 96.3036 52.7372 96.2611 52.687 96.2073C52.5861 96.1036 52.5304 95.9641 52.5321 95.8194ZM59.5824 95.0615C59.683 95.2118 59.8322 95.3407 60.0307 95.4483C60.2287 95.5559 60.4287 95.6098 60.6297 95.6098C60.9785 95.6098 61.2592 95.4828 61.4714 95.229C61.6836 94.9752 61.7902 94.6467 61.7902 94.2447C61.7902 93.8487 61.6836 93.5238 61.4714 93.2715C61.2597 93.0187 60.979 92.8923 60.6297 92.8923C60.4287 92.8923 60.2287 92.9456 60.0307 93.0517C59.8322 93.1578 59.683 93.2872 59.5824 93.4411V95.0615ZM58.6651 97.5063V92.5745C58.6651 92.4516 58.7098 92.3471 58.7991 92.2603C58.8442 92.2171 58.8974 92.1834 58.9556 92.1611C59.0138 92.1388 59.0759 92.1283 59.1382 92.1303C59.1965 92.1298 59.2543 92.1412 59.308 92.1639C59.3617 92.1866 59.4102 92.2201 59.4505 92.2623C59.5383 92.3506 59.5824 92.4542 59.5824 92.5745V92.7374C59.7366 92.5331 59.9359 92.367 60.1647 92.2521C60.3942 92.1353 60.6483 92.0749 60.9059 92.076C61.4511 92.076 61.8918 92.2704 62.2278 92.6583C62.5644 93.0461 62.7324 93.5751 62.7324 94.2447C62.7324 94.9173 62.5639 95.4493 62.2258 95.8397C61.8882 96.2306 61.4481 96.4261 60.9059 96.4261C60.6521 96.4275 60.4015 96.3687 60.1749 96.2545C59.9421 96.1355 59.7395 95.965 59.5824 95.756V97.5063C59.5827 97.565 59.5708 97.623 59.5474 97.6768C59.5239 97.7306 59.4895 97.7788 59.4464 97.8186C59.4038 97.8611 59.3531 97.8947 59.2973 97.9174C59.2415 97.9401 59.1817 97.9513 59.1215 97.9505C59.0616 97.9514 59.0022 97.9402 58.9468 97.9175C58.8914 97.8948 58.8412 97.8612 58.7991 97.8186C58.7564 97.7786 58.7225 97.7302 58.6994 97.6765C58.6764 97.6227 58.6647 97.5648 58.6651 97.5063ZM64.5463 95.0615C64.6468 95.2118 64.7966 95.3407 64.995 95.4483C65.193 95.5559 65.3925 95.6098 65.5941 95.6098C65.9428 95.6098 66.2236 95.4828 66.4358 95.229C66.648 94.9752 66.7541 94.6467 66.7541 94.2447C66.7541 93.8487 66.648 93.5238 66.4358 93.2715C66.2236 93.0187 65.9428 92.8923 65.5941 92.8923C65.3925 92.8923 65.193 92.9456 64.995 93.0517C64.7966 93.1578 64.6468 93.2872 64.5463 93.4411V95.0615ZM63.629 97.5063V92.5745C63.629 92.4516 63.6736 92.3471 63.763 92.2603C63.8081 92.2171 63.8613 92.1833 63.9197 92.161C63.978 92.1387 64.0402 92.1282 64.1026 92.1303C64.1608 92.1299 64.2185 92.1413 64.2721 92.164C64.3257 92.1867 64.3741 92.2202 64.4143 92.2623C64.4565 92.3025 64.4899 92.351 64.5126 92.4047C64.5353 92.4584 64.5468 92.5162 64.5463 92.5745V92.7374C64.701 92.5325 64.901 92.3662 65.1307 92.2514C65.3604 92.1367 65.6135 92.0766 65.8702 92.076C66.4149 92.076 66.8556 92.2704 67.1922 92.6583C67.5287 93.0461 67.6968 93.5751 67.6968 94.2447C67.6968 94.9173 67.5277 95.4493 67.1901 95.8397C66.8526 96.2306 66.4124 96.4261 65.8702 96.4261C65.6164 96.4277 65.3658 96.3688 65.1392 96.2545C64.9062 96.1356 64.7034 95.9651 64.5463 95.756V97.5063C64.5466 97.565 64.5346 97.623 64.5112 97.6768C64.4878 97.7306 64.4534 97.7788 64.4102 97.8186C64.3676 97.8611 64.3169 97.8947 64.2611 97.9174C64.2053 97.9401 64.1456 97.9513 64.0853 97.9505C64.0255 97.9514 63.9661 97.9402 63.9107 97.9175C63.8553 97.8948 63.805 97.8612 63.763 97.8186C63.7203 97.7786 63.6863 97.7302 63.6633 97.6765C63.6402 97.6227 63.6285 97.5648 63.629 97.5063Z" fill="#813588"/>
</svg>
