<svg width="281" height="182" viewBox="0 0 281 182" fill="none" xmlns="http://www.w3.org/2000/svg">
<g clip-path="url(#clip0_1539_110450)">
<rect width="281" height="181.33" rx="8" fill="url(#paint0_linear_1539_110450)"/>
<path d="M142.023 25.0603C108.743 24.0497 79.9163 48.8824 75.561 81.4661C70.7992 117.092 97.0078 149.146 129.256 154.281C169.368 160.666 208.275 123.723 204.781 83.6457C202.149 53.4507 175.852 26.0876 142.023 25.0603Z" fill="#F4F7FA"/>
<path d="M153.562 138.242C156.411 135.403 160.144 130.819 161.704 124.449C163.75 116.095 160.26 112.01 160.217 97.9728C160.19 89.097 160.26 82.9025 164.632 79.4587C168.057 76.76 173.714 76.0735 177.229 78.3735C180.151 80.2858 181.935 84.4867 182.532 87.5057C183.018 89.9661 182.742 91.7715 184.206 93.0312C185.703 94.3186 187.253 93.5176 188.645 94.4625C191.468 96.3789 190.068 103.051 189.841 104.129C187.324 116.124 176.594 124.486 171.869 128.077C167.963 131.046 161.902 135.028 153.562 138.242Z" fill="url(#paint1_linear_1539_110450)"/>
<mask id="mask0_1539_110450" style="mask-type:luminance" maskUnits="userSpaceOnUse" x="153" y="76" width="38" height="63">
<path d="M153.562 138.242C156.411 135.403 160.144 130.819 161.704 124.449C163.75 116.095 160.26 112.01 160.217 97.9728C160.19 89.097 160.26 82.9025 164.632 79.4587C168.057 76.76 173.714 76.0735 177.229 78.3735C180.151 80.2858 181.935 84.4867 182.532 87.5057C183.018 89.9661 182.742 91.7715 184.206 93.0312C185.703 94.3186 187.253 93.5176 188.645 94.4625C191.468 96.3789 190.068 103.051 189.841 104.129C187.324 116.124 176.594 124.486 171.869 128.077C167.963 131.046 161.902 135.028 153.562 138.242Z" fill="white"/>
</mask>
<g mask="url(#mask0_1539_110450)">
<g opacity="0.5">
<path d="M150.296 140.581L150.172 140.28C155.201 138.194 159.508 135.758 162.973 133.039C168.08 129.033 171.198 124.521 172.241 119.628C173.058 115.795 172.608 111.859 171.986 106.411C171.49 102.062 170.745 99.024 170.088 96.3435C169.229 92.8355 168.55 90.0647 168.842 86.0039C169.139 81.8834 170.37 77.7597 172.502 73.747L172.788 73.8995C170.679 77.8719 169.46 81.9522 169.166 86.0272C168.878 90.0371 169.551 92.7859 170.404 96.2661C171.063 98.9561 171.81 102.005 172.309 106.375C172.911 111.647 173.387 115.811 172.559 119.696C171.5 124.665 168.342 129.24 163.174 133.295C159.685 136.032 155.352 138.483 150.296 140.581Z" fill="white"/>
<path d="M171.81 103.387L171.639 103.319C171.61 103.307 168.66 102.105 165.663 99.2008C162.896 96.5203 159.517 91.7982 159.125 84.5241L159.45 84.5066C159.835 91.6692 163.159 96.3187 165.879 98.9578C168.424 101.427 170.93 102.647 171.591 102.944C173.743 94.9939 177.827 89.9235 180.886 87.0636C184.229 83.9375 187.112 82.6999 187.141 82.6877L187.267 82.9871C187.239 82.9991 184.399 84.2202 181.096 87.3115C178.049 90.1634 173.973 95.2364 171.857 103.21L171.81 103.387Z" fill="white"/>
<path d="M172.777 115.176L172.708 115.08C172.678 115.039 169.683 110.947 165.879 107.433C162.101 103.943 153.462 102.95 153.375 102.94L153.411 102.617C153.433 102.62 155.637 102.868 158.284 103.551C160.735 104.184 164.08 105.329 166.1 107.194C169.603 110.43 172.423 114.152 172.899 114.793C181.828 111.724 190.814 90.3386 190.905 90.122L191.204 90.2469C191.182 90.3014 188.892 95.7777 185.514 101.547C180.967 109.316 176.719 113.889 172.889 115.139L172.777 115.176Z" fill="white"/>
<path d="M164.457 132.2L164.61 131.915C166.792 127.845 166.329 123.653 163.234 119.456C160.915 116.313 157.913 114.353 157.883 114.333L158.059 114.061C158.09 114.08 161.142 116.073 163.495 119.264C166.553 123.41 167.087 127.73 165.048 131.777C166.141 131.583 169.933 130.834 174.636 129.033C179.773 127.065 187.08 123.405 192.718 117.139L203.678 104.958L203.919 105.175L192.96 117.356C187.277 123.672 179.917 127.359 174.744 129.339C169.141 131.484 164.82 132.146 164.777 132.152L164.457 132.2Z" fill="white"/>
</g>
</g>
<path d="M154.547 137.53C160.331 140.15 168.073 142.663 176.582 142.61C178.754 142.597 192.168 142.514 193.112 136.841C193.445 134.843 191.949 133.838 192.347 131.159C192.818 127.984 195.22 127.362 198.017 124.387C199.685 122.612 204.568 117.418 202.399 112.374C201.102 109.36 197.346 106.536 193.831 105.863C188.674 104.875 185.045 108.708 179.017 115.299C173.673 121.142 173.512 123.088 169.59 127.228C166.68 130.301 162.021 134.241 154.547 137.53Z" fill="url(#paint2_linear_1539_110450)"/>
<mask id="mask1_1539_110450" style="mask-type:luminance" maskUnits="userSpaceOnUse" x="154" y="105" width="49" height="38">
<path d="M154.547 137.53C160.331 140.15 168.073 142.663 176.582 142.61C178.754 142.597 192.168 142.514 193.112 136.841C193.445 134.843 191.949 133.838 192.347 131.159C192.818 127.984 195.22 127.362 198.017 124.387C199.685 122.612 204.568 117.418 202.399 112.374C201.102 109.36 197.346 106.536 193.831 105.863C188.674 104.875 185.045 108.708 179.017 115.299C173.673 121.142 173.512 123.088 169.59 127.228C166.68 130.301 162.021 134.241 154.547 137.53Z" fill="white"/>
</mask>
<g mask="url(#mask1_1539_110450)">
<g opacity="0.5">
<path d="M153.612 137.497C151.466 137.497 149.328 137.302 147.202 136.911C140.689 135.713 134.528 132.8 128.891 128.252L129.095 128C134.69 132.513 140.802 135.404 147.261 136.592C155.865 138.174 164.676 136.517 173.449 131.669C182.589 126.617 189.398 119.367 193.5 114.175C196.338 110.584 198.135 106.008 198.84 100.574L199.162 100.616C198.449 106.109 196.63 110.738 193.755 114.377C189.634 119.592 182.793 126.875 173.606 131.953C166.931 135.642 160.23 137.497 153.612 137.497Z" fill="white"/>
<path d="M184.369 124.159L184.331 124.018C184.302 123.909 181.467 112.967 187.781 105.102L188.035 105.305C182.211 112.56 184.303 122.491 184.61 123.792C200.43 121.259 204.369 112.079 205.201 109.319C205.224 109.242 205.239 109.195 205.247 109.178L205.542 109.313L205.395 109.246L205.544 109.31C205.538 109.326 205.528 109.361 205.512 109.413C204.664 112.228 200.644 121.608 184.514 124.137L184.369 124.159Z" fill="white"/>
<path d="M188.14 136.613C184.57 136.613 179.56 135.643 173.592 131.863L173.519 131.817L173.516 131.73C173.514 131.644 173.366 123.043 178.403 113.682L183.477 104.25L183.764 104.404L178.689 113.836C173.962 122.621 173.838 130.716 173.841 131.636C177.727 134.084 183.661 136.84 190.005 136.195C193.811 135.807 195.977 134.359 195.998 134.345L196.181 134.614C196.091 134.675 193.925 136.122 190.038 136.518C189.461 136.577 188.827 136.613 188.14 136.613Z" fill="white"/>
</g>
</g>
<path d="M204.707 143.094L84.6953 142.057V145.126C84.6953 145.96 85.2188 146.668 85.9277 146.794L119.863 152.838C120.266 152.91 120.675 152.929 121.081 152.895L203.403 146.004C204.138 145.942 204.707 145.232 204.707 144.376L204.707 143.094Z" fill="#BFC8D6"/>
<path d="M160.541 138.176L84.2638 143.791C82.8988 143.891 81.7891 142.823 81.7891 141.406V84.6043C81.7891 83.1866 82.8988 82.0372 84.2638 82.0372H160.541C161.665 82.0372 162.575 83.0762 162.575 84.3579V135.705C162.575 136.987 161.665 138.093 160.541 138.176Z" fill="#BFC8D6"/>
<path d="M161.76 138.176L85.4825 143.791C84.1175 143.891 83.0078 142.823 83.0078 141.406V84.6043C83.0078 83.1865 84.1176 82.0372 85.4825 82.0372H161.76C162.884 82.0372 163.793 83.0762 163.793 84.3578V135.705C163.793 136.987 162.884 138.093 161.76 138.176Z" fill="white"/>
<path d="M159.386 134.555L88.3415 139.433C87.2308 139.509 86.3281 138.633 86.3281 137.475V87.7457C86.3281 86.5883 87.2308 85.6461 88.3415 85.6413L159.386 85.335C160.313 85.331 161.064 86.1824 161.064 87.2366V132.531C161.064 133.586 160.313 134.492 159.386 134.555Z" fill="#D8DEE8"/>
<path d="M126.311 83.5908C126.311 84.1186 125.919 84.5476 125.434 84.5492C124.949 84.5507 124.555 84.1231 124.555 83.5942C124.555 83.0652 124.949 82.6361 125.434 82.6357C125.919 82.6354 126.311 83.063 126.311 83.5908Z" fill="white"/>
<path opacity="0.48" d="M85.4823 143.791L161.373 138.204L161.76 138.176C162.276 138.138 162.745 137.883 163.103 137.496C157.642 137.197 154.25 135.259 152.062 133.256C147.668 129.235 148.43 125.269 143.691 122.625C137.781 119.327 133.133 123.506 128.648 119.383C125.929 116.883 127.264 115.019 123.918 111.283C120.213 107.146 117.8 108.536 114.076 104.813C109.367 100.104 111.722 96.4412 107.666 93.0607C102.745 88.9597 97.4383 92.7554 92.7542 88.8224C90.7339 87.1261 89.6253 84.6599 89.0464 82.0372H85.4826C84.1176 82.0372 83.0078 83.1865 83.0078 84.6043V141.406C83.0079 142.823 84.1174 143.891 85.4823 143.791Z" fill="white"/>
<path d="M165.353 137.864L84.6953 143.775L119.863 150.038C120.266 150.11 120.675 150.129 121.081 150.095L204.707 143.094L166.636 137.904C166.21 137.846 165.78 137.833 165.353 137.864Z" fill="url(#paint3_linear_1539_110450)"/>
<path d="M96.4688 143.825L163.618 138.831L184.401 141.642L117.829 146.98L96.4688 143.825Z" fill="#D8DEE8"/>
<path d="M118.763 124.6C116.229 124.438 113.835 122.832 112.806 120.359L98.2863 85.4838C96.9644 82.3082 98.4557 78.7142 101.634 77.4396C104.834 76.1563 109.824 77.6679 111.18 80.877L126.075 116.131C127.479 119.454 125.896 123.089 122.556 124.232C121.734 124.514 119.6 124.654 118.763 124.6Z" fill="url(#paint4_linear_1539_110450)"/>
<path opacity="0.3" d="M101.634 77.4396C104.835 76.1563 109.824 77.6678 111.18 80.877L124.799 113.111C122.52 112.525 119.822 112.578 117.232 110.307C112.92 106.526 115.041 101.681 111.623 97.3647C110.061 95.3918 107.171 93.3149 101.286 92.69L98.2863 85.4838C96.9644 82.3081 98.4557 78.7141 101.634 77.4396Z" fill="url(#paint5_linear_1539_110450)"/>
<path d="M92.8901 70.5189C93.0149 70.5189 93.1386 70.5284 93.2614 70.5453L102.237 70.4467V93.7835L93.5699 93.6648C93.3471 93.7214 93.1202 93.7511 92.8901 93.7511C89.814 93.7511 87.3203 88.5504 87.3203 82.135C87.3203 75.7196 89.814 70.5189 92.8901 70.5189Z" fill="url(#paint6_linear_1539_110450)"/>
<path d="M102.229 70.4468C98.8298 78.2176 98.8298 85.9608 102.229 93.7836L168.993 115.249L169.682 49.7495L102.229 70.4468Z" fill="url(#paint7_linear_1539_110450)"/>
<path opacity="0.3" d="M150.972 95.9958C144.624 93.5909 142.651 84.3816 135.282 84.0716C129.499 83.8284 127.757 89.4432 122.091 88.8377C116.291 88.2177 115.317 81.9644 108.821 79.7603C105.868 78.7582 102.778 78.9433 99.7797 79.7905C99.3769 84.4313 100.19 89.0879 102.231 93.7835L168.994 115.249L165.045 93.0096C158.462 96.8496 154.049 97.1617 150.972 95.9958Z" fill="url(#paint8_linear_1539_110450)"/>
<path d="M172.232 116.111C181.202 116.111 188.473 100.947 188.473 82.2406C188.473 63.5347 181.202 48.3706 172.232 48.3706C163.263 48.3706 155.992 63.5347 155.992 82.2406C155.992 100.947 163.263 116.111 172.232 116.111Z" fill="url(#paint9_linear_1539_110450)"/>
<path d="M172.237 114.961C174.141 114.961 176.012 114.163 177.798 112.587C179.616 110.984 181.26 108.664 182.685 105.693C185.679 99.4482 187.328 91.1191 187.328 82.2406C187.328 73.3621 185.679 65.033 182.685 58.7878C181.26 55.8169 179.616 53.4976 177.798 51.8941C176.012 50.3186 174.141 49.5198 172.237 49.5198C170.333 49.5198 168.462 50.3186 166.676 51.8941C164.858 53.4975 163.214 55.8169 161.79 58.7878C160.538 61.3991 159.521 64.3747 158.761 67.6025C157.704 72.0943 160.759 76.7834 160.759 81.9496C160.759 87.443 157.777 93.0171 158.968 97.7263C159.702 100.628 160.648 103.312 161.79 105.693C163.214 108.664 164.858 110.984 166.676 112.587C168.462 114.163 170.333 114.961 172.237 114.961Z" fill="url(#paint10_linear_1539_110450)"/>
<mask id="mask2_1539_110450" style="mask-type:luminance" maskUnits="userSpaceOnUse" x="157" y="49" width="31" height="66">
<path d="M172.232 114.961C174.136 114.961 176.007 114.163 177.793 112.587C179.611 110.984 181.255 108.664 182.679 105.693C185.674 99.4482 187.323 91.1191 187.323 82.2406C187.323 73.3621 185.674 65.033 182.679 58.7878C181.255 55.8169 179.611 53.4976 177.793 51.8941C176.007 50.3186 174.136 49.5198 172.232 49.5198C170.328 49.5198 168.456 50.3186 166.67 51.8941C164.853 53.4975 163.209 55.8169 161.784 58.7878C158.79 65.033 157.141 73.3621 157.141 82.2406C157.141 91.1192 158.79 99.4482 161.784 105.693C163.209 108.664 164.853 110.984 166.67 112.587C168.456 114.163 170.328 114.961 172.232 114.961Z" fill="white"/>
</mask>
<g mask="url(#mask2_1539_110450)">
<path d="M173.569 82.685C173.569 91.2661 167.887 98.0795 160.976 97.9057C154.173 97.7346 148.734 90.8351 148.734 82.4929C148.734 74.1506 154.173 67.3352 160.976 67.2694C167.887 67.2025 173.569 74.1039 173.569 82.685Z" fill="url(#paint11_linear_1539_110450)"/>
</g>
<mask id="mask3_1539_110450" style="mask-type:luminance" maskUnits="userSpaceOnUse" x="157" y="49" width="31" height="66">
<path d="M172.232 114.961C174.136 114.961 176.007 114.163 177.793 112.587C179.611 110.984 181.255 108.664 182.679 105.693C185.674 99.4482 187.323 91.1191 187.323 82.2406C187.323 73.3621 185.674 65.033 182.679 58.7878C181.255 55.8169 179.611 53.4976 177.793 51.8941C176.007 50.3186 174.136 49.5198 172.232 49.5198C170.328 49.5198 168.456 50.3186 166.67 51.8941C164.853 53.4975 163.209 55.8169 161.784 58.7878C158.79 65.033 157.141 73.3621 157.141 82.2406C157.141 91.1192 158.79 99.4482 161.784 105.693C163.209 108.664 164.853 110.984 166.67 112.587C168.456 114.163 170.328 114.961 172.232 114.961Z" fill="white"/>
</mask>
<g mask="url(#mask3_1539_110450)">
<path opacity="0.3" d="M172.475 82.5452C172.475 88.9173 169.707 93.9768 166.34 93.8478C163.025 93.7207 160.375 88.5973 160.375 82.4026C160.375 76.2078 163.025 71.1469 166.34 71.098C169.707 71.0484 172.475 76.1731 172.475 82.5452Z" fill="url(#paint12_linear_1539_110450)"/>
</g>
<mask id="mask4_1539_110450" style="mask-type:luminance" maskUnits="userSpaceOnUse" x="83" y="24" width="83" height="106">
<path d="M151.845 109.752L165.04 113.994L148.849 129.786C148.849 129.786 83.217 130.269 83.0557 128.979C82.8945 127.689 84.9908 48.782 84.9908 48.782C84.9908 48.782 135.598 24 136.66 24C137.722 24 160.514 38.8358 160.514 38.8358L130.627 59.9606L151.845 109.752Z" fill="white"/>
</mask>
<g mask="url(#mask4_1539_110450)">
<path d="M172.495 79.5543C172.495 98.2415 158.173 114.831 139.119 116.882C118.237 119.129 99.7165 103.241 99.7165 81.2622C99.7165 61.1949 114.959 45.3599 133.968 43.8252V49.5074H135.917V48.4806L150.377 40.8084L135.917 31.1461V29.8488H133.968V36.1322C129.419 36.2889 125.548 37.0706 121.468 38.4642C115.777 40.4079 110.557 43.4581 105.967 47.5516C101.287 51.7269 97.5413 56.7468 94.8919 62.4569C92.1166 68.4381 90.6953 74.8496 90.6953 81.4615C90.6953 88.0734 92.1138 94.4177 94.8891 100.267C97.5386 105.852 101.28 110.695 105.96 114.649C110.55 118.525 115.782 121.327 121.473 123.001C127.22 124.692 133.165 125.148 139.128 124.403C144.932 123.678 150.419 121.855 155.459 119.025C160.213 116.356 164.391 112.893 167.912 108.745C171.373 104.667 174.049 100.119 175.898 95.1726C177.795 90.0978 178.75 84.6123 178.75 79.4058L172.495 79.5543Z" fill="url(#paint13_linear_1539_110450)"/>
<path d="M174.424 79.5543C174.424 98.2416 160.101 114.832 141.047 116.882C120.166 119.129 101.652 103.241 101.652 81.2624C101.652 61.195 116.902 45.3601 135.911 43.8253V49.5074L152.306 40.8086L135.911 29.8532V36.1324C131.362 36.289 127.484 37.0707 123.404 38.4644C117.713 40.4081 112.489 43.4583 107.9 47.5518C103.219 51.727 99.4719 56.747 96.8225 62.4571C94.0472 68.4383 92.625 74.8498 92.625 81.4617C92.625 88.0735 94.0431 94.4179 96.8183 100.268C99.4678 105.852 103.209 110.696 107.889 114.649C112.478 118.526 117.711 121.327 123.402 123.002C129.149 124.692 135.094 125.148 141.057 124.403C146.861 123.678 152.348 121.855 157.388 119.026C162.142 116.357 166.32 112.893 169.841 108.745C173.301 104.668 175.978 100.119 177.827 95.1727C179.724 90.098 180.679 84.6125 180.679 79.4059L174.424 79.5543Z" fill="url(#paint14_linear_1539_110450)"/>
</g>
<path d="M98.8832 154.594C98.8832 154.594 98.7849 155.376 98.8509 155.638C98.9169 155.9 101.191 156.089 101.963 155.998C102.735 155.907 101.503 155.119 101.011 154.971C100.52 154.823 98.8832 154.594 98.8832 154.594Z" fill="url(#paint15_linear_1539_110450)"/>
<path d="M100.029 153.289L99.7889 154.858C99.7889 154.858 99.1777 155.133 98.8839 154.862L98.8516 153.219L100.029 153.289Z" fill="#D8DEE8"/>
<path d="M87.2037 153.219C87.2037 153.219 87.6862 153.577 87.5575 154.006C87.429 154.434 86.303 156.153 85.5006 156.64C84.6983 157.128 84.9498 156.112 85.1833 155.479C85.4168 154.846 86.0134 153.452 86.2464 153.219C86.4792 152.985 87.2037 153.219 87.2037 153.219Z" fill="url(#paint16_linear_1539_110450)"/>
<path d="M88.0753 151.495C87.8421 152.145 87.6177 152.68 87.4422 153.074C87.054 153.946 86.8418 154.273 86.6015 154.557C86.3919 154.804 85.8958 155.332 85.7624 155.244C85.627 155.155 85.9899 154.514 86.6896 152.636C86.7912 152.363 87.112 151.495 87.112 151.495L88.0753 151.495Z" fill="#D8DEE8"/>
<path d="M104.789 124.328C104.956 125.962 105.116 128.499 104.877 131.577C104.566 135.588 103.764 138.126 102.758 142.402C102.143 145.015 101.315 148.862 100.566 153.672C100.392 153.772 99.88 154.034 99.2214 153.936C98.8525 153.881 98.5767 153.735 98.4139 153.629C96.4474 147.62 97.0282 143.897 97.9772 141.577C98.3817 140.588 98.8721 139.808 99.1343 138.288C99.4811 136.277 99.0523 135.152 98.4406 130.494C98.0046 127.173 98.0801 126.66 98.3702 126.162C99.5296 124.171 103.076 124.21 104.789 124.328Z" fill="url(#paint17_linear_1539_110450)"/>
<path d="M98.0238 125.027C96.8191 131.248 95.6368 134.515 94.7421 136.363C94.5215 136.819 93.7853 138.29 93.0893 140.398C92.4732 142.264 92.2164 143.637 92.0849 144.241C91.6696 146.148 90.6431 148.932 87.8812 152.584C87.8468 152.604 87.3759 152.871 86.9256 152.633C86.6978 152.513 86.5842 152.321 86.5391 152.232C86.9001 148.74 87.3146 145.806 87.6744 143.542C87.7499 143.067 88.0823 140.989 88.6037 138.244C88.8077 137.169 89.1067 135.595 89.4648 133.978C89.9107 131.965 90.5944 129.226 91.6482 125.944C93.7734 125.638 95.8986 125.333 98.0238 125.027Z" fill="url(#paint18_linear_1539_110450)"/>
<path d="M99.0528 100.42C99.736 99.7881 101.043 99.0601 101.699 97.3678C101.896 96.8584 102.595 95.0534 101.564 93.6728C100.952 92.8532 99.8147 92.2968 98.8126 92.4938C97.9563 92.6622 97.8224 93.2585 96.3673 94.4589C95.8009 94.9261 94.8905 95.677 93.8772 96.0946C92.1413 96.81 91.0983 96.1368 89.3555 96.2136C87.2144 96.308 84.7272 97.5029 83.5289 99.2405C81.4019 102.325 84.483 105.453 82.1533 109.066C81.39 110.25 81.0138 109.984 79.2057 112.275C77.3953 114.57 76.49 115.717 76.6511 117.123C76.8747 119.074 78.9761 120.937 80.9549 121.064C82.888 121.188 84.1168 119.667 85.1009 120.332C85.8013 120.806 85.4009 121.726 86.1448 122.833C87.1038 124.26 88.9886 124.544 89.2931 124.59C92.1185 125.016 95.9283 121.703 97.5463 117.778C100.464 110.699 95.3387 103.853 99.0528 100.42Z" fill="url(#paint19_linear_1539_110450)"/>
<path d="M110.646 102.384C110.665 100.409 106.177 98.8297 104.123 98.321C100.928 97.5296 98.3703 98.0266 97.749 98.158C93.765 99.0021 91.2838 101.393 90.35 102.398C91.1146 102.895 93.2249 104.415 94.27 107.297C94.5952 108.194 95.5559 111.26 94.182 114.131C93.3904 115.786 91.99 117.028 90.9265 117.972C89.3313 119.387 88.5052 119.605 87.9704 120.872C87.388 122.253 87.9749 122.926 87.2516 123.871C86.4749 124.887 85.5648 124.415 84.2482 125.441C82.8995 126.493 83.3795 127.358 82.1521 128.52C80.3687 130.208 78.0045 129.66 77.8945 130.419C77.7997 131.073 79.48 131.959 80.9076 132.319C83.7346 133.031 86.2005 131.836 86.9337 131.467C88.9639 130.448 88.6132 129.787 90.161 129.01C92.7528 127.708 94.524 129.157 100.427 129.306C103.624 129.387 105.24 129.405 106.126 128.323C106.935 127.335 106.509 126.252 106.024 121.582C105.793 119.359 105.71 117.123 105.54 114.895C105.058 108.592 105.043 108.038 105.471 107.166C107.002 104.045 110.628 104.158 110.646 102.384Z" fill="url(#paint20_linear_1539_110450)"/>
<g opacity="0.3">
<path d="M82.1521 128.52C83.3795 127.358 82.8995 126.493 84.2482 125.442C85.5647 124.415 86.4748 124.887 87.2516 123.872C87.9748 122.927 87.3879 122.253 87.9704 120.873C88.5051 119.605 89.3313 119.387 90.9265 117.972C91.99 117.029 93.3904 115.786 94.1819 114.132C95.5558 111.26 94.5952 108.194 94.27 107.297C93.2249 104.415 91.1146 102.896 90.3499 102.398C90.4236 102.318 90.5104 102.228 90.6032 102.133C95.6416 102.825 98.5791 105.737 98.9425 106.599C99.7823 108.591 98.4528 109.323 98.4184 115.07C98.4021 117.817 98.6983 118.902 97.8071 120.049C96.7877 121.36 95.613 120.954 94.139 122.669C93.0063 123.986 93.1877 124.821 92.1302 125.376C90.9931 125.973 90.2688 125.277 88.9861 125.551C86.8434 126.008 86.3852 128.478 84.9687 129.83C83.8974 130.852 81.9169 131.567 78.0109 130.8C77.9206 130.668 77.8769 130.54 77.8944 130.42C78.0045 129.66 80.3687 130.208 82.1521 128.52Z" fill="url(#paint21_linear_1539_110450)"/>
</g>
<path d="M97.413 108.149C97.9485 109.286 95.4875 111.935 92.752 113.193C92.1947 113.45 88.1924 115.29 86.4086 113.52C84.9346 112.058 85.886 109.034 86.2256 107.955C87.8932 102.654 93.0145 99.9578 95.1608 98.9853C96.7626 102.99 95.8193 104.775 95.4479 105.332C95.0601 105.914 93.9775 107.137 92.8279 108.214C92.0192 108.972 91.5156 109.341 91.5833 109.459C91.6676 109.606 92.6155 109.328 96.2975 107.536C96.7242 107.605 97.23 107.761 97.413 108.149Z" fill="url(#paint22_linear_1539_110450)"/>
<path d="M112.817 101.615L111.011 110.611C110.953 110.9 110.729 111.126 110.442 111.188L96.9713 114.079C96.4886 114.182 96.0422 113.792 96.0804 113.3L96.7913 104.15C96.816 103.832 97.041 103.567 97.3503 103.49C99.4871 102.963 107.712 100.988 112.049 100.731C112.534 100.703 112.913 101.139 112.817 101.615Z" fill="url(#paint23_linear_1539_110450)"/>
<path d="M99.3831 95.0437C99.3831 95.0437 99.129 97.075 98.3793 97.5405C97.6295 98.0056 96.4175 98.6136 96.284 98.7786C96.1505 98.9434 100.928 99.4572 103.296 98.2623C102.516 98.0995 102.304 98.0397 102.304 98.0397C102.092 97.9798 101.697 97.8685 101.301 97.6428C101.031 97.4894 100.597 97.1895 100.198 96.6232L100.207 95.4985L99.3831 95.0437Z" fill="white"/>
<path d="M99.2723 95.7632C99.2723 95.7632 99.7611 96.4342 100.528 96.1546C101.214 95.9042 100.804 94.1314 100.26 93.9291C100.078 93.8617 99.7449 93.8915 99.522 94.0306C99.3652 94.1284 98.9465 94.6485 99.1865 95.2314C99.0131 95.1811 98.8604 95.2268 98.8222 95.3126C98.7737 95.4215 98.9205 95.5699 98.9538 95.6035C99.0691 95.72 99.2082 95.7526 99.2723 95.7632Z" fill="white"/>
<path opacity="0.3" d="M100.69 109.393C102.137 108.985 103.337 109.998 104.489 109.197C105.67 108.376 104.9 106.973 106.127 105.594C107.439 104.119 109.104 104.842 110.319 103.498C110.77 102.999 111.176 102.186 111.182 100.8C111.486 100.771 111.778 100.747 112.053 100.731C112.538 100.702 112.917 101.139 112.821 101.614L111.015 110.611C110.957 110.899 110.733 111.126 110.446 111.188L97.5 113.966C98.414 110.759 99.6338 109.691 100.69 109.393Z" fill="url(#paint24_linear_1539_110450)"/>
<path d="M111.866 106.338C111.866 106.338 112.726 105.544 112.819 104.621C112.912 103.698 112.264 102.96 111.636 102.772C111.008 102.584 110.672 102.861 111.094 103.77C111.516 104.678 112.185 105.268 111.866 106.338Z" fill="white"/>
</g>
<defs>
<linearGradient id="paint0_linear_1539_110450" x1="140.5" y1="0" x2="140.5" y2="181.33" gradientUnits="userSpaceOnUse">
<stop stop-color="#F5F5F5"/>
<stop offset="1" stop-color="#E6E6E6"/>
</linearGradient>
<linearGradient id="paint1_linear_1539_110450" x1="153.562" y1="107.613" x2="190.388" y2="107.613" gradientUnits="userSpaceOnUse">
<stop stop-color="#FF9085"/>
<stop offset="1" stop-color="#FB6FBB"/>
</linearGradient>
<linearGradient id="paint2_linear_1539_110450" x1="187.785" y1="102.74" x2="175.042" y2="136.947" gradientUnits="userSpaceOnUse">
<stop offset="0.0036" stop-color="#E38DDD"/>
<stop offset="1" stop-color="#9571F6"/>
</linearGradient>
<linearGradient id="paint3_linear_1539_110450" x1="84.6953" y1="143.979" x2="204.707" y2="143.979" gradientUnits="userSpaceOnUse">
<stop offset="0.494" stop-color="#EBEFF2"/>
<stop offset="1" stop-color="white"/>
</linearGradient>
<linearGradient id="paint4_linear_1539_110450" x1="121.961" y1="89.313" x2="102.335" y2="112.46" gradientUnits="userSpaceOnUse">
<stop stop-color="#311944"/>
<stop offset="1" stop-color="#893976"/>
</linearGradient>
<linearGradient id="paint5_linear_1539_110450" x1="119.544" y1="87.2631" x2="99.9171" y2="110.409" gradientUnits="userSpaceOnUse">
<stop stop-color="#311944"/>
<stop offset="1" stop-color="#893976"/>
</linearGradient>
<linearGradient id="paint6_linear_1539_110450" x1="89.0126" y1="72.8801" x2="104.855" y2="91.5636" gradientUnits="userSpaceOnUse">
<stop offset="0.0036" stop-color="#E38DDD"/>
<stop offset="1" stop-color="#9571F6"/>
</linearGradient>
<linearGradient id="paint7_linear_1539_110450" x1="131.013" y1="46.8409" x2="149.126" y2="147.026" gradientUnits="userSpaceOnUse">
<stop stop-color="#AA80F9"/>
<stop offset="0.9964" stop-color="#6165D7"/>
</linearGradient>
<linearGradient id="paint8_linear_1539_110450" x1="124.817" y1="47.0241" x2="143.155" y2="148.456" gradientUnits="userSpaceOnUse">
<stop stop-color="#AA80F9"/>
<stop offset="0.9964" stop-color="#6165D7"/>
</linearGradient>
<linearGradient id="paint9_linear_1539_110450" x1="154.192" y1="60.9652" x2="190.272" y2="103.516" gradientUnits="userSpaceOnUse">
<stop offset="0.0036" stop-color="#E38DDD"/>
<stop offset="1" stop-color="#9571F6"/>
</linearGradient>
<linearGradient id="paint10_linear_1539_110450" x1="158.539" y1="82.2406" x2="187.328" y2="82.2406" gradientUnits="userSpaceOnUse">
<stop stop-color="#D8DEE8"/>
<stop offset="1" stop-color="white"/>
</linearGradient>
<linearGradient id="paint11_linear_1539_110450" x1="155.262" y1="50.0061" x2="167.088" y2="115.418" gradientUnits="userSpaceOnUse">
<stop stop-color="#FFC444"/>
<stop offset="0.9964" stop-color="#F36F56"/>
</linearGradient>
<linearGradient id="paint12_linear_1539_110450" x1="162.08" y1="58.4326" x2="170.806" y2="106.697" gradientUnits="userSpaceOnUse">
<stop stop-color="#FFC444"/>
<stop offset="0.9964" stop-color="#F36F56"/>
</linearGradient>
<linearGradient id="paint13_linear_1539_110450" x1="205.549" y1="-34.5881" x2="106.705" y2="125.911" gradientUnits="userSpaceOnUse">
<stop stop-color="#FFC444"/>
<stop offset="0.9964" stop-color="#F36F56"/>
</linearGradient>
<linearGradient id="paint14_linear_1539_110450" x1="143.302" y1="69.6211" x2="45.5965" y2="228.271" gradientUnits="userSpaceOnUse">
<stop stop-color="#FFC444"/>
<stop offset="0.9964" stop-color="#F36F56"/>
</linearGradient>
<linearGradient id="paint15_linear_1539_110450" x1="100.852" y1="149.563" x2="100.066" y2="163.711" gradientUnits="userSpaceOnUse">
<stop stop-color="#444B8C"/>
<stop offset="0.9964" stop-color="#26264F"/>
</linearGradient>
<linearGradient id="paint16_linear_1539_110450" x1="86.6205" y1="148.772" x2="85.8345" y2="162.921" gradientUnits="userSpaceOnUse">
<stop stop-color="#444B8C"/>
<stop offset="0.9964" stop-color="#26264F"/>
</linearGradient>
<linearGradient id="paint17_linear_1539_110450" x1="100.986" y1="138.973" x2="91.9897" y2="137.567" gradientUnits="userSpaceOnUse">
<stop stop-color="#444B8C"/>
<stop offset="0.9964" stop-color="#26264F"/>
</linearGradient>
<linearGradient id="paint18_linear_1539_110450" x1="100.253" y1="129.517" x2="74.3886" y2="153.554" gradientUnits="userSpaceOnUse">
<stop stop-color="#444B8C"/>
<stop offset="0.9964" stop-color="#26264F"/>
</linearGradient>
<linearGradient id="paint19_linear_1539_110450" x1="86.5625" y1="114.417" x2="92.0647" y2="106.622" gradientUnits="userSpaceOnUse">
<stop stop-color="#444B8C"/>
<stop offset="0.9964" stop-color="#26264F"/>
</linearGradient>
<linearGradient id="paint20_linear_1539_110450" x1="97.1768" y1="98.6702" x2="92.6353" y2="126.443" gradientUnits="userSpaceOnUse">
<stop stop-color="#FF9085"/>
<stop offset="1" stop-color="#FB6FBB"/>
</linearGradient>
<linearGradient id="paint21_linear_1539_110450" x1="92.4992" y1="97.9056" x2="87.9577" y2="125.679" gradientUnits="userSpaceOnUse">
<stop stop-color="#FF9085"/>
<stop offset="1" stop-color="#FB6FBB"/>
</linearGradient>
<linearGradient id="paint22_linear_1539_110450" x1="93.4375" y1="98.0592" x2="88.8961" y2="125.832" gradientUnits="userSpaceOnUse">
<stop stop-color="#FF9085"/>
<stop offset="1" stop-color="#FB6FBB"/>
</linearGradient>
<linearGradient id="paint23_linear_1539_110450" x1="112.832" y1="107.413" x2="96.0781" y2="107.413" gradientUnits="userSpaceOnUse">
<stop stop-color="#AA80F9"/>
<stop offset="0.9964" stop-color="#6165D7"/>
</linearGradient>
<linearGradient id="paint24_linear_1539_110450" x1="112.836" y1="107.348" x2="97.5" y2="107.348" gradientUnits="userSpaceOnUse">
<stop stop-color="#AA80F9"/>
<stop offset="0.9964" stop-color="#6165D7"/>
</linearGradient>
<clipPath id="clip0_1539_110450">
<rect width="281" height="181.33" rx="8" fill="white"/>
</clipPath>
</defs>
</svg>
