<svg width="281" height="182" viewBox="0 0 281 182" fill="none" xmlns="http://www.w3.org/2000/svg">
<g clip-path="url(#clip0_1539_111120)">
<rect width="281" height="181.33" rx="8" fill="url(#paint0_linear_1539_111120)"/>
<path d="M142.178 20.697C106.339 19.6088 75.2944 46.3516 70.6042 81.4417C65.476 119.808 93.7007 154.328 128.43 159.857C171.627 166.734 213.526 126.95 209.764 83.789C206.93 51.2713 178.61 21.8034 142.178 20.697Z" fill="#F4F7FA"/>
<path d="M154.605 142.585C157.673 139.528 161.694 134.591 163.374 127.731C165.577 118.735 161.819 114.335 161.772 99.2182C161.743 89.6597 161.818 82.9887 166.526 79.28C170.215 76.3737 176.307 75.6344 180.092 78.1113C183.24 80.1707 185.161 84.6947 185.804 87.9459C186.327 90.5957 186.029 92.5399 187.607 93.8965C189.219 95.2829 190.888 94.4203 192.387 95.4379C195.427 97.5018 193.919 104.687 193.675 105.848C190.965 118.765 179.409 127.77 174.321 131.638C170.114 134.835 163.586 139.124 154.605 142.585Z" fill="url(#paint1_linear_1539_111120)"/>
<mask id="mask0_1539_111120" style="mask-type:luminance" maskUnits="userSpaceOnUse" x="154" y="76" width="41" height="67">
<path d="M154.605 142.585C157.673 139.528 161.694 134.591 163.374 127.731C165.577 118.735 161.819 114.335 161.772 99.2182C161.743 89.6597 161.818 82.9887 166.526 79.28C170.215 76.3737 176.307 75.6344 180.092 78.1113C183.24 80.1707 185.161 84.6947 185.804 87.9459C186.327 90.5957 186.029 92.5399 187.607 93.8965C189.219 95.2829 190.888 94.4203 192.387 95.4379C195.427 97.5018 193.919 104.687 193.675 105.848C190.965 118.765 179.409 127.77 174.321 131.638C170.114 134.835 163.586 139.124 154.605 142.585Z" fill="white"/>
</mask>
<g mask="url(#mask0_1539_111120)">
<g opacity="0.5">
<path d="M151.079 145.104L150.945 144.78C156.361 142.534 160.999 139.91 164.732 136.982C170.231 132.668 173.589 127.808 174.712 122.539C175.592 118.411 175.108 114.173 174.438 108.306C173.903 103.622 173.101 100.35 172.394 97.4635C171.468 93.6857 170.737 90.7018 171.052 86.3286C171.372 81.8912 172.698 77.4503 174.993 73.1289L175.302 73.2931C173.03 77.571 171.717 81.9653 171.401 86.3538C171.09 90.6721 171.815 93.6323 172.734 97.3803C173.443 100.277 174.248 103.56 174.785 108.266C175.434 113.944 175.946 118.428 175.054 122.612C173.914 127.964 170.513 132.891 164.947 137.257C161.19 140.205 156.524 142.845 151.079 145.104Z" fill="white"/>
<path d="M174.254 105.049L174.07 104.975C174.039 104.963 170.862 103.668 167.634 100.541C164.655 97.654 161.015 92.5686 160.594 84.735L160.943 84.7162C161.358 92.4298 164.938 97.4369 167.867 100.279C170.608 102.938 173.306 104.252 174.019 104.572C176.336 96.0102 180.734 90.5497 184.028 87.4698C187.629 84.1033 190.733 82.7704 190.764 82.7574L190.901 83.0797C190.87 83.0926 187.812 84.4077 184.255 87.7368C180.974 90.8081 176.584 96.2713 174.305 104.858L174.254 105.049Z" fill="white"/>
<path d="M175.297 117.744L175.222 117.641C175.19 117.597 171.965 113.19 167.868 109.406C163.8 105.647 154.496 104.578 154.402 104.568L154.441 104.22C154.465 104.223 156.838 104.49 159.689 105.226C162.328 105.907 165.931 107.14 168.106 109.149C171.879 112.634 174.915 116.642 175.429 117.332C185.044 114.028 194.722 90.9967 194.819 90.7635L195.142 90.898C195.117 90.9567 192.652 96.8542 189.014 103.068C184.116 111.434 179.542 116.358 175.418 117.705L175.297 117.744Z" fill="white"/>
<path d="M166.33 136.078L166.495 135.771C168.845 131.388 168.346 126.874 165.012 122.354C162.516 118.969 159.282 116.858 159.25 116.837L159.44 116.543C159.473 116.565 162.76 118.71 165.294 122.147C168.588 126.612 169.163 131.264 166.966 135.623C168.144 135.414 172.227 134.607 177.292 132.667C182.824 130.548 190.693 126.606 196.765 119.858L208.568 106.74L208.828 106.975L197.025 120.092C190.905 126.895 182.979 130.865 177.408 132.997C171.374 135.307 166.721 136.02 166.675 136.027L166.33 136.078Z" fill="white"/>
</g>
</g>
<path d="M155.664 141.818C161.893 144.64 170.231 147.346 179.394 147.289C181.733 147.275 196.18 147.186 197.196 141.076C197.554 138.924 195.943 137.843 196.372 134.957C196.88 131.538 199.466 130.868 202.478 127.664C204.274 125.753 209.533 120.159 207.197 114.728C205.801 111.482 201.756 108.441 197.97 107.715C192.416 106.652 188.508 110.779 182.016 117.877C176.261 124.169 176.088 126.265 171.865 130.724C168.731 134.033 163.713 138.276 155.664 141.818Z" fill="url(#paint2_linear_1539_111120)"/>
<mask id="mask1_1539_111120" style="mask-type:luminance" maskUnits="userSpaceOnUse" x="155" y="107" width="53" height="41">
<path d="M155.664 141.818C161.893 144.64 170.231 147.346 179.394 147.289C181.733 147.275 196.18 147.186 197.196 141.076C197.554 138.924 195.943 137.843 196.372 134.957C196.88 131.538 199.466 130.868 202.478 127.664C204.274 125.753 209.533 120.159 207.197 114.728C205.801 111.482 201.756 108.441 197.97 107.715C192.416 106.652 188.508 110.779 182.016 117.877C176.261 124.169 176.088 126.265 171.865 130.724C168.731 134.033 163.713 138.276 155.664 141.818Z" fill="white"/>
</mask>
<g mask="url(#mask1_1539_111120)">
<g opacity="0.5">
<path d="M154.651 141.783C152.339 141.783 150.037 141.573 147.747 141.152C140.733 139.862 134.099 136.725 128.027 131.827L128.247 131.555C134.273 136.415 140.854 139.529 147.81 140.808C157.077 142.511 166.565 140.728 176.013 135.506C185.856 130.066 193.189 122.259 197.607 116.667C200.663 112.799 202.598 107.871 203.357 102.019L203.704 102.065C202.936 107.98 200.977 112.966 197.882 116.884C193.443 122.501 186.076 130.344 176.182 135.812C168.994 139.785 161.778 141.783 154.651 141.783Z" fill="white"/>
<path d="M187.778 127.419L187.738 127.267C187.706 127.149 184.653 115.366 191.453 106.896L191.726 107.115C185.454 114.928 187.707 125.623 188.038 127.024C205.074 124.296 209.317 114.41 210.212 111.437C210.237 111.355 210.254 111.303 210.262 111.286L210.58 111.431L210.421 111.358L210.582 111.428C210.575 111.445 210.564 111.482 210.547 111.538C209.634 114.57 205.305 124.672 187.934 127.395L187.778 127.419Z" fill="white"/>
<path d="M191.839 140.83C187.994 140.83 182.599 139.786 176.172 135.715L176.093 135.665L176.091 135.572C176.088 135.479 175.929 126.217 181.353 116.136L186.818 105.978L187.126 106.144L181.661 116.301C176.571 125.762 176.437 134.48 176.44 135.471C180.625 138.107 187.015 141.075 193.848 140.38C197.946 139.963 200.279 138.404 200.302 138.388L200.499 138.678C200.402 138.744 198.069 140.302 193.884 140.728C193.262 140.792 192.579 140.83 191.839 140.83Z" fill="white"/>
</g>
</g>
<path d="M209.685 147.811L80.4414 146.694V149.999C80.4414 150.896 81.0051 151.659 81.7686 151.795L118.315 158.304C118.748 158.381 119.188 158.402 119.626 158.365L208.28 150.944C209.072 150.878 209.685 150.112 209.685 149.191L209.685 147.811Z" fill="#BFC8D6"/>
<path d="M162.122 142.514L79.9776 148.561C78.5076 148.669 77.3125 147.519 77.3125 145.992V84.8214C77.3125 83.2946 78.5076 82.0568 79.9776 82.0568H162.122C163.333 82.0568 164.312 83.1757 164.312 84.556V139.853C164.312 141.233 163.333 142.424 162.122 142.514Z" fill="#BFC8D6"/>
<path d="M163.435 142.513L81.2901 148.561C79.8201 148.669 78.625 147.519 78.625 145.992V84.8213C78.625 83.2945 79.8201 82.0568 81.2901 82.0568H163.435C164.646 82.0568 165.625 83.1757 165.625 84.5559V139.853C165.625 141.233 164.646 142.424 163.435 142.513Z" fill="white"/>
<path d="M160.873 138.615L84.3636 143.867C83.1674 143.95 82.1953 143.006 82.1953 141.759V88.2044C82.1953 86.958 83.1674 85.9433 84.3636 85.9381L160.873 85.6083C161.872 85.604 162.68 86.5208 162.68 87.6562V136.435C162.68 137.57 161.872 138.546 160.873 138.615Z" fill="#D8DEE8"/>
<path d="M125.255 83.7298C125.255 84.2982 124.832 84.7603 124.31 84.762C123.788 84.7636 123.363 84.3032 123.363 83.7335C123.363 83.1639 123.787 82.7018 124.31 82.7014C124.832 82.701 125.255 83.1615 125.255 83.7298Z" fill="white"/>
<path opacity="0.48" d="M81.2898 148.561L163.019 142.544L163.435 142.514C163.99 142.473 164.496 142.198 164.881 141.781C159 141.459 155.347 139.372 152.991 137.216C148.259 132.885 149.079 128.614 143.976 125.766C137.611 122.215 132.606 126.715 127.776 122.275C124.848 119.583 126.286 117.575 122.683 113.552C118.692 109.097 116.094 110.594 112.083 106.584C107.012 101.514 109.548 97.5688 105.18 93.9283C99.8805 89.5118 94.1656 93.5995 89.1211 89.3639C86.9454 87.5371 85.7515 84.8813 85.1281 82.0568H81.2901C79.8202 82.0568 78.625 83.2946 78.625 84.8213V145.992C78.6251 147.519 79.82 148.669 81.2898 148.561Z" fill="white"/>
<path d="M167.303 142.178L80.4414 148.543L118.315 155.289C118.748 155.366 119.188 155.386 119.626 155.35L209.685 147.811L168.685 142.221C168.226 142.159 167.764 142.144 167.303 142.178Z" fill="url(#paint3_linear_1539_111120)"/>
<path d="M93.1172 148.598L165.432 143.22L187.813 146.246L116.121 151.995L93.1172 148.598Z" fill="#D8DEE8"/>
<path d="M179.34 42.8867H88.5156V65.2558H179.34V42.8867Z" fill="url(#paint4_linear_1539_111120)"/>
<path d="M179.34 65.2561H88.5156V139.069H179.34V65.2561Z" fill="url(#paint5_linear_1539_111120)"/>
<path d="M102.194 69.0834H91.1562V80.1215H102.194V69.0834Z" fill="white"/>
<path d="M99.952 78.2958C100.207 78.3083 100.38 78.4461 100.38 78.6727C100.38 78.9343 100.187 79.1165 99.883 79.1165C99.7192 79.1165 99.5509 79.0579 99.4336 78.9728L99.5047 78.8365C99.6057 78.9201 99.74 78.9704 99.8712 78.9704C100.092 78.9704 100.222 78.8507 100.222 78.6782C100.222 78.4999 100.091 78.4086 99.8698 78.4086H99.6952V78.3059L100.111 77.8457H99.4967V77.6913H100.314V77.8006L99.8736 78.2889L99.952 78.2958Z" fill="#B2C6F9"/>
<path d="M100.811 79.1086V77.844H100.523V77.6903H100.971V79.1086H100.811Z" fill="#B2C6F9"/>
<path d="M114.609 69.0834H103.57V80.1215H114.609V69.0834Z" fill="white"/>
<path d="M113.229 79.1086V77.844H112.941V77.6903H113.389V79.1086H113.229Z" fill="#7E9BF3"/>
<path d="M127.026 69.0834H115.988V80.1215H127.026V69.0834Z" fill="white"/>
<path d="M125.887 78.0325C125.887 78.1685 125.785 78.3326 125.636 78.4923L125.2 78.9549H125.968V79.1086H124.993V78.975L125.524 78.3975C125.644 78.2778 125.719 78.1456 125.719 78.0547C125.719 77.9173 125.613 77.834 125.435 77.834C125.305 77.834 125.161 77.9003 125.047 78.0103L124.977 77.8805C125.115 77.7566 125.286 77.6837 125.455 77.6837C125.717 77.6837 125.887 77.8198 125.887 78.0325Z" fill="#7E9BF3"/>
<path d="M139.444 69.0834H128.406V80.1215H139.444V69.0834Z" fill="white"/>
<path d="M137.957 78.2959C138.212 78.3084 138.386 78.4461 138.386 78.6727C138.386 78.9344 138.193 79.1166 137.889 79.1166C137.724 79.1166 137.557 79.0579 137.438 78.9729L137.509 78.8365C137.611 78.9202 137.744 78.9705 137.876 78.9705C138.097 78.9705 138.227 78.8508 138.227 78.6783C138.227 78.4999 138.095 78.4086 137.874 78.4086H137.7V78.3059L138.116 77.8458H137.501V77.6913H138.318V77.8007L137.879 78.2889L137.957 78.2959Z" fill="#7E9BF3"/>
<path d="M151.863 69.0834H140.824V80.1215H151.863V69.0834Z" fill="white"/>
<path d="M150.485 78.5797V78.2049H150.637V78.5797H150.852V78.7359H150.637V79.1086H150.485V78.7359H149.805V78.6023L150.313 77.6903H150.473L149.978 78.5797H150.485Z" fill="#7E9BF3"/>
<path d="M164.28 69.0834H153.242V80.1215H164.28V69.0834Z" fill="white"/>
<path d="M162.505 77.8465V78.2452C162.578 78.2334 162.68 78.2251 162.745 78.2251C163.042 78.2251 163.233 78.4021 163.233 78.645C163.233 78.9285 163.036 79.1131 162.732 79.1131C162.577 79.1131 162.388 79.052 162.254 78.9594L162.321 78.8216C162.438 78.9108 162.588 78.9636 162.715 78.9636C162.929 78.9636 163.06 78.8459 163.06 78.6551C163.06 78.4871 162.929 78.3819 162.721 78.3819C162.627 78.3819 162.457 78.3958 162.355 78.4163V77.6907H163.178V77.8468L162.505 77.8465Z" fill="#7E9BF3"/>
<path d="M176.699 69.0834H165.66V80.1215H176.699V69.0834Z" fill="white"/>
<path d="M175.614 77.7854L175.549 77.9152C175.456 77.8604 175.332 77.8281 175.223 77.8281C174.918 77.8281 174.767 78.0776 174.789 78.4607C174.852 78.2941 175.004 78.2011 175.213 78.2011C175.491 78.2011 175.663 78.3733 175.663 78.6467C175.663 78.9368 175.474 79.1169 175.183 79.1169C174.838 79.1169 174.629 78.8674 174.629 78.4298C174.629 77.9801 174.852 77.6837 175.213 77.6837C175.342 77.6837 175.499 77.7247 175.614 77.7854ZM174.827 78.6571C174.825 78.7928 174.931 78.967 175.172 78.967C175.373 78.967 175.51 78.8456 175.51 78.645C175.51 78.4565 175.385 78.3386 175.184 78.3386C174.959 78.3386 174.825 78.4885 174.827 78.6571Z" fill="#7E9BF3"/>
<path d="M102.194 81.501H91.1562V92.5391H102.194V81.501Z" fill="white"/>
<path d="M100.591 91.5265H100.418L101.002 90.2637H100.341V90.4709H100.195V90.1075H101.18V90.2432L100.591 91.5265Z" fill="#7E9BF3"/>
<path d="M114.609 81.501H103.57V92.5391H114.609V81.501Z" fill="white"/>
<path d="M113.488 90.4587C113.488 90.6045 113.4 90.7117 113.256 90.7686C113.441 90.8234 113.554 90.9508 113.554 91.1292C113.554 91.3832 113.354 91.5348 113.033 91.5348C112.709 91.5348 112.508 91.3835 112.508 91.1337C112.508 90.9529 112.625 90.8238 112.814 90.7686C112.666 90.7096 112.577 90.6006 112.577 90.4545C112.577 90.2335 112.753 90.1016 113.031 90.1016C113.313 90.1016 113.488 90.2356 113.488 90.4587ZM112.663 91.1153C112.663 91.2936 112.8 91.3974 113.033 91.3974C113.263 91.3974 113.402 91.294 113.402 91.1153C113.402 90.9473 113.264 90.8456 113.032 90.8456C112.8 90.8456 112.663 90.9473 112.663 91.1153ZM112.717 90.4688C112.717 90.6208 112.834 90.71 113.033 90.71C113.23 90.71 113.347 90.6208 113.347 90.4688C113.347 90.3164 113.23 90.2276 113.033 90.2276C112.835 90.2276 112.717 90.3161 112.717 90.4688Z" fill="#7E9BF3"/>
<path d="M127.026 81.501H115.988V92.5391H127.026V81.501Z" fill="white"/>
<path d="M125.002 91.4314L125.067 91.302C125.16 91.3564 125.283 91.3887 125.394 91.3887C125.697 91.3887 125.849 91.1389 125.827 90.7561C125.764 90.9223 125.612 91.0153 125.403 91.0153C125.126 91.0153 124.953 90.8432 124.953 90.5694C124.953 90.28 125.142 90.0992 125.434 90.0992C125.778 90.0992 125.987 90.3487 125.987 90.7849C125.987 91.2367 125.763 91.5327 125.403 91.5327C125.273 91.5327 125.118 91.4925 125.002 91.4314ZM125.791 90.5597C125.791 90.4236 125.687 90.2494 125.444 90.2494C125.244 90.2494 125.106 90.3692 125.106 90.5718C125.106 90.7603 125.231 90.8776 125.432 90.8776C125.657 90.8779 125.791 90.7283 125.791 90.5597Z" fill="#7E9BF3"/>
<path d="M139.444 81.501H128.406V92.5391H139.444V81.501Z" fill="white"/>
<path d="M136.678 91.5265V90.2616H136.391V90.1075H136.839V91.5265H136.678Z" fill="#7E9BF3"/>
<path d="M138.387 90.8168C138.387 91.2752 138.178 91.5306 137.801 91.5306C137.423 91.5306 137.215 91.2752 137.215 90.8168C137.215 90.3587 137.423 90.1033 137.801 90.1033C138.178 90.1037 138.387 90.3591 138.387 90.8168ZM137.379 90.8168C137.379 91.1999 137.526 91.3932 137.801 91.3932C138.076 91.3932 138.223 91.1999 138.223 90.8168C138.223 90.432 138.076 90.2411 137.801 90.2411C137.526 90.2414 137.379 90.432 137.379 90.8168Z" fill="#7E9BF3"/>
<path d="M151.863 81.501H140.824V92.5391H151.863V81.501Z" fill="white"/>
<path d="M149.729 91.5265V90.2616H149.441V90.1075H149.889V91.5265H149.729Z" fill="#7E9BF3"/>
<path d="M150.484 91.5265V90.2616H150.195V90.1075H150.643V91.5265H150.484Z" fill="#7E9BF3"/>
<path d="M164.28 81.501H153.242V92.5391H164.28V81.501Z" fill="white"/>
<path d="M161.72 91.5265V90.2616H161.434V90.1075H161.881V91.5265H161.72Z" fill="#7E9BF3"/>
<path d="M163.145 90.4504C163.145 90.5861 163.043 90.7506 162.893 90.9105L162.457 91.3731H163.225V91.5268H162.251V91.3936L162.781 90.8154C162.901 90.6957 162.976 90.5639 162.976 90.4729C162.976 90.3352 162.87 90.2519 162.692 90.2519C162.562 90.2519 162.419 90.3185 162.305 90.4282L162.234 90.2984C162.372 90.1748 162.544 90.1016 162.713 90.1016C162.974 90.1016 163.145 90.2373 163.145 90.4504Z" fill="#7E9BF3"/>
<path d="M176.699 81.501H165.66V92.5391H176.699V81.501Z" fill="white"/>
<path d="M174.248 91.5265V90.2616H173.961V90.1075H174.409V91.5265H174.248Z" fill="#7E9BF3"/>
<path d="M175.211 90.7138C175.466 90.7259 175.638 90.864 175.638 91.091C175.638 91.3527 175.445 91.5348 175.141 91.5348C174.977 91.5348 174.809 91.4762 174.691 91.3912L174.762 91.2551C174.863 91.3384 174.997 91.3891 175.129 91.3891C175.35 91.3891 175.48 91.2694 175.48 91.0969C175.48 90.9189 175.348 90.8276 175.127 90.8276H174.952V90.7242L175.368 90.2637H174.754V90.1096H175.571V90.2193L175.13 90.7082L175.211 90.7138Z" fill="#7E9BF3"/>
<path d="M102.194 93.9182H91.1562V104.957H102.194V93.9182Z" fill="white"/>
<path d="M99.6435 103.944V102.68H99.3555V102.527H99.8031V103.945H99.6435V103.944Z" fill="#7E9BF3"/>
<path d="M100.818 103.416V103.041H100.97V103.416H101.184V103.571H100.97V103.944H100.818V103.571H100.137V103.437L100.645 102.526H100.805L100.311 103.416H100.818Z" fill="#7E9BF3"/>
<path d="M114.609 93.9182H103.57V104.957H114.609V93.9182Z" fill="white"/>
<path d="M112.081 103.944V102.68H111.793V102.527H112.241V103.945H112.081V103.944Z" fill="#7E9BF3"/>
<path d="M112.834 102.682V103.081C112.907 103.068 113.008 103.06 113.073 103.06C113.371 103.06 113.561 103.237 113.561 103.48C113.561 103.763 113.365 103.948 113.061 103.948C112.904 103.948 112.716 103.887 112.582 103.794L112.649 103.657C112.767 103.746 112.917 103.798 113.044 103.798C113.257 103.798 113.389 103.681 113.389 103.491C113.389 103.323 113.257 103.216 113.048 103.216C112.955 103.216 112.785 103.231 112.684 103.251V102.526H113.507V102.682H112.834Z" fill="#7E9BF3"/>
<path d="M127.026 93.9182H115.988V104.957H127.026V93.9182Z" fill="white"/>
<path d="M124.42 103.944V102.68H124.133V102.527H124.58V103.945H124.42V103.944Z" fill="#7E9BF3"/>
<path d="M125.947 102.621L125.882 102.751C125.788 102.696 125.665 102.663 125.555 102.663C125.251 102.663 125.099 102.913 125.122 103.295C125.184 103.13 125.336 103.036 125.545 103.036C125.823 103.036 125.995 103.209 125.995 103.483C125.995 103.772 125.807 103.952 125.514 103.952C125.17 103.952 124.961 103.703 124.961 103.266C124.961 102.816 125.184 102.52 125.545 102.52C125.675 102.52 125.831 102.56 125.947 102.621ZM125.16 103.493C125.158 103.628 125.263 103.802 125.504 103.802C125.705 103.802 125.843 103.681 125.843 103.48C125.843 103.292 125.717 103.174 125.517 103.174C125.291 103.174 125.158 103.324 125.16 103.493Z" fill="#7E9BF3"/>
<path d="M139.444 93.9182H128.406V104.957H139.444V93.9182Z" fill="white"/>
<path d="M136.945 103.944V102.68H136.656V102.527H137.104V103.945H136.945V103.944Z" fill="#7E9BF3"/>
<path d="M137.844 103.944H137.672L138.255 102.682H137.595V102.889H137.449V102.526H138.434V102.662L137.844 103.944Z" fill="#7E9BF3"/>
<path d="M151.863 93.9182H140.824V104.957H151.863V93.9182Z" fill="white"/>
<path d="M149.233 103.944V102.68H148.945V102.527H149.393V103.945H149.233V103.944Z" fill="#7E9BF3"/>
<path d="M150.745 102.876C150.745 103.023 150.657 103.13 150.514 103.186C150.698 103.241 150.813 103.369 150.813 103.547C150.813 103.801 150.612 103.952 150.291 103.952C149.966 103.952 149.766 103.801 149.766 103.552C149.766 103.371 149.883 103.241 150.072 103.186C149.924 103.127 149.835 103.018 149.835 102.872C149.835 102.652 150.012 102.52 150.289 102.52C150.571 102.52 150.745 102.654 150.745 102.876ZM149.921 103.533C149.921 103.711 150.059 103.814 150.291 103.814C150.52 103.814 150.66 103.711 150.66 103.533C150.66 103.365 150.522 103.263 150.289 103.263C150.059 103.263 149.921 103.365 149.921 103.533ZM149.975 102.886C149.975 103.039 150.093 103.127 150.291 103.127C150.488 103.127 150.605 103.039 150.605 102.886C150.605 102.734 150.488 102.645 150.291 102.645C150.093 102.645 149.975 102.734 149.975 102.886Z" fill="#7E9BF3"/>
<path d="M164.28 93.9182H153.242V104.957H164.28V93.9182Z" fill="white"/>
<path d="M161.674 103.944V102.68H161.387V102.527H161.835V103.945H161.674V103.944Z" fill="#7E9BF3"/>
<path d="M162.252 103.85L162.317 103.72C162.41 103.774 162.534 103.806 162.643 103.806C162.947 103.806 163.099 103.558 163.077 103.174C163.014 103.341 162.861 103.434 162.653 103.434C162.375 103.434 162.203 103.262 162.203 102.988C162.203 102.698 162.392 102.517 162.684 102.517C163.027 102.517 163.236 102.767 163.236 103.202C163.236 103.655 163.014 103.951 162.653 103.951C162.523 103.951 162.367 103.91 162.252 103.85ZM163.041 102.978C163.041 102.842 162.937 102.668 162.693 102.668C162.493 102.668 162.355 102.787 162.355 102.99C162.355 103.178 162.481 103.295 162.681 103.295C162.908 103.295 163.041 103.146 163.041 102.978Z" fill="#7E9BF3"/>
<path d="M176.699 93.9182H165.66V104.957H176.699V93.9182Z" fill="white"/>
<path d="M174.172 102.868C174.172 103.004 174.07 103.167 173.92 103.328L173.484 103.79H174.252V103.944H173.277V103.811L173.809 103.233C173.928 103.113 174.003 102.981 174.003 102.89C174.003 102.753 173.898 102.669 173.719 102.669C173.59 102.669 173.446 102.736 173.332 102.846L173.262 102.716C173.399 102.593 173.572 102.52 173.74 102.52C174.001 102.52 174.172 102.655 174.172 102.868Z" fill="#7E9BF3"/>
<path d="M175.64 103.235C175.64 103.693 175.432 103.949 175.055 103.949C174.678 103.949 174.469 103.693 174.469 103.235C174.469 102.777 174.678 102.521 175.055 102.521C175.432 102.521 175.64 102.777 175.64 103.235ZM174.634 103.235C174.634 103.618 174.779 103.811 175.055 103.811C175.331 103.811 175.477 103.618 175.477 103.235C175.477 102.85 175.331 102.66 175.055 102.66C174.779 102.659 174.634 102.85 174.634 103.235Z" fill="#7E9BF3"/>
<path d="M102.194 106.336H91.1562V117.375H102.194V106.336Z" fill="white"/>
<path d="M100.301 115.286C100.301 115.422 100.2 115.586 100.05 115.745L99.6134 116.208H100.382V116.362H99.4069V116.229L99.9382 115.651C100.058 115.53 100.133 115.399 100.133 115.308C100.133 115.171 100.027 115.087 99.8494 115.087C99.7196 115.087 99.5752 115.154 99.4618 115.263L99.3906 115.133C99.5284 115.01 99.7009 114.937 99.8695 114.937C100.131 114.937 100.301 115.073 100.301 115.286Z" fill="#7E9BF3"/>
<path d="M100.811 116.362V115.098H100.523V114.943H100.971V116.362H100.811Z" fill="#7E9BF3"/>
<path d="M114.609 106.336H103.57V117.375H114.609V106.336Z" fill="white"/>
<path d="M112.293 115.286C112.293 115.422 112.192 115.586 112.041 115.745L111.606 116.208H112.374V116.362H111.399V116.229L111.93 115.651C112.049 115.53 112.125 115.399 112.125 115.308C112.125 115.171 112.019 115.087 111.841 115.087C111.711 115.087 111.567 115.154 111.454 115.263L111.383 115.133C111.521 115.01 111.693 114.937 111.861 114.937C112.123 114.937 112.293 115.073 112.293 115.286Z" fill="#7E9BF3"/>
<path d="M113.472 115.286C113.472 115.422 113.37 115.586 113.22 115.745L112.785 116.208H113.553V116.362H112.578V116.229L113.109 115.651C113.229 115.53 113.304 115.399 113.304 115.308C113.304 115.171 113.199 115.087 113.02 115.087C112.891 115.087 112.747 115.154 112.633 115.263L112.562 115.133C112.7 115.01 112.873 114.937 113.041 114.937C113.302 114.937 113.472 115.073 113.472 115.286Z" fill="#7E9BF3"/>
<path d="M127.026 106.336H115.988V117.375H127.026V106.336Z" fill="white"/>
<path d="M124.82 115.286C124.82 115.422 124.718 115.586 124.568 115.745L124.132 116.208H124.901V116.362H123.926V116.229L124.457 115.651C124.577 115.53 124.652 115.399 124.652 115.308C124.652 115.171 124.547 115.087 124.368 115.087C124.238 115.087 124.095 115.154 123.981 115.263L123.91 115.133C124.048 115.01 124.22 114.937 124.388 114.937C124.649 114.937 124.82 115.073 124.82 115.286Z" fill="#7E9BF3"/>
<path d="M125.542 115.549C125.798 115.562 125.97 115.7 125.97 115.926C125.97 116.188 125.777 116.37 125.474 116.37C125.31 116.37 125.141 116.312 125.023 116.226L125.095 116.091C125.196 116.173 125.33 116.225 125.462 116.225C125.682 116.225 125.812 116.105 125.812 115.932C125.812 115.754 125.68 115.663 125.46 115.663H125.285V115.56L125.7 115.1H125.087V114.945H125.903V115.055L125.463 115.544L125.542 115.549Z" fill="#7E9BF3"/>
<path d="M139.444 106.336H128.406V117.375H139.444V106.336Z" fill="white"/>
<path d="M137.136 115.286C137.136 115.422 137.035 115.586 136.885 115.745L136.449 116.208H137.217V116.362H136.243V116.229L136.773 115.651C136.894 115.53 136.968 115.399 136.968 115.308C136.968 115.171 136.862 115.087 136.685 115.087C136.554 115.087 136.41 115.154 136.297 115.263L136.227 115.133C136.364 115.01 136.536 114.937 136.705 114.937C136.966 114.937 137.136 115.073 137.136 115.286Z" fill="#7E9BF3"/>
<path d="M138.067 115.833V115.458H138.219V115.833H138.434V115.989H138.219V116.362H138.067V115.989H137.387V115.855L137.895 114.943H138.055L137.561 115.833L138.067 115.833Z" fill="#7E9BF3"/>
<path d="M151.863 106.336H140.824V117.375H151.863V106.336Z" fill="white"/>
<path d="M149.582 115.286C149.582 115.422 149.48 115.586 149.331 115.745L148.895 116.208H149.663V116.362H148.688V116.229L149.219 115.651C149.339 115.53 149.413 115.399 149.413 115.308C149.413 115.171 149.307 115.087 149.13 115.087C149 115.087 148.855 115.154 148.742 115.263L148.672 115.133C148.81 115.01 148.981 114.937 149.15 114.937C149.412 114.937 149.582 115.073 149.582 115.286Z" fill="#7E9BF3"/>
<path d="M150.087 115.1V115.498C150.16 115.486 150.261 115.478 150.327 115.478C150.624 115.478 150.815 115.655 150.815 115.897C150.815 116.181 150.618 116.366 150.314 116.366C150.158 116.366 149.97 116.305 149.836 116.212L149.903 116.074C150.02 116.163 150.17 116.216 150.298 116.216C150.511 116.216 150.642 116.098 150.642 115.908C150.642 115.74 150.511 115.634 150.302 115.634C150.208 115.634 150.038 115.648 149.937 115.669V114.943H150.76V115.099L150.087 115.1Z" fill="#7E9BF3"/>
<path d="M164.28 106.336H153.242V117.375H164.28V106.336Z" fill="white"/>
<path d="M161.918 115.286C161.918 115.422 161.816 115.586 161.666 115.745L161.23 116.208H161.999V116.362H161.024V116.229L161.555 115.651C161.674 115.53 161.749 115.399 161.749 115.308C161.749 115.171 161.644 115.087 161.466 115.087C161.336 115.087 161.192 115.154 161.078 115.263L161.008 115.133C161.145 115.01 161.318 114.937 161.486 114.937C161.747 114.937 161.918 115.073 161.918 115.286Z" fill="#7E9BF3"/>
<path d="M163.196 115.038L163.132 115.168C163.038 115.113 162.914 115.082 162.804 115.082C162.5 115.082 162.349 115.33 162.371 115.713C162.433 115.547 162.586 115.454 162.795 115.454C163.073 115.454 163.245 115.626 163.245 115.9C163.245 116.19 163.056 116.37 162.764 116.37C162.42 116.37 162.211 116.12 162.211 115.683C162.211 115.233 162.433 114.937 162.795 114.937C162.924 114.937 163.081 114.978 163.196 115.038ZM162.409 115.91C162.408 116.046 162.512 116.22 162.754 116.22C162.955 116.22 163.092 116.099 163.092 115.898C163.092 115.71 162.967 115.592 162.767 115.592C162.541 115.592 162.408 115.742 162.409 115.91Z" fill="#7E9BF3"/>
<path d="M176.699 106.336H165.66V117.375H176.699V106.336Z" fill="white"/>
<path d="M174.437 115.286C174.437 115.422 174.336 115.586 174.186 115.745L173.75 116.208H174.518V116.362H173.543V116.229L174.075 115.651C174.194 115.53 174.269 115.399 174.269 115.308C174.269 115.171 174.163 115.087 173.985 115.087C173.856 115.087 173.712 115.154 173.598 115.263L173.527 115.133C173.665 115.01 173.838 114.937 174.006 114.937C174.267 114.937 174.437 115.073 174.437 115.286Z" fill="#7E9BF3"/>
<path d="M175.098 116.362H174.926L175.51 115.1H174.849V115.306H174.703V114.943H175.688V115.079L175.098 116.362Z" fill="#7E9BF3"/>
<path d="M102.194 118.754H91.1562V129.792H102.194V118.754Z" fill="white"/>
<path d="M99.8005 127.703C99.8005 127.84 99.6992 128.004 99.5489 128.164L99.1134 128.626H99.8817V128.78H98.9066V128.645L99.4375 128.068C99.5576 127.949 99.6322 127.817 99.6322 127.726C99.6322 127.588 99.5271 127.504 99.348 127.504C99.2189 127.504 99.0749 127.571 98.9614 127.681L98.8906 127.551C99.0284 127.427 99.2009 127.354 99.3688 127.354C99.6301 127.354 99.8005 127.491 99.8005 127.703Z" fill="#7E9BF3"/>
<path d="M101.069 127.712C101.069 127.857 100.981 127.965 100.837 128.021C101.022 128.077 101.135 128.204 101.135 128.383C101.135 128.636 100.935 128.789 100.614 128.789C100.29 128.789 100.09 128.636 100.09 128.387C100.09 128.207 100.207 128.077 100.395 128.021C100.247 127.963 100.158 127.854 100.158 127.708C100.158 127.487 100.334 127.354 100.612 127.354C100.894 127.354 101.069 127.489 101.069 127.712ZM100.244 128.368C100.244 128.547 100.382 128.65 100.614 128.65C100.844 128.65 100.983 128.547 100.983 128.368C100.983 128.201 100.845 128.099 100.612 128.099C100.382 128.099 100.244 128.201 100.244 128.368ZM100.299 127.722C100.299 127.874 100.416 127.963 100.615 127.963C100.811 127.963 100.929 127.873 100.929 127.722C100.929 127.57 100.812 127.48 100.615 127.48C100.416 127.48 100.299 127.57 100.299 127.722Z" fill="#7E9BF3"/>
<path d="M114.609 118.754H103.57V129.792H114.609V118.754Z" fill="white"/>
<path d="M112.246 127.703C112.246 127.84 112.146 128.004 111.995 128.164L111.559 128.626H112.327V128.78H111.353V128.645L111.883 128.068C112.003 127.949 112.078 127.817 112.078 127.726C112.078 127.588 111.973 127.504 111.794 127.504C111.664 127.504 111.521 127.571 111.407 127.681L111.336 127.551C111.474 127.427 111.646 127.354 111.814 127.354C112.076 127.354 112.246 127.491 112.246 127.703Z" fill="#7E9BF3"/>
<path d="M112.584 128.684L112.649 128.555C112.742 128.609 112.866 128.642 112.975 128.642C113.279 128.642 113.431 128.392 113.409 128.009C113.346 128.176 113.194 128.269 112.985 128.269C112.707 128.269 112.535 128.096 112.535 127.823C112.535 127.533 112.724 127.353 113.015 127.353C113.36 127.353 113.569 127.603 113.569 128.039C113.569 128.491 113.346 128.786 112.985 128.786C112.855 128.786 112.699 128.745 112.584 128.684ZM113.373 127.813C113.373 127.678 113.269 127.503 113.026 127.503C112.825 127.503 112.687 127.622 112.687 127.825C112.687 128.014 112.813 128.132 113.014 128.132C113.239 128.132 113.373 127.981 113.373 127.813Z" fill="#7E9BF3"/>
<path d="M127.026 118.754H115.988V129.792H127.026V118.754Z" fill="white"/>
<path d="M124.156 127.967C124.411 127.979 124.583 128.117 124.583 128.344C124.583 128.605 124.391 128.788 124.087 128.788C123.923 128.788 123.754 128.729 123.637 128.644L123.708 128.508C123.809 128.591 123.943 128.642 124.075 128.642C124.296 128.642 124.426 128.523 124.426 128.35C124.426 128.171 124.293 128.08 124.073 128.08H123.898V127.977L124.314 127.517H123.7V127.363H124.517V127.472L124.076 127.961L124.156 127.967Z" fill="#7E9BF3"/>
<path d="M125.968 128.07C125.968 128.529 125.758 128.783 125.383 128.783C125.005 128.783 124.797 128.529 124.797 128.07C124.797 127.612 125.005 127.357 125.383 127.357C125.758 127.357 125.968 127.612 125.968 128.07ZM124.961 128.07C124.961 128.454 125.106 128.646 125.383 128.646C125.657 128.646 125.804 128.454 125.804 128.07C125.804 127.686 125.657 127.495 125.383 127.495C125.106 127.495 124.961 127.686 124.961 128.07Z" fill="#7E9BF3"/>
<path d="M94.3999 46.467C94.3999 47.363 93.6732 48.089 92.7779 48.089C91.8826 48.089 91.1562 47.363 91.1562 46.467C91.1562 45.5713 91.8826 44.8453 92.7779 44.8453C93.6732 44.8453 94.3999 45.5713 94.3999 46.467Z" fill="white"/>
<path d="M99.8061 46.467C99.8061 47.363 99.0802 48.089 98.1848 48.089C97.2888 48.089 96.5625 47.363 96.5625 46.467C96.5625 45.5713 97.2888 44.8453 98.1848 44.8453C99.0802 44.8453 99.8061 45.5713 99.8061 46.467Z" fill="white"/>
<path d="M105.212 46.467C105.212 47.363 104.486 48.089 103.59 48.089C102.695 48.089 101.969 47.363 101.969 46.467C101.969 45.5713 102.695 44.8453 103.59 44.8453C104.486 44.8453 105.212 45.5713 105.212 46.467Z" fill="white"/>
<path opacity="0.5" d="M155.809 55.7783C155.809 57.8354 154.142 59.5025 152.085 59.5025H115.768C113.71 59.5025 112.043 57.8354 112.043 55.7783C112.043 53.7215 113.71 52.054 115.768 52.054H152.085C154.142 52.054 155.809 53.7215 155.809 55.7783Z" fill="#A5BDF9"/>
<path d="M149.264 54.6591H118.582V56.8974H149.264V54.6591Z" fill="white"/>
<path d="M121.532 84.714C121.532 85.6617 120.763 86.43 119.816 86.43H96.052C95.1042 86.43 94.3359 85.6617 94.3359 84.714C94.3359 83.7659 95.1042 82.998 96.052 82.998H119.816C120.763 82.998 121.532 83.7663 121.532 84.714Z" fill="#FFCA8B"/>
<path d="M118.447 83.707H97.418V84.2619H118.447V83.707Z" fill="#FE5D58"/>
<path d="M114.362 84.9171H97.418V85.4719H114.362V84.9171Z" fill="#FE5D58"/>
<path d="M172.66 110.439C172.66 111.387 171.892 112.155 170.944 112.155H147.181C146.233 112.155 145.465 111.387 145.465 110.439C145.465 109.492 146.233 108.723 147.181 108.723H170.944C171.892 108.723 172.66 109.492 172.66 110.439Z" fill="#FFCA8B"/>
<path d="M169.576 109.432H148.547V109.987H169.576V109.432Z" fill="#FE5D58"/>
<path d="M165.491 110.642H148.547V111.197H165.491V110.642Z" fill="#FE5D58"/>
<path opacity="0.4" d="M184.493 75.5099H144.09V85.8252V87.9275V91.0073L146.263 87.9275H184.493V75.5099Z" fill="#9F77ED"/>
<path d="M182.977 73.9973H142.574V84.3122V86.4148V89.4943L144.748 86.4148H182.977V73.9973Z" fill="#9F77ED"/>
<path d="M154.109 80.082C154.109 82.6135 152.057 84.6658 149.526 84.6658C146.994 84.6658 144.941 82.6135 144.941 80.082C144.941 77.5501 146.994 75.4985 149.526 75.4985C152.057 75.4985 154.109 77.5501 154.109 80.082Z" fill="white"/>
<path d="M151.84 79.3245H150.287V77.7712H148.771V79.3245H147.219V80.8392H148.771V82.3932H150.287V80.8392H151.84V79.3245Z" fill="#FFCA8B"/>
<path d="M180.756 76.2387H155.391V76.9664H180.756V76.2387Z" fill="white"/>
<path d="M180.756 78.6592H155.391V79.3869H180.756V78.6592Z" fill="white"/>
<path d="M180.756 81.0797H155.391V81.8074H180.756V81.0797Z" fill="white"/>
<path d="M172.43 83.1979H155.391V83.9256H172.43V83.1979Z" fill="white"/>
<path opacity="0.4" d="M83.3555 97.7166H114.681V108.031V110.134V113.214L112.508 110.134H83.3555V97.7166Z" fill="#9F77ED"/>
<path d="M81.8477 96.2037H113.173V106.519V108.621V111.701L111 108.621H81.8477V96.2037Z" fill="#9F77ED"/>
<path d="M93.32 102.08C93.32 104.612 91.2677 106.664 88.7365 106.664C86.2053 106.664 84.1523 104.612 84.1523 102.08C84.1523 99.5486 86.2053 97.497 88.7365 97.497C91.2677 97.497 93.32 99.5486 93.32 102.08Z" fill="white"/>
<path d="M90.9048 102.005C90.3086 102.005 89.7121 102.005 89.1159 102.005C89.1159 100.947 89.1159 100.191 89.1159 99.1326C89.1159 98.645 88.3594 98.645 88.3594 99.1326C88.3594 100.317 88.3594 101.199 88.3594 102.384C88.3594 102.59 88.5315 102.762 88.7376 102.762C89.4601 102.762 90.1826 102.762 90.9048 102.762C91.3924 102.762 91.3924 102.005 90.9048 102.005Z" fill="#FFCA8B"/>
<path d="M100.442 98.2986H95.168V99.0267H100.442V98.2986Z" fill="white"/>
<path d="M110.749 100.719H95.168V101.448H110.749V100.719Z" fill="white"/>
<path d="M110.749 103.14H95.168V103.868H110.749V103.14Z" fill="white"/>
<path d="M105.635 105.258H95.168V105.986H105.635V105.258Z" fill="white"/>
</g>
<defs>
<linearGradient id="paint0_linear_1539_111120" x1="140.5" y1="0" x2="140.5" y2="181.33" gradientUnits="userSpaceOnUse">
<stop stop-color="#F5F5F5"/>
<stop offset="1" stop-color="#E6E6E6"/>
</linearGradient>
<linearGradient id="paint1_linear_1539_111120" x1="154.605" y1="109.6" x2="194.264" y2="109.6" gradientUnits="userSpaceOnUse">
<stop stop-color="#FF9085"/>
<stop offset="1" stop-color="#FB6FBB"/>
</linearGradient>
<linearGradient id="paint2_linear_1539_111120" x1="191.459" y1="104.352" x2="177.735" y2="141.19" gradientUnits="userSpaceOnUse">
<stop offset="0.0036" stop-color="#E38DDD"/>
<stop offset="1" stop-color="#9571F6"/>
</linearGradient>
<linearGradient id="paint3_linear_1539_111120" x1="80.4414" y1="148.764" x2="209.685" y2="148.764" gradientUnits="userSpaceOnUse">
<stop offset="0.494" stop-color="#EBEFF2"/>
<stop offset="1" stop-color="white"/>
</linearGradient>
<linearGradient id="paint4_linear_1539_111120" x1="129.169" y1="41.8934" x2="130.846" y2="77.1466" gradientUnits="userSpaceOnUse">
<stop stop-color="#AA80F9"/>
<stop offset="0.9964" stop-color="#6165D7"/>
</linearGradient>
<linearGradient id="paint5_linear_1539_111120" x1="140.787" y1="96.1887" x2="75.7641" y2="236.197" gradientUnits="userSpaceOnUse">
<stop stop-color="#FFC444"/>
<stop offset="0.9964" stop-color="#F36F56"/>
</linearGradient>
<clipPath id="clip0_1539_111120">
<rect width="281" height="181.33" rx="8" fill="white"/>
</clipPath>
</defs>
</svg>
