<svg width="375" height="200" viewBox="0 0 375 200" fill="none" xmlns="http://www.w3.org/2000/svg">
<g clip-path="url(#clip0_1546_111248)">
<rect width="374.667" height="200" rx="8" fill="url(#paint0_linear_1546_111248)"/>
<path d="M254.605 89.8391C250.811 65.0014 235.252 34.4864 204.516 31.2929C204.516 31.2929 181.179 28.4544 158.174 32.7565C144.521 35.3098 132.549 42.9104 124.973 53.8344C117.398 64.7584 114.868 78.0787 117.939 90.778C119.933 99.0262 121.281 107.563 120.911 116.038C120.445 126.727 119.566 137.966 124.291 147.934C131.215 162.538 148.108 166.84 162.848 168.212C168.28 168.718 173.732 168.922 179.168 169.352C189.598 170.176 201.294 168.842 211.346 166.126C262.574 152.288 258.4 114.677 254.605 89.8391Z" fill="#F4F7FA"/>
<path d="M241.818 72.1395L237.798 71.6122C237.715 69.6656 237.47 67.7545 237.057 65.8999L240.787 64.3383C241.835 63.8995 242.331 62.688 241.894 61.6333L239.17 55.0488C238.736 53.9979 237.535 53.4999 236.488 53.9363L232.738 55.5002C231.717 53.8961 230.56 52.3848 229.277 50.9862L231.755 47.7515C232.444 46.8513 232.276 45.5632 231.379 44.8741L225.777 40.5703C224.882 39.8828 223.597 40.0525 222.906 40.9497L220.413 44.1885C218.758 43.3305 217.012 42.6164 215.191 42.0511L215.747 37.9839C215.9 36.8647 215.117 35.8388 213.998 35.6922L206.999 34.7739C205.879 34.6273 204.845 35.4147 204.689 36.5335L204.117 40.6317C202.216 40.7185 200.347 40.9636 198.528 41.3723L196.979 37.5489C196.557 36.5058 195.364 36.0111 194.314 36.4434L187.743 39.1507C186.691 39.584 186.179 40.7828 186.599 41.8287L188.156 45.7006C186.564 46.7143 185.059 47.8624 183.659 49.1347L180.355 46.5739C179.464 45.8834 178.171 46.0541 177.466 46.9557L173.052 52.6036C172.345 53.5084 172.494 54.8046 173.386 55.4981L176.699 58.0739C175.817 59.731 175.075 61.4817 174.477 63.3068L170.272 62.7553C169.144 62.6074 168.092 63.4084 167.924 64.5452L166.867 71.6692C166.698 72.8106 167.478 73.857 168.61 74.0055L172.827 74.5587C172.877 76.4817 173.087 78.3738 173.461 80.2146L169.504 81.8645C168.437 82.3094 167.913 83.5364 168.333 84.6057L170.969 91.3043C171.392 92.3775 172.601 92.8851 173.67 92.4375L177.63 90.7799C178.625 92.3997 179.761 93.927 181.021 95.3464L178.383 98.7718C177.669 99.6995 177.822 101.026 178.725 101.735L184.381 106.172C185.287 106.882 186.599 106.703 187.312 105.772L189.919 102.369C191.583 103.256 193.345 103.994 195.183 104.582L194.589 108.83C194.427 109.992 195.221 111.057 196.363 111.206L203.503 112.143C204.645 112.293 205.7 111.471 205.859 110.307L206.435 106.092C208.376 106.009 210.285 105.759 212.141 105.34L213.707 109.234C214.142 110.316 215.359 110.826 216.425 110.374L223.084 107.553C224.147 107.102 224.655 105.862 224.218 104.784L222.652 100.917C224.277 99.8683 225.808 98.6764 227.229 97.3588L230.483 99.8891C231.392 100.596 232.697 100.418 233.395 99.4921L237.756 93.7113C238.452 92.7885 238.28 91.4701 237.372 90.7661L234.147 88.2663C235.026 86.5618 235.755 84.7616 236.335 82.8885L240.368 83.4174C241.5 83.5659 242.536 82.7578 242.683 81.6132L243.598 74.4708C243.744 73.331 242.947 72.2876 241.818 72.1395ZM230.714 76.3823C228.832 90.5629 215.887 100.625 201.81 98.7786C187.732 96.9322 177.979 83.893 180.014 69.7324C182.037 55.6573 194.955 45.7894 208.88 47.6159C222.804 49.4422 232.584 62.287 230.714 76.3823Z" fill="#D8DEE8"/>
<path d="M216.534 163.013C216.55 163.015 216.567 163.018 216.583 163.02C219.228 163.443 222.543 163.148 224.685 161.387C225.814 160.46 226.578 159.236 226.813 157.788C226.952 156.928 227.028 156.022 226.893 155.157C226.753 154.252 226.403 153.378 225.952 152.584C225.7 152.141 225.413 151.713 225.109 151.304C224.237 150.134 222.175 148.489 223.131 146.83C223.709 145.827 225.041 145.209 225.92 144.506C227.8 143.002 229.151 140.835 229.17 138.359C229.185 136.414 227.965 134.489 226.59 133.182C220.992 127.861 225.116 118.711 217.188 119.43C209.259 120.148 207.539 128.06 210.509 135.448C211.503 137.921 212.713 140.449 213.388 143.034C213.92 145.069 213.168 146.476 211.511 147.679C210.62 148.326 209.317 148.767 208.542 149.529C206.812 151.231 205.426 153.618 205.839 156.115C206.249 158.593 208.361 160.413 210.586 161.354C212.511 162.168 214.475 162.683 216.534 163.013Z" fill="url(#paint1_linear_1546_111248)"/>
<g opacity="0.8">
<path d="M217.469 160.887C217.487 160.887 217.506 160.884 217.525 160.877C217.609 160.846 217.653 160.752 217.622 160.668C217.588 160.576 214.303 151.404 217.18 144.053C220.103 136.582 216.833 128.584 216.799 128.505C216.765 128.422 216.669 128.383 216.586 128.417C216.503 128.452 216.464 128.547 216.499 128.63C216.531 128.709 219.75 136.589 216.876 143.934C213.954 151.401 217.282 160.687 217.316 160.78C217.34 160.846 217.402 160.887 217.469 160.887Z" fill="white"/>
</g>
<path d="M214.867 149.235C215.531 148.185 216.291 147.197 217.083 146.303C219.762 143.282 221.643 140.076 222.846 136.207C223.794 133.16 223.773 129.675 224.362 126.529C224.788 124.249 225.56 122.043 226.362 119.872C228.07 115.25 230.634 109.887 234.937 107.111C236.93 105.826 239.884 105.699 242.081 106.62C244.928 107.813 247.445 110.136 247.628 113.368C247.879 117.811 243.998 122.792 247.208 126.878C252.122 133.134 249.825 140.085 243.068 143.487C240.866 144.595 238.286 145.623 236.446 147.326C234.601 149.034 235.701 151.947 235.906 154.111C236.098 156.141 236.31 158.499 235.017 160.235C232.834 163.163 227.564 164.439 224.138 164.728C220.824 165.008 217.057 164.642 214.735 161.988C211.237 157.989 212.379 153.174 214.867 149.235Z" fill="url(#paint2_linear_1546_111248)"/>
<g opacity="0.8">
<path d="M220.264 161.973C220.33 161.973 220.392 161.933 220.417 161.868C220.525 161.583 231.243 133.297 237.359 121.898C237.402 121.818 237.372 121.72 237.293 121.677C237.213 121.635 237.115 121.664 237.072 121.744C230.946 133.161 220.22 161.468 220.112 161.753C220.08 161.837 220.123 161.931 220.207 161.963C220.226 161.97 220.245 161.973 220.264 161.973Z" fill="white"/>
</g>
<path d="M224.892 165.974C224.179 165.873 223.468 165.756 222.76 165.642C220.781 165.325 218.329 164.709 217.707 162.5C217.53 161.871 217.835 160.748 217.908 160.095C217.983 159.429 218.078 158.763 218.233 158.111C218.447 157.209 218.79 156.362 219.235 155.55C220.006 154.144 220.887 153.087 222.527 152.768C223.723 152.536 225.048 152.482 226.264 152.522C232.89 152.739 233.705 150.349 237.344 145.243C240.984 140.137 264.938 148.394 250.49 157.465C250.49 157.465 248.317 158.877 240.387 157.954C238.936 157.785 237.101 157.673 235.872 158.611C233.703 160.265 235.884 163.772 233.694 165.148C232.417 165.95 230.364 166.186 228.897 166.243C227.557 166.294 226.22 166.162 224.892 165.974Z" fill="url(#paint3_linear_1546_111248)"/>
<g opacity="0.8">
<path d="M220.464 163.241C220.514 163.241 220.564 163.217 220.596 163.173C220.637 163.116 224.832 157.413 230.784 156.067C233.112 155.54 235.124 154.362 237.07 153.222C240.351 151.301 243.451 149.486 248.025 150.418C248.113 150.436 248.199 150.379 248.217 150.291C248.235 150.203 248.178 150.117 248.09 150.099C243.394 149.141 240.095 151.073 236.905 152.941C234.981 154.068 232.991 155.233 230.712 155.749C224.639 157.123 220.374 162.924 220.332 162.982C220.279 163.055 220.295 163.157 220.368 163.21C220.397 163.231 220.43 163.241 220.464 163.241Z" fill="white"/>
</g>
<path d="M237.927 94.1156C242.405 89.6375 242.405 82.3769 237.927 77.8988C233.449 73.4206 226.188 73.4206 221.71 77.8988C217.232 82.377 217.232 89.6375 221.71 94.1157C226.188 98.5938 233.449 98.5938 237.927 94.1156Z" fill="white"/>
<path d="M229.823 96.1931C235.449 96.1931 240.009 91.6326 240.009 86.0069C240.009 80.3812 235.449 75.8206 229.823 75.8206C224.197 75.8206 219.637 80.3812 219.637 86.0069C219.637 91.6326 224.197 96.1931 229.823 96.1931Z" fill="url(#paint4_linear_1546_111248)"/>
<path d="M229.585 85.0904C229.71 85.155 229.897 85.155 230.021 85.0905L235.628 82.2159C235.426 82.049 235.157 81.9825 234.861 81.9825H224.746C224.451 81.9825 224.182 82.0483 223.98 82.2142L229.585 85.0904Z" fill="#F4F7FA"/>
<path d="M230.476 85.8387C230.263 85.9491 230.031 86.0044 229.788 86.0044C229.543 86.0044 229.262 85.9491 229.049 85.8384L223.52 82.9846V89.0418C223.52 89.6045 224.115 90.2065 224.742 90.2065H234.857C235.484 90.2065 235.943 89.6045 235.943 89.0418V82.9873L230.476 85.8387Z" fill="#F4F7FA"/>
<path d="M224.814 66.067C229.292 61.5888 229.292 54.3283 224.814 49.8501C220.335 45.372 213.075 45.372 208.597 49.8502C204.119 54.3283 204.119 61.5889 208.597 66.067C213.075 70.5452 220.335 70.5452 224.814 66.067Z" fill="white"/>
<path d="M216.706 68.1444C222.331 68.1444 226.892 63.5838 226.892 57.9581C226.892 52.3324 222.331 47.7719 216.706 47.7719C211.08 47.7719 206.52 52.3324 206.52 57.9581C206.52 63.5838 211.08 68.1444 216.706 68.1444Z" fill="url(#paint5_linear_1546_111248)"/>
<path d="M217.857 59.4596L217.482 59.4493C217.446 59.0691 217.359 58.7037 217.228 58.3612L217.555 58.1711C217.74 58.0634 217.807 57.8134 217.704 57.6125L217.659 57.5244C217.556 57.3232 217.322 57.2468 217.136 57.3542L216.806 57.5443C216.6 57.2361 216.354 56.9592 216.074 56.7228L216.269 56.3802C216.379 56.186 216.319 55.9294 216.135 55.8067L216.054 55.7528C215.87 55.6298 215.63 55.6875 215.519 55.8822L215.323 56.226C215.003 56.0662 214.659 55.952 214.296 55.8917L214.302 55.4837C214.306 55.2522 214.131 55.0564 213.912 55.0462L213.816 55.0418C213.597 55.0316 213.416 55.2118 213.412 55.4441L213.406 55.8548C213.039 55.8853 212.685 55.9719 212.354 56.1072L212.164 55.7432C212.055 55.536 211.809 55.4558 211.614 55.5643L211.529 55.6119C211.333 55.7207 211.263 55.9776 211.372 56.1852L211.565 56.5517C211.268 56.7713 211.002 57.0358 210.776 57.3367L210.435 57.1172C210.241 56.9924 209.989 57.053 209.873 57.253L209.822 57.3407C209.706 57.5409 209.77 57.8044 209.965 57.9288L210.308 58.1477C210.159 58.4924 210.056 58.8642 210.007 59.2548L209.607 59.2439C209.379 59.2377 209.192 59.4241 209.189 59.6603L209.188 59.7638C209.184 59.9999 209.367 60.1956 209.594 60.2009L209.995 60.2102C210.035 60.6027 210.128 60.9788 210.268 61.33L209.92 61.5307C209.722 61.645 209.651 61.9046 209.762 62.1102L209.81 62.2002C209.921 62.4055 210.17 62.4786 210.368 62.3639L210.715 62.1616C210.933 62.4724 211.191 62.7489 211.482 62.9821L211.28 63.3365C211.166 63.5378 211.229 63.7972 211.421 63.9154L211.505 63.9671C211.696 64.085 211.944 64.0175 212.058 63.8167L212.259 63.4627C212.586 63.6133 212.936 63.7164 213.302 63.7643L213.296 64.1725C213.293 64.404 213.468 64.5925 213.687 64.5934L213.783 64.5938C214.002 64.5948 214.182 64.4086 214.185 64.178L214.191 63.7703C214.554 63.7276 214.901 63.6302 215.224 63.4863L215.409 63.8377C215.514 64.0371 215.751 64.1067 215.939 63.9935L216.021 63.9439C216.209 63.831 216.276 63.5784 216.172 63.3794L215.988 63.0272C216.273 62.8048 216.527 62.5407 216.741 62.2432L217.063 62.4488C217.246 62.5652 217.482 62.5009 217.591 62.3054L217.638 62.2199C217.747 62.0247 217.688 61.772 217.506 61.6551L217.185 61.4484C217.325 61.1128 217.422 60.7522 217.469 60.3741L217.843 60.3827C218.054 60.3876 218.227 60.2076 218.231 59.9806L218.233 59.8812C218.236 59.6541 218.068 59.4653 217.857 59.4596ZM213.773 61.6608C212.808 61.6442 212.032 60.802 212.046 59.7793C212.061 58.7562 212.861 57.9528 213.826 57.9849C214.783 58.0168 215.541 58.8596 215.526 59.8671C215.511 60.8743 214.73 61.6772 213.773 61.6608Z" fill="white"/>
<path d="M223.942 54.9903L223.663 54.9826C223.636 54.699 223.571 54.4265 223.474 54.1711L223.717 54.0293C223.855 53.949 223.905 53.7625 223.828 53.6127L223.795 53.547C223.718 53.3969 223.543 53.3399 223.405 53.42L223.159 53.5619C223.005 53.332 222.821 53.1255 222.613 52.9491L222.758 52.6936C222.84 52.5488 222.796 52.3574 222.658 52.2659L222.598 52.2257C222.46 52.134 222.281 52.177 222.199 52.3222L222.052 52.5786C221.814 52.4594 221.557 52.3742 221.287 52.3292L221.291 52.0249C221.294 51.8523 221.164 51.7062 221 51.6987L220.929 51.6954C220.765 51.6878 220.63 51.8222 220.627 51.9955L220.623 52.3018C220.349 52.3245 220.085 52.3891 219.839 52.49L219.696 52.2185C219.615 52.064 219.432 52.0042 219.286 52.0851L219.223 52.1206C219.077 52.2018 219.024 52.3933 219.106 52.5482L219.25 52.8215C219.028 52.9853 218.83 53.1826 218.662 53.407L218.407 53.2433C218.262 53.1502 218.075 53.1954 217.988 53.3445L217.95 53.4099C217.863 53.5593 217.911 53.7558 218.056 53.8485L218.312 54.0118C218.201 54.2689 218.125 54.5462 218.088 54.8375L217.789 54.8293C217.62 54.8247 217.48 54.9638 217.478 55.1399L217.477 55.2171C217.474 55.3932 217.61 55.5392 217.78 55.5431L218.079 55.55C218.108 55.8427 218.178 56.1232 218.282 56.3852L218.023 56.5348C217.875 56.6201 217.822 56.8137 217.905 56.967L217.941 57.0341C218.024 57.1872 218.21 57.2418 218.357 57.1562L218.616 57.0053C218.778 57.2371 218.971 57.4434 219.188 57.6173L219.038 57.8816C218.952 58.0318 218.999 58.2252 219.142 58.3133L219.205 58.3519C219.348 58.4399 219.532 58.3895 219.617 58.2397L219.767 57.9757C220.011 58.088 220.272 58.1649 220.545 58.2006L220.541 58.5051C220.538 58.6777 220.669 58.8183 220.833 58.819L220.904 58.8193C221.067 58.82 221.201 58.6811 221.204 58.5091L221.208 58.2051C221.479 58.1732 221.738 58.1006 221.979 57.9932L222.117 58.2553C222.195 58.404 222.372 58.4559 222.512 58.3715L222.573 58.3346C222.713 58.2503 222.764 58.0619 222.686 57.9135L222.548 57.6508C222.761 57.485 222.95 57.288 223.11 57.0661L223.35 57.2194C223.486 57.3062 223.662 57.2583 223.744 57.1125L223.779 57.0487C223.86 56.9031 223.816 56.7146 223.681 56.6274L223.441 56.4733C223.546 56.223 223.618 55.954 223.653 55.672L223.932 55.6785C224.089 55.6821 224.219 55.5479 224.221 55.3786L224.222 55.3045C224.225 55.1353 224.1 54.9946 223.942 54.9903ZM220.897 56.632C220.177 56.6196 219.598 55.9915 219.609 55.2287C219.619 54.4657 220.216 53.8665 220.936 53.8904C221.65 53.9142 222.215 54.5427 222.204 55.2942C222.193 56.0454 221.61 56.6442 220.897 56.632Z" fill="white"/>
<path d="M157.652 54.9312C157.671 63.7744 152.971 70.9911 144.599 71.2285C144.47 71.2321 142.334 71.2281 142.203 71.2284C133.652 71.2493 126.703 63.9865 126.684 55.0067C126.664 46.0268 133.58 38.7303 142.132 38.7095C142.332 38.709 144.209 38.7275 144.407 38.7349C152.682 39.0443 157.632 46.1613 157.652 54.9312Z" fill="url(#paint6_linear_1546_111248)"/>
<path d="M145.062 71.3739C153.614 71.3739 160.546 64.0942 160.546 55.1143C160.546 46.1344 153.614 38.8548 145.062 38.8548C136.511 38.8548 129.578 46.1344 129.578 55.1143C129.578 64.0942 136.511 71.3739 145.062 71.3739Z" fill="url(#paint7_linear_1546_111248)"/>
<path d="M145.063 70.9642C153.399 70.9642 160.157 63.868 160.157 55.1143C160.157 46.3606 153.399 39.2644 145.063 39.2644C136.727 39.2644 129.969 46.3606 129.969 55.1143C129.969 63.868 136.727 70.9642 145.063 70.9642Z" fill="url(#paint8_linear_1546_111248)"/>
<path d="M145.06 70.4857C153.145 70.4857 159.698 63.6037 159.698 55.1143C159.698 46.6249 153.145 39.7429 145.06 39.7429C136.976 39.7429 130.422 46.6249 130.422 55.1143C130.422 63.6037 136.976 70.4857 145.06 70.4857Z" fill="url(#paint9_linear_1546_111248)"/>
<path d="M144.747 70.1572C152.659 70.1572 159.072 63.4223 159.072 55.1144C159.072 46.8065 152.659 40.0716 144.747 40.0716C136.836 40.0716 130.422 46.8065 130.422 55.1144C130.422 63.4223 136.836 70.1572 144.747 70.1572Z" fill="url(#paint10_linear_1546_111248)"/>
<path d="M146.262 54.6836L157.174 58.9151C157.529 57.7196 157.721 56.4483 157.721 55.1299C157.721 48.3416 152.645 42.7983 146.262 42.456L146.262 54.6836Z" fill="url(#paint11_linear_1546_111248)"/>
<g opacity="0.54">
<path d="M141.152 54.7729C140.019 51.1039 144.115 48.4562 143.47 44.1797C143.185 42.2926 142.076 40.7465 140.712 39.506C134.265 41.484 129.562 47.7449 129.578 55.1519C129.598 64.1318 136.546 71.3945 145.098 71.3737C147.195 71.3686 149.193 70.9252 151.015 70.1277C150.751 64.9381 149.159 62.0066 147.466 60.2404C144.857 57.5184 142.016 57.5706 141.152 54.7729Z" fill="#D8DEE8"/>
</g>
<path d="M144.708 56.3062C145.211 56.3062 145.618 55.878 145.618 55.3498C145.618 54.8215 145.211 54.3933 144.708 54.3933C144.205 54.3933 143.797 54.8215 143.797 55.3498C143.797 55.878 144.205 56.3062 144.708 56.3062Z" fill="url(#paint12_linear_1546_111248)"/>
<path d="M144.708 47.7278C144.391 47.7278 144.133 47.9984 144.133 48.3323V54.7795C144.133 55.1133 144.391 55.384 144.708 55.384C145.026 55.384 145.284 55.1134 145.284 54.7795V48.3323C145.284 47.9984 145.026 47.7278 144.708 47.7278Z" fill="url(#paint13_linear_1546_111248)"/>
<path d="M144.857 55.2595L134.544 52.2276C134.363 52.1721 134.163 52.2729 134.098 52.4527C134.034 52.6325 134.129 52.8233 134.311 52.8788L144.623 55.9107C144.805 55.9662 145.005 55.8654 145.069 55.6856C145.134 55.5057 145.039 55.315 144.857 55.2595Z" fill="url(#paint14_linear_1546_111248)"/>
<path d="M204.818 111.237C208.137 107.694 198.949 94.3805 194.031 88.5469C189.734 83.4506 185.318 78.2124 179.896 78.8756C175.135 79.4579 170.502 84.4787 170.224 89.2908C169.478 102.236 200.099 116.275 204.818 111.237Z" fill="url(#paint15_linear_1546_111248)"/>
<path d="M145.439 81.798C149.915 80.5394 156.475 79.0674 164.509 78.6134C175.967 77.9657 181.696 77.6419 185.755 80.3705C195.132 86.6725 187.873 101.218 191.711 137.274C192.259 142.423 192.382 147.609 192.779 152.771C193.436 161.32 193.586 161.784 192.991 162.65C189.261 168.082 175.345 159.889 154.949 163.128C143.537 164.94 138.361 169.114 135.234 166.103C131.588 162.592 134.716 153.147 137.408 145.016C140.498 135.683 142.407 135.563 144.162 128.534C145.995 121.187 144.886 117.405 144.601 105.82C144.464 100.276 144.493 92.0266 145.439 81.798Z" fill="url(#paint16_linear_1546_111248)"/>
<g opacity="0.3">
<path d="M173.175 149.489C167.845 149.071 164.386 152.085 159.784 149.736C153.474 146.516 151.447 136.494 151.849 129.402C152.46 118.626 158.613 115.785 157.553 108.819C156.979 105.052 154.289 100.051 144.633 94.9413C144.504 99.2418 144.529 102.907 144.601 105.82C144.886 117.405 145.995 121.187 144.162 128.534C142.407 135.563 140.498 135.683 137.408 145.016C134.716 153.147 131.588 162.592 135.234 166.103C138.361 169.114 143.537 164.94 154.949 163.128C172.523 160.337 185.28 166.027 190.861 164.181C184.117 153.037 178 149.866 173.175 149.489Z" fill="url(#paint17_linear_1546_111248)"/>
</g>
<path d="M152.707 82.5379C148.899 79.4095 141.244 82.9507 139.197 83.8973C127.785 89.176 117.539 103.401 120.078 118.433C120.459 120.688 122.224 131.233 131.153 136.343C139.21 140.953 150.09 139.767 158.806 133.237C159.998 132.18 161.189 131.124 162.38 130.066C163.552 128.8 164.724 127.533 165.896 126.266C164.054 124.734 160.924 122.523 156.528 121.104C150.732 119.234 146.512 122.59 143.823 120.039C141.967 118.278 141.963 115.168 142.421 113.283C143.345 109.484 146.694 108.416 149.489 105.72C156.056 99.385 157.265 86.2837 152.707 82.5379Z" fill="url(#paint18_linear_1546_111248)"/>
<path d="M207.423 131.613L156.391 130.851L169.961 137.4L207.554 134.94L207.423 131.613Z" fill="url(#paint19_linear_1546_111248)"/>
<path d="M154.59 132.207V132.207C154.59 133.162 155.187 134.015 156.085 134.342L172.392 140.734L172.466 136.303L156.391 130.851C155.489 130.592 154.59 131.269 154.59 132.207Z" fill="url(#paint20_linear_1546_111248)"/>
<path d="M162.445 129.188C162.132 129.118 163.971 125.453 165.415 125.876C166.858 126.299 173.92 130.391 174.561 132.076C175.203 133.761 175.203 133.761 175.203 133.761C175.203 133.761 172.123 134.002 170.213 133.36C168.303 132.718 164.992 129.755 162.445 129.188Z" fill="url(#paint21_linear_1546_111248)"/>
<path d="M177.09 80.4499C176.833 79.073 172.271 79.8118 170.912 77.3206C169.966 75.5876 171.026 73.1273 172.279 71.0898C171.065 68.8154 166.576 68.3692 165.362 66.0949C165.391 69.4918 165.011 72.1858 164.653 74.0307C164.242 76.1445 163.946 76.6906 163.569 77.1337C163 77.8007 162.139 78.3602 157.271 79.5673C154.622 80.2239 154.282 80.2061 154.223 80.4689C153.938 81.7512 161.161 86.1216 168.623 85.0682C173.19 84.4237 177.345 81.8182 177.09 80.4499Z" fill="url(#paint22_linear_1546_111248)"/>
<path d="M174.211 65.0958C176.458 63.2836 177.998 59.5931 176.939 57.9151C175.484 55.6087 169.356 57.481 166.261 58.4264C163.158 59.3747 162.143 60.2891 161.712 61.3398C161.273 62.4134 161.388 63.8052 161.767 64.8407C161.973 65.4051 162.381 66.1091 163.29 67.4548C164.097 68.649 164.042 68.608 164.289 68.9554C164.884 69.7897 166.034 71.1958 168.153 72.8362C168.28 72.2346 168.478 71.4885 168.804 70.6762C168.929 70.3637 169.434 69.142 170.223 68.1179C171.577 66.36 172.848 66.1958 174.211 65.0958Z" fill="url(#paint23_linear_1546_111248)"/>
<path d="M165.435 71.2159C165.435 71.2159 167.611 74.5507 171.727 74.1559C175.412 73.8022 175.699 65.5047 173.287 63.8195C172.482 63.2575 170.898 63.0624 169.628 63.4607C168.878 63.6959 168.631 64.0183 167.398 64.3791C166.26 64.7116 165.932 64.5944 165.595 64.8964C165.173 65.2741 164.883 66.1774 165.68 68.5761C164.954 67.8842 164.1 67.6365 163.509 67.9377C163.415 67.9858 163.167 68.1661 163.032 68.4317C162.545 69.3937 163.446 70.5751 165.435 71.2159Z" fill="url(#paint24_linear_1546_111248)"/>
<path d="M169.832 84.8834C169.545 85.5322 169.222 86.2037 168.859 86.8917C168.701 87.1917 168.541 87.4832 168.381 87.7662C167.722 87.8571 167.063 87.948 166.405 88.0389C165.983 87.0788 165.562 86.1188 165.141 85.1587C165.794 85.2446 166.601 85.2979 167.519 85.2425C168.42 85.1882 169.201 85.0431 169.832 84.8834Z" fill="url(#paint25_linear_1546_111248)"/>
<path d="M168.363 87.5825C168.363 87.5825 170.629 109.76 177.607 113.225C177.439 113.938 177.691 119.712 177.691 119.712C177.691 119.712 171.204 117.85 170.838 117.984C170.471 118.117 162.853 105.853 166.407 88.0388L168.363 87.5825Z" fill="url(#paint26_linear_1546_111248)"/>
<path d="M173.815 105.206L170.218 137.959C170.094 139.089 171.676 140.773 172.811 140.719L225.582 137.479C226.449 137.438 227.171 136.8 227.318 135.944L233.941 104.311C234.139 103.16 232.07 101.971 230.902 102.004L175.602 103.559C174.678 103.585 173.916 104.288 173.815 105.206Z" fill="url(#paint27_linear_1546_111248)"/>
<path d="M175.023 106.161L171.425 138.914C171.301 140.044 172.216 141.018 173.352 140.964L226.79 138.434C227.657 138.393 228.379 137.755 228.526 136.899L233.985 105.122C234.183 103.97 233.277 102.926 232.11 102.959L176.81 104.514C175.886 104.539 175.123 105.243 175.023 106.161Z" fill="url(#paint28_linear_1546_111248)"/>
<path opacity="0.3" d="M206.401 130.76C201.735 128.782 203.382 125.011 197.872 120.311C190.603 114.112 183.194 116.801 180.601 111.995C179.793 110.499 179.407 108.17 180.814 104.401L176.81 104.514C175.886 104.54 175.123 105.243 175.023 106.161L171.425 138.914C171.301 140.044 172.216 141.018 173.352 140.964L226.79 138.434C227.657 138.393 228.379 137.755 228.526 136.9L229.279 132.515C227.658 131.612 225.72 130.792 223.459 130.333C215.62 128.743 211.773 133.036 206.401 130.76Z" fill="url(#paint29_linear_1546_111248)"/>
<path d="M229.42 133.165C228.323 133.151 225.782 133.225 224.413 134.137C222.634 135.323 220.356 137.449 222.379 138.4C223.026 138.797 223.705 139.345 224.514 139.245C224.841 139.205 225.18 139.063 225.494 138.964C225.748 138.885 226.003 138.822 226.262 138.765C226.773 138.653 227.286 138.537 227.793 138.404C227.936 138.367 228.105 138.334 228.236 138.262C228.507 138.112 229.443 134.938 229.804 133.684C229.879 133.425 229.69 133.168 229.42 133.165Z" fill="url(#paint30_linear_1546_111248)"/>
<path d="M205.037 86.7465C209.777 82.0071 209.777 74.3231 205.037 69.5837C200.298 64.8443 192.614 64.8443 187.874 69.5837C183.135 74.3231 183.135 82.0071 187.874 86.7465C192.614 91.4859 200.298 91.4859 205.037 86.7465Z" fill="white"/>
<path d="M196.456 88.9454C202.41 88.9454 207.237 84.1188 207.237 78.1649C207.237 72.211 202.41 67.3845 196.456 67.3845C190.502 67.3845 185.676 72.211 185.676 78.1649C185.676 84.1188 190.502 88.9454 196.456 88.9454Z" fill="url(#paint31_linear_1546_111248)"/>
<path d="M196.742 72.5382C192.66 72.5382 189.352 75.0574 189.352 78.1649C189.352 79.2336 189.743 80.2327 190.422 81.0837L189.71 82.9791C189.642 83.158 189.796 83.3418 189.984 83.3068C190.623 83.1881 191.833 82.9646 192.612 82.8317C193.791 83.4377 195.212 83.7916 196.742 83.7916C200.823 83.7916 204.132 81.2725 204.132 78.1648C204.132 75.0574 200.823 72.5382 196.742 72.5382ZM196.853 80.1421H192.124C191.968 80.1421 191.841 80.0422 191.841 79.8855C191.841 79.7288 191.968 79.6291 192.124 79.6291H196.853C197.01 79.6291 197.137 79.7288 197.137 79.8855C197.137 80.0422 197.01 80.1421 196.853 80.1421ZM201.109 78.432H192.124C191.968 78.432 191.841 78.3322 191.841 78.1755C191.841 78.0188 191.968 77.919 192.124 77.919H201.109C201.266 77.919 201.392 78.0188 201.392 78.1755C201.392 78.3322 201.266 78.432 201.109 78.432ZM201.109 76.893H192.124C191.968 76.893 191.841 76.7077 191.841 76.551C191.841 76.3943 191.968 76.209 192.124 76.209H201.109C201.266 76.209 201.392 76.3943 201.392 76.551C201.392 76.7077 201.266 76.893 201.109 76.893Z" fill="white"/>
<path d="M308.332 20C308.332 16.6863 311.018 14 314.332 14H353.332C356.646 14 359.332 16.6863 359.332 20V38C359.332 41.3137 356.646 44 353.332 44H314.332C311.018 44 308.332 41.3137 308.332 38V20Z" fill="#FAFAFA"/>
<path d="M327.268 27.216C327.268 27.664 327.16 28.084 326.944 28.476C326.736 28.868 326.404 29.184 325.948 29.424C325.5 29.664 324.932 29.784 324.244 29.784H322.84V33H321.16V24.624H324.244C324.892 24.624 325.444 24.736 325.9 24.96C326.356 25.184 326.696 25.492 326.92 25.884C327.152 26.276 327.268 26.72 327.268 27.216ZM324.172 28.428C324.636 28.428 324.98 28.324 325.204 28.116C325.428 27.9 325.54 27.6 325.54 27.216C325.54 26.4 325.084 25.992 324.172 25.992H322.84V28.428H324.172ZM328.029 29.652C328.029 28.98 328.161 28.384 328.425 27.864C328.697 27.344 329.061 26.944 329.517 26.664C329.981 26.384 330.497 26.244 331.065 26.244C331.561 26.244 331.993 26.344 332.361 26.544C332.737 26.744 333.037 26.996 333.261 27.3V26.352H334.953V33H333.261V32.028C333.045 32.34 332.745 32.6 332.361 32.808C331.985 33.008 331.549 33.108 331.053 33.108C330.493 33.108 329.981 32.964 329.517 32.676C329.061 32.388 328.697 31.984 328.425 31.464C328.161 30.936 328.029 30.332 328.029 29.652ZM333.261 29.676C333.261 29.268 333.181 28.92 333.021 28.632C332.861 28.336 332.645 28.112 332.373 27.96C332.101 27.8 331.809 27.72 331.497 27.72C331.185 27.72 330.897 27.796 330.633 27.948C330.369 28.1 330.153 28.324 329.985 28.62C329.825 28.908 329.745 29.252 329.745 29.652C329.745 30.052 329.825 30.404 329.985 30.708C330.153 31.004 330.369 31.232 330.633 31.392C330.905 31.552 331.193 31.632 331.497 31.632C331.809 31.632 332.101 31.556 332.373 31.404C332.645 31.244 332.861 31.02 333.021 30.732C333.181 30.436 333.261 30.084 333.261 29.676ZM337.446 25.56C337.15 25.56 336.902 25.468 336.702 25.284C336.51 25.092 336.414 24.856 336.414 24.576C336.414 24.296 336.51 24.064 336.702 23.88C336.902 23.688 337.15 23.592 337.446 23.592C337.742 23.592 337.986 23.688 338.178 23.88C338.378 24.064 338.478 24.296 338.478 24.576C338.478 24.856 338.378 25.092 338.178 25.284C337.986 25.468 337.742 25.56 337.446 25.56ZM338.274 26.352V33H336.594V26.352H338.274ZM339.501 29.652C339.501 28.98 339.633 28.384 339.897 27.864C340.169 27.344 340.537 26.944 341.001 26.664C341.465 26.384 341.981 26.244 342.549 26.244C342.981 26.244 343.393 26.34 343.785 26.532C344.177 26.716 344.489 26.964 344.721 27.276V24.12H346.425V33H344.721V32.016C344.513 32.344 344.221 32.608 343.845 32.808C343.469 33.008 343.033 33.108 342.537 33.108C341.977 33.108 341.465 32.964 341.001 32.676C340.537 32.388 340.169 31.984 339.897 31.464C339.633 30.936 339.501 30.332 339.501 29.652ZM344.733 29.676C344.733 29.268 344.653 28.92 344.493 28.632C344.333 28.336 344.117 28.112 343.845 27.96C343.573 27.8 343.281 27.72 342.969 27.72C342.657 27.72 342.369 27.796 342.105 27.948C341.841 28.1 341.625 28.324 341.457 28.62C341.297 28.908 341.217 29.252 341.217 29.652C341.217 30.052 341.297 30.404 341.457 30.708C341.625 31.004 341.841 31.232 342.105 31.392C342.377 31.552 342.665 31.632 342.969 31.632C343.281 31.632 343.573 31.556 343.845 31.404C344.117 31.244 344.333 31.02 344.493 30.732C344.653 30.436 344.733 30.084 344.733 29.676Z" fill="#FF8A00"/>
</g>
<defs>
<linearGradient id="paint0_linear_1546_111248" x1="187.333" y1="0" x2="187.333" y2="200" gradientUnits="userSpaceOnUse">
<stop stop-color="#F5F5F5"/>
<stop offset="1" stop-color="#E6E6E6"/>
</linearGradient>
<linearGradient id="paint1_linear_1546_111248" x1="229.17" y1="141.29" x2="205.766" y2="141.29" gradientUnits="userSpaceOnUse">
<stop stop-color="#FF9085"/>
<stop offset="1" stop-color="#FB6FBB"/>
</linearGradient>
<linearGradient id="paint2_linear_1546_111248" x1="249.841" y1="135.415" x2="212.531" y2="135.415" gradientUnits="userSpaceOnUse">
<stop stop-color="#FFC444"/>
<stop offset="0.9964" stop-color="#F36F56"/>
</linearGradient>
<linearGradient id="paint3_linear_1546_111248" x1="255.079" y1="154.966" x2="217.652" y2="154.966" gradientUnits="userSpaceOnUse">
<stop offset="0.0036" stop-color="#E38DDD"/>
<stop offset="1" stop-color="#9571F6"/>
</linearGradient>
<linearGradient id="paint4_linear_1546_111248" x1="219.637" y1="86.0069" x2="240.009" y2="86.0069" gradientUnits="userSpaceOnUse">
<stop stop-color="#FF9085"/>
<stop offset="1" stop-color="#FB6FBB"/>
</linearGradient>
<linearGradient id="paint5_linear_1546_111248" x1="208.756" y1="68.8193" x2="186.533" y2="99.1786" gradientUnits="userSpaceOnUse">
<stop stop-color="#FFC444"/>
<stop offset="0.9964" stop-color="#F36F56"/>
</linearGradient>
<linearGradient id="paint6_linear_1546_111248" x1="135.157" y1="50.5283" x2="154.405" y2="61.6715" gradientUnits="userSpaceOnUse">
<stop stop-color="#444B8C"/>
<stop offset="0.9964" stop-color="#26264F"/>
</linearGradient>
<linearGradient id="paint7_linear_1546_111248" x1="151.46" y1="45.5028" x2="120.489" y2="92.0313" gradientUnits="userSpaceOnUse">
<stop offset="0.0036" stop-color="#E38DDD"/>
<stop offset="1" stop-color="#9571F6"/>
</linearGradient>
<linearGradient id="paint8_linear_1546_111248" x1="152.947" y1="44.0882" x2="143.643" y2="57.0997" gradientUnits="userSpaceOnUse">
<stop offset="0.0036" stop-color="#E38DDD"/>
<stop offset="1" stop-color="#9571F6"/>
</linearGradient>
<linearGradient id="paint9_linear_1546_111248" x1="135.377" y1="29.2095" x2="149.399" y2="66.7226" gradientUnits="userSpaceOnUse">
<stop offset="0.0036" stop-color="#E38DDD"/>
<stop offset="1" stop-color="#9571F6"/>
</linearGradient>
<linearGradient id="paint10_linear_1546_111248" x1="126.93" y1="103.135" x2="154.852" y2="27.8806" gradientUnits="userSpaceOnUse">
<stop offset="0.0036" stop-color="#EBEFF2"/>
<stop offset="1" stop-color="white"/>
</linearGradient>
<linearGradient id="paint11_linear_1546_111248" x1="155.087" y1="43.909" x2="138.478" y2="77.3156" gradientUnits="userSpaceOnUse">
<stop offset="0.0036" stop-color="#E38DDD"/>
<stop offset="1" stop-color="#9571F6"/>
</linearGradient>
<linearGradient id="paint12_linear_1546_111248" x1="136.835" y1="40.6735" x2="154.674" y2="73.9288" gradientUnits="userSpaceOnUse">
<stop stop-color="#FF9085"/>
<stop offset="1" stop-color="#FB6FBB"/>
</linearGradient>
<linearGradient id="paint13_linear_1546_111248" x1="138.416" y1="39.8257" x2="156.255" y2="73.0811" gradientUnits="userSpaceOnUse">
<stop stop-color="#FF9085"/>
<stop offset="1" stop-color="#FB6FBB"/>
</linearGradient>
<linearGradient id="paint14_linear_1546_111248" x1="119.836" y1="17.2546" x2="160.584" y2="93.2183" gradientUnits="userSpaceOnUse">
<stop stop-color="#FF9085"/>
<stop offset="1" stop-color="#FB6FBB"/>
</linearGradient>
<linearGradient id="paint15_linear_1546_111248" x1="196.302" y1="58.7988" x2="158.152" y2="241.709" gradientUnits="userSpaceOnUse">
<stop stop-color="#FF9085"/>
<stop offset="1" stop-color="#FB6FBB"/>
</linearGradient>
<linearGradient id="paint16_linear_1546_111248" x1="183.1" y1="56.0436" x2="144.95" y2="238.954" gradientUnits="userSpaceOnUse">
<stop stop-color="#FF9085"/>
<stop offset="1" stop-color="#FB6FBB"/>
</linearGradient>
<linearGradient id="paint17_linear_1546_111248" x1="150.291" y1="212.475" x2="164.77" y2="143.701" gradientUnits="userSpaceOnUse">
<stop stop-color="#FF9085"/>
<stop offset="1" stop-color="#FB6FBB"/>
</linearGradient>
<linearGradient id="paint18_linear_1546_111248" x1="156.961" y1="50.5928" x2="118.812" y2="233.503" gradientUnits="userSpaceOnUse">
<stop stop-color="#FF9085"/>
<stop offset="1" stop-color="#FB6FBB"/>
</linearGradient>
<linearGradient id="paint19_linear_1546_111248" x1="189.488" y1="152.711" x2="183.314" y2="135.22" gradientUnits="userSpaceOnUse">
<stop stop-color="#311944"/>
<stop offset="1" stop-color="#893976"/>
</linearGradient>
<linearGradient id="paint20_linear_1546_111248" x1="162.519" y1="127.369" x2="164.783" y2="143.008" gradientUnits="userSpaceOnUse">
<stop stop-color="#311944"/>
<stop offset="1" stop-color="#893976"/>
</linearGradient>
<linearGradient id="paint21_linear_1546_111248" x1="162.167" y1="129.824" x2="149.374" y2="129.824" gradientUnits="userSpaceOnUse">
<stop stop-color="#FFC444"/>
<stop offset="0.9964" stop-color="#F36F56"/>
</linearGradient>
<linearGradient id="paint22_linear_1546_111248" x1="158.284" y1="35.9307" x2="167.5" y2="91.6914" gradientUnits="userSpaceOnUse">
<stop stop-color="#FFC444"/>
<stop offset="0.9964" stop-color="#F36F56"/>
</linearGradient>
<linearGradient id="paint23_linear_1546_111248" x1="165.76" y1="44.1196" x2="169.653" y2="62.6284" gradientUnits="userSpaceOnUse">
<stop stop-color="#444B8C"/>
<stop offset="0.9964" stop-color="#26264F"/>
</linearGradient>
<linearGradient id="paint24_linear_1546_111248" x1="169.645" y1="62.7239" x2="165.278" y2="98.2219" gradientUnits="userSpaceOnUse">
<stop stop-color="#FFC444"/>
<stop offset="0.9964" stop-color="#F36F56"/>
</linearGradient>
<linearGradient id="paint25_linear_1546_111248" x1="168.012" y1="75.4979" x2="167.131" y2="91.4572" gradientUnits="userSpaceOnUse">
<stop stop-color="#444B8C"/>
<stop offset="0.9964" stop-color="#26264F"/>
</linearGradient>
<linearGradient id="paint26_linear_1546_111248" x1="171.58" y1="108.915" x2="171.073" y2="69.9226" gradientUnits="userSpaceOnUse">
<stop stop-color="#444B8C"/>
<stop offset="0.9964" stop-color="#26264F"/>
</linearGradient>
<linearGradient id="paint27_linear_1546_111248" x1="207.366" y1="128.739" x2="195.33" y2="111.648" gradientUnits="userSpaceOnUse">
<stop stop-color="#444B8C"/>
<stop offset="0.9964" stop-color="#26264F"/>
</linearGradient>
<linearGradient id="paint28_linear_1546_111248" x1="184.281" y1="157.024" x2="210.621" y2="103.521" gradientUnits="userSpaceOnUse">
<stop stop-color="#311944"/>
<stop offset="1" stop-color="#893976"/>
</linearGradient>
<linearGradient id="paint29_linear_1546_111248" x1="171.414" y1="122.684" x2="229.279" y2="122.684" gradientUnits="userSpaceOnUse">
<stop stop-color="#311944"/>
<stop offset="1" stop-color="#893976"/>
</linearGradient>
<linearGradient id="paint30_linear_1546_111248" x1="221.586" y1="136.21" x2="229.821" y2="136.21" gradientUnits="userSpaceOnUse">
<stop stop-color="#FFC444"/>
<stop offset="0.9964" stop-color="#F36F56"/>
</linearGradient>
<linearGradient id="paint31_linear_1546_111248" x1="185.676" y1="78.1649" x2="207.237" y2="78.1649" gradientUnits="userSpaceOnUse">
<stop stop-color="#AA80F9"/>
<stop offset="0.9964" stop-color="#6165D7"/>
</linearGradient>
<clipPath id="clip0_1546_111248">
<rect width="374.667" height="200" rx="8" fill="white"/>
</clipPath>
</defs>
</svg>
